<?xml version="1.0" encoding="UTF-8" standalone="no"?>
<!-- Created with Inkscape (http://www.inkscape.org/) -->

<svg
   width="210mm"
   height="297mm"
   viewBox="0 0 210 297"
   version="1.1"
   id="svg7859"
   sodipodi:docname="light.svg"
   inkscape:version="1.2.2 (b0a8486541, 2022-12-01)"
   xmlns:inkscape="http://www.inkscape.org/namespaces/inkscape"
   xmlns:sodipodi="http://sodipodi.sourceforge.net/DTD/sodipodi-0.dtd"
   xmlns="http://www.w3.org/2000/svg"
   xmlns:svg="http://www.w3.org/2000/svg">
  <sodipodi:namedview
     id="namedview7861"
     pagecolor="#ffffff"
     bordercolor="#666666"
     borderopacity="1.0"
     inkscape:showpageshadow="2"
     inkscape:pageopacity="0.0"
     inkscape:pagecheckerboard="0"
     inkscape:deskcolor="#d1d1d1"
     inkscape:document-units="mm"
     showgrid="false"
     inkscape:zoom="0.7180275"
     inkscape:cx="340.51621"
     inkscape:cy="277.14816"
     inkscape:window-width="1920"
     inkscape:window-height="990"
     inkscape:window-x="0"
     inkscape:window-y="0"
     inkscape:window-maximized="1"
     inkscape:current-layer="g3386" />
  <defs
     id="defs7856">
    <rect
       x="69.635216"
       y="1026.4231"
       width="650.39292"
       height="61.27899"
       id="rect3322" />
    <rect
       x="50.137356"
       y="863.47668"
       width="683.81782"
       height="158.76829"
       id="rect3316" />
    <rect
       x="40.388425"
       y="15.319748"
       width="733.95518"
       height="115.59446"
       id="rect3257" />
  </defs>
  <g
     inkscape:groupmode="layer"
     id="layer3"
     inkscape:label="Background"
     style="display:none">
    <rect
       style="fill:#333333;fill-opacity:1;stroke:none;stroke-width:5.5717;stroke-linecap:round;stroke-dasharray:none"
       id="rect3175"
       width="215.933"
       height="312.10797"
       x="-2.9478908"
       y="-1.8424317" />
  </g>
  <g
     inkscape:label="Shark"
     inkscape:groupmode="layer"
     id="layer1"
     style="display:inline;stroke-width:1.00013;stroke-dasharray:none"
     transform="matrix(0.82390335,0,0,0.82390335,2.2311013,-10.864883)">
    <g
       id="g8458"
       inkscape:label="Body"
       style="fill:#ffaaee;fill-opacity:1;stroke-width:1.00013;stroke-dasharray:none">
      <g
         inkscape:label="Outline"
         id="g2997"
         style="stroke-width:1.00013;stroke-dasharray:none">
        <g
           id="g2975"
           inkscape:label="Body"
           style="fill:#ffaaee;fill-opacity:1;stroke-width:1.00013;stroke-dasharray:none">
          <path
             id="path2963"
             style="fill:#ffffff;fill-opacity:1;stroke:#ffffff;stroke-width:5.29167;stroke-linecap:round;stroke-linejoin:round;stroke-dasharray:none;stroke-opacity:1"
             inkscape:label="Body"
             d="M 123.50524,41.950267 104.51467,65.027412 A 63.16169,48.60648 0 0 0 53.095589,112.7568 63.16169,48.60648 0 0 0 100.88389,159.8702 c 0.92089,0.92098 1.83558,1.87197 2.7404,2.84169 -4.570324,0.23524 -9.824744,0.79218 -13.038483,2.06861 -16.929847,6.72413 -7.815544,21.9139 -7.815544,21.9139 0,0 2.09038,-6.66828 17.225822,-11.41119 3.890355,-1.2191 9.033165,-2.30814 11.548135,-2.81223 3.00871,4.41182 5.33647,9.02601 6.37119,13.61468 3.40549,15.10233 -21.901689,35.50363 -23.325196,36.63755 -0.04357,-0.15042 -0.07338,-0.24959 -0.07338,-0.24959 0,0 -5.089366,-8.5315 -17.134871,-12.52844 -8.053298,-2.67224 -25.333338,-2.48719 -25.333338,-2.48719 0,0 10.714159,7.79908 15.200106,12.62042 3.703292,3.98018 8.875837,7.8634 9.48831,13.26534 0.83585,7.3721 -8.566919,20.54345 -8.566919,20.54345 l -7.462077,9.21184 c 0,0 25.711787,-4.63298 31.874024,-14.55518 6.177219,-9.94632 2.652674,-23.56422 2.030883,-25.739 2.978193,-1.3619 69.087328,-31.88371 78.575568,-62.14504 0.40247,-1.28362 0.77732,-2.54619 1.13429,-3.79512 2.13498,0.57304 4.82924,1.35966 7.02645,2.20658 12.36282,4.76528 14.06994,11.46494 14.06994,11.46494 0,0 7.44492,-15.26142 -6.38359,-22.01726 -2.97964,-1.4557 -8.10658,-1.97967 -12.12587,-2.15698 2.67737,-12.93764 2.94118,-23.51305 2.4014,-31.27509 a 63.16169,48.60648 0 0 0 0.108,-2.33009 63.16169,48.60648 0 0 0 -49.91736,-47.522683 c -2.60038,-1.665057 -4.91556,-3.577158 -5.99654,-5.566068 -3.24458,-5.969802 0,-17.717782 0,-17.717782 z" />
        </g>
      </g>
      <path
         style="fill:#ffaaee;fill-opacity:1;stroke:#000000;stroke-width:1.00013;stroke-linecap:butt;stroke-linejoin:miter;stroke-dasharray:none;stroke-opacity:1"
         d="m 102.92088,66.963712 20.58418,-25.013681 c 0,0 -3.24459,11.748216 0,17.718024 3.22853,5.940261 17.45747,11.204046 17.45747,11.204046 z"
         id="path1373"
         sodipodi:nodetypes="ccscc"
         inkscape:label="Top Fin" />
      <path
         style="fill:#ffaaee;fill-opacity:1;stroke:#000000;stroke-width:1.00013;stroke-linecap:butt;stroke-linejoin:miter;stroke-dasharray:none;stroke-opacity:1"
         d="m 171.05711,146.30399 c 0,0 12.55326,-0.43577 17.97859,2.21475 13.82852,6.75585 6.38369,22.01725 6.38369,22.01725 0,0 -1.70736,-6.69932 -14.07019,-11.4646 -4.35667,-1.67929 -10.68293,-3.12671 -10.68293,-3.12671 z"
         id="path2139"
         sodipodi:nodetypes="cscscc"
         inkscape:label="Side Fin" />
      <path
         style="fill:#ffaaee;fill-opacity:1;stroke:#000000;stroke-width:1.00013;stroke-linecap:butt;stroke-linejoin:miter;stroke-dasharray:none;stroke-opacity:1"
         d="m 112.5963,162.57595 c 0,0 -15.368599,-0.43372 -22.010675,2.20436 -16.929864,6.72414 -7.815369,21.91391 -7.815369,21.91391 0,0 2.090272,-6.66788 17.22573,-11.41079 5.333744,-1.67141 13.078804,-3.11204 13.078804,-3.11204 z"
         id="path2211"
         sodipodi:nodetypes="cscscc"
         inkscape:label="Side Fin" />
      <path
         id="path8088"
         style="fill:#ffaaee;fill-opacity:1;stroke:#000000;stroke-width:1.00013;stroke-linecap:butt;stroke-linejoin:miter;stroke-dasharray:none;stroke-opacity:1"
         inkscape:label="Body"
         d="M 116.25763,64.150462 A 63.16169,48.60648 0 0 0 53.095589,112.7568 63.16169,48.60648 0 0 0 100.88389,159.8702 c 7.59288,7.59362 14.9436,16.95618 17.03152,26.21546 3.50307,15.53508 -23.583062,36.84839 -23.583062,36.84839 0,0 69.149522,-31.31631 78.856172,-62.27423 6.13302,-19.56038 6.84979,-35.11626 6.12262,-45.57293 a 63.16169,48.60648 0 0 0 0.108,-2.33009 63.16169,48.60648 0 0 0 -63.16151,-48.606338 z" />
      <path
         style="fill:#ffd5f6;stroke:none;stroke-width:1.00013;stroke-linecap:butt;stroke-linejoin:miter;stroke-dasharray:none;stroke-opacity:1"
         d="m 136.85871,161.8724 c 4.75074,-0.52881 7.97003,1.20722 13.02796,5.99286 2.8502,2.69676 -1.257,9.15113 -3.58269,12.31141 -2.76648,3.75927 -11.7903,8.01221 -11.7903,8.01221 0,0 -11.98786,-9.73494 -10.94348,-16.15467 0.89538,-5.50385 7.74653,-9.54493 13.28851,-10.16181 z"
         id="path2137"
         sodipodi:nodetypes="ssscss"
         inkscape:label="Blob" />
      <path
         style="fill:#ffaaee;stroke:#000000;stroke-width:1.00013;stroke-linecap:butt;stroke-linejoin:miter;stroke-dasharray:none;stroke-opacity:1"
         d="m 94.516748,222.47363 c 0,0 -5.089097,-8.53159 -17.134614,-12.52853 -8.053306,-2.67224 -25.333436,-2.48728 -25.333436,-2.48728 0,0 10.714109,7.7993 15.200061,12.62065 3.703295,3.98018 8.876048,7.86356 9.488522,13.26551 0.835851,7.3721 -8.567306,20.54311 -8.567306,20.54311 l -7.46185,9.21215 c 0,0 25.711827,-4.63299 31.87407,-14.5552 6.729779,-10.83603 1.934553,-26.07041 1.934553,-26.07041 z"
         id="path2214"
         sodipodi:nodetypes="cscssccsc"
         inkscape:label="Bottom Fin" />
    </g>
    <g
       id="g1004"
       inkscape:label="Eye"
       style="stroke-width:1.00013;stroke-dasharray:none">
      <circle
         style="fill:#ffffff;stroke:#000000;stroke-width:1.00013;stroke-linecap:round;stroke-dasharray:none"
         id="path947"
         cx="94.332481"
         cy="99.859756"
         r="16.032423"
         inkscape:label="White" />
      <circle
         style="fill:#2a7fff;stroke:none;stroke-width:1.00013;stroke-linecap:round;stroke-dasharray:none"
         id="path1058"
         cx="94.332481"
         cy="99.859756"
         r="9.25"
         inkscape:label="Iris" />
      <circle
         style="fill:#000000;stroke:none;stroke-width:1.00013;stroke-linecap:round;stroke-dasharray:none"
         id="path1166"
         cx="94.332481"
         cy="99.859756"
         r="2.1170001"
         inkscape:label="Pupil" />
    </g>
    <g
       id="g1202"
       inkscape:label="Eye"
       transform="translate(37.520525,2.4403596e-4)"
       style="stroke-width:1.00013;stroke-dasharray:none">
      <circle
         style="fill:#ffffff;stroke:#000000;stroke-width:1.00013;stroke-linecap:round;stroke-dasharray:none"
         id="circle1196"
         cx="94.332481"
         cy="99.859756"
         r="16.032423"
         inkscape:label="White" />
      <circle
         style="fill:#2a7fff;stroke:none;stroke-width:1.00013;stroke-linecap:round;stroke-dasharray:none"
         id="circle1198"
         cx="94.332481"
         cy="99.859756"
         r="9.25"
         inkscape:label="Iris" />
      <circle
         style="fill:#000000;stroke:none;stroke-width:1.00013;stroke-linecap:round;stroke-dasharray:none"
         id="circle1200"
         cx="94.332481"
         cy="99.859756"
         r="2.1170001"
         inkscape:label="Pupil" />
    </g>
    <path
       style="fill:#000000;stroke:none;stroke-width:1.00013;stroke-linecap:butt;stroke-linejoin:miter;stroke-dasharray:none;stroke-opacity:1"
       d="m 66.051757,110.21654 c 0,0 32.143689,17.2685 47.682333,17.32718 21.67387,0.0819 54.84771,-24.232 54.84771,-24.232 0,0 -31.36756,52.39155 -57.06246,51.85128 -21.306442,-0.448 -45.467583,-44.94646 -45.467583,-44.94646 z"
       id="path1371"
       sodipodi:nodetypes="cscsc"
       inkscape:label="Mouth" />
  </g>
  <g
     id="g3386"
     inkscape:label="Text"
     style="stroke:none;fill:#000000;fill-opacity:1">
    <g
       aria-label="pamtofficial.github.io/babyshark"
       transform="matrix(0.26458333,0,0,0.26458333,5.3766248,-1.4739454)"
       id="text3320"
       style="font-size:40px;line-height:1.25;font-family:'Comic Sans MS';-inkscape-font-specification:'Comic Sans MS';white-space:pre;shape-inside:url(#rect3322);display:inline;stroke:none;stroke-opacity:1;paint-order:markers stroke fill;stroke-linecap:round;stroke-linejoin:round;stroke-width:3.00000004;stroke-dasharray:none;fill:#000000;fill-opacity:1"
       inkscape:label="pamtofficial.github.io/babyshark">
      <path
         d="m 80.650391,1061.4229 q -1.953125,0 -4.296875,-0.625 l -0.03906,9.3359 q 0,0.8594 -0.546875,1.4062 -0.527344,0.5469 -1.367187,0.5469 -0.839844,0 -1.386719,-0.5469 -0.527344,-0.5468 -0.527344,-1.4062 l 0.05859,-7.8125 v -7.793 q -0.05859,-4.2773 -0.292969,-7.7929 l -0.292969,-3.9649 q 0,-1.3867 0.507813,-2.3437 0.585937,-1.1524 1.699219,-1.1524 0.761718,0 1.269531,0.5469 0.527344,0.5273 0.527344,1.3086 0,0.1758 -0.05859,0.6445 -0.09766,0.6055 -0.136719,1.1133 1.679688,-1.1523 3.242188,-1.7187 1.5625,-0.586 2.988281,-0.586 4.003906,0 5.859375,3.5547 1.464844,2.8125 1.464844,7.4414 0,4.2188 -2.265625,6.9531 -2.402344,2.8907 -6.40625,2.8907 z m 1.347656,-16.9336 q -1.796875,0 -3.242188,0.8007 -1.035156,0.5665 -2.617187,2.0704 0.253906,4.4336 0.253906,9.3164 2.128906,0.8203 4.257813,0.8203 2.441406,0 3.730468,-1.8164 1.113282,-1.5821 1.113282,-4.1016 0,-3.5547 -0.878907,-5.3125 -0.859375,-1.7773 -2.617187,-1.7773 z"
         style="fill:#000000;stroke:none;stroke-opacity:1;paint-order:markers stroke fill;stroke-linecap:round;stroke-linejoin:round;stroke-width:3.00000004;stroke-dasharray:none;fill-opacity:1"
         id="path3415" />
      <path
         d="m 108.99023,1062.0283 q -0.37109,0 -1.34765,-0.8593 -0.87891,-0.8008 -1.3086,-1.4258 -1.875,1.0156 -3.30078,1.5234 -1.42578,0.5274 -2.38281,0.5274 -4.570312,0 -6.660156,-2.5782 -1.972656,-2.4218 -1.972656,-7.4218 0,-4.7266 3.242188,-8.086 3.261718,-3.3594 7.773434,-3.3594 1.69922,0 3.8086,0.8789 2.65625,1.0938 2.65625,2.6368 0,0.5273 -0.39063,0.9375 -0.19531,0.7422 -0.3125,2.4414 -0.0977,1.6992 -0.11719,4.3554 -0.0195,2.4219 0.33204,3.8282 0.19531,0.8593 1.23046,3.4375 0.13672,0.3515 0.44922,1.0351 l 0.11719,0.3321 q 0,0.7812 -0.54687,1.289 -0.54688,0.5078 -1.26954,0.5078 z m -4.0625,-13.5742 q 0,-0.8398 0.0977,-1.8164 0.11719,-0.9961 0.33203,-2.1094 -0.72265,-0.3711 -1.25,-0.5468 -0.50781,-0.1758 -0.82031,-0.1758 -3.02734,0 -5.234376,2.4804 -2.1875,2.461 -2.1875,5.6836 0,3.2032 1.132813,4.8047 1.132812,1.6016 3.398433,1.6016 1.875,0 3.1836,-0.6836 0.70312,-0.3711 1.97265,-1.4844 -0.625,-5.1758 -0.625,-7.7539 z"
         style="fill:#000000;stroke:none;stroke-opacity:1;paint-order:markers stroke fill;stroke-linecap:round;stroke-linejoin:round;stroke-width:3.00000004;stroke-dasharray:none;fill-opacity:1"
         id="path3417" />
      <path
         d="m 139.00977,1062.3604 q -1.60157,0 -1.875,-1.6993 -0.35157,-2.1484 -0.70313,-6.0546 l -0.66406,-6.0547 q -0.19531,-1.3477 -0.66406,-2.6368 -0.66407,-1.7578 -1.44532,-1.7578 -0.72265,0 -2.69531,1.2305 -1.875,1.1328 -2.46094,1.8164 -0.0195,1.8359 0.0977,3.6719 l 0.58594,5.2148 q 0.37109,3.086 0.37109,5.0977 0,0.8594 -0.54687,1.4062 -0.52735,0.5664 -1.36719,0.5664 -0.83985,0 -1.38672,-0.5664 -0.52734,-0.5468 -0.52734,-1.4062 0,-2.3633 -0.48829,-6.9727 -0.46875,-4.6289 -0.46875,-6.9922 0,-2.0703 -0.58593,-3.2226 -1.36719,0.625 -2.77344,2.0312 l -2.30469,2.5782 q -0.3125,0.4687 -0.99609,1.2304 0,1.1719 -0.21485,3.4571 -0.21484,2.2851 -0.21484,3.3789 0,0.5859 0.17578,1.6406 0.19531,1.0547 0.19531,1.5234 0,0.8008 -0.60546,1.3477 -0.58594,0.5469 -1.38672,0.5469 -2.20703,0 -2.20703,-5.0196 0,-1.1718 0.21484,-3.4961 0.21484,-2.3242 0.21484,-3.4961 0,-1.0351 -0.19531,-3.1054 -0.17578,-2.0703 -0.17578,-3.125 0,-4.4336 1.99219,-4.4336 0.76172,0 1.38672,0.664 0.64453,0.6641 0.64453,1.4454 0,0.371 -0.0977,1.1523 -0.0977,0.7812 -0.0977,1.1914 l 0.0391,2.0508 q 1.01562,-2.0899 2.98828,-3.7695 1.97265,-1.6993 3.35937,-1.6993 3.06641,0 4.21875,3.0469 1.07422,-1.4258 2.5586,-2.1289 1.48437,-0.7227 3.39843,-0.7227 3.26172,0 4.45313,3.5157 0.23437,0.7031 0.80078,5.4883 0.54688,3.3593 1.40625,11.1914 0.0586,0.7812 -0.52734,1.3281 -0.58594,0.5469 -1.42578,0.5469 z"
         style="fill:#000000;stroke:none;stroke-opacity:1;paint-order:markers stroke fill;stroke-linecap:round;stroke-linejoin:round;stroke-width:3.00000004;stroke-dasharray:none;fill-opacity:1"
         id="path3419" />
      <path
         d="m 158.3457,1044.0986 q -0.41015,0 -0.97656,-0.039 -0.54687,-0.039 -0.95703,-0.039 -0.44922,0 -2.65625,0.293 l 0.37109,11.543 0.0195,0.8593 0.0195,0.9961 q 0.0781,4.2774 -2.05079,4.2774 -0.78125,0 -1.36718,-0.5078 -0.56641,-0.5079 -0.56641,-1.2696 0,-0.7422 0.0586,-2.2265 0.0586,-1.4844 0.0586,-2.2266 l -0.39063,-11.4063 q -1.42578,-0.058 -4.33593,-0.332 -1.73829,-0.2344 -1.73829,-1.9336 0,-0.8594 0.52735,-1.4258 0.52734,-0.5664 1.34765,-0.5664 l 4.10157,0.3321 q 0,-0.9961 -0.0977,-2.6563 -0.0781,-1.6797 -0.0781,-2.4219 0,-0.8203 0.5664,-1.3476 0.56641,-0.5469 1.38672,-0.5469 1.75781,0 2.05078,2.8711 0.0586,0.7227 0.0586,1.7383 l -0.0391,1.1328 -0.0195,1.2109 q 2.42188,-0.3125 2.77344,-0.3125 2.03125,0 2.65625,0.1953 1.19141,0.3907 1.19141,1.836 0,0.8594 -0.54688,1.4258 -0.52734,0.5468 -1.36719,0.5468 z"
         style="fill:#000000;stroke:none;stroke-opacity:1;paint-order:markers stroke fill;stroke-linecap:round;stroke-linejoin:round;stroke-width:3.00000004;stroke-dasharray:none;fill-opacity:1"
         id="path3421" />
      <path
         d="m 171.45117,1061.8916 q -3.28125,0 -5.64453,-2.4219 -2.63672,-2.6953 -2.77344,-7.2461 -0.11718,-4.414 2.22657,-7.7734 2.73437,-3.9648 7.61718,-3.9648 3.90625,0 5.91797,3.5742 1.60156,2.8906 1.54297,6.9531 -0.0586,4.3359 -2.26562,7.4023 -2.5,3.4766 -6.6211,3.4766 z m 1.17188,-17.4414 q -2.8711,-0.02 -4.47266,2.7344 -1.26953,2.207 -1.26953,5.039 0,2.8321 1.54297,4.4141 1.28906,1.3086 3.02734,1.3086 2.03125,0 3.4961,-1.4844 1.66015,-1.6406 1.75781,-4.4336 0.27344,-7.5586 -4.08203,-7.5781 z"
         style="fill:#000000;stroke:none;stroke-opacity:1;paint-order:markers stroke fill;stroke-linecap:round;stroke-linejoin:round;stroke-width:3.00000004;stroke-dasharray:none;fill-opacity:1"
         id="path3423" />
      <path
         d="m 198.28711,1033.2783 q -4.72656,0 -5.29297,6.5625 l -0.0586,1.211 q 3.32031,-0.2344 4.29687,-0.2344 3.10547,0 3.10547,1.9531 0,1.4258 -1.52344,1.6992 -0.66406,0.1172 -1.5625,0.098 -0.8789,-0.039 -4.49218,0.2539 l -0.15625,4.4531 q 0,1.211 0.0781,3.6328 0.0781,2.4219 0.0781,3.6133 0,3.711 -0.42969,5.7813 -0.33203,1.5625 -1.81641,1.5625 -0.80078,0 -1.36719,-0.5274 -0.5664,-0.5078 -0.5664,-1.289 0,-0.1563 0.0391,-0.3907 0.41016,-2.539 0.41016,-5.5273 l -0.0586,-5.332 v -5.6641 q -2.4414,0.1953 -3.08593,0.1953 -1.97266,0 -1.97266,-1.8945 0,-1.9336 3.41797,-2.0313 l 1.875,-0.059 q 0.0586,-1.0937 0.29297,-2.9687 0.50781,-4.336 2.1875,-6.3867 2.03125,-2.4805 6.34765,-2.4805 2.79297,0 2.79297,1.8945 0,1.875 -2.53906,1.875 z"
         style="fill:#000000;stroke:none;stroke-opacity:1;paint-order:markers stroke fill;stroke-linecap:round;stroke-linejoin:round;stroke-width:3.00000004;stroke-dasharray:none;fill-opacity:1"
         id="path3425" />
      <path
         d="m 218.61914,1033.2783 q -4.72656,0 -5.29297,6.5625 l -0.0586,1.211 q 3.32031,-0.2344 4.29687,-0.2344 3.10547,0 3.10547,1.9531 0,1.4258 -1.52344,1.6992 -0.66406,0.1172 -1.5625,0.098 -0.8789,-0.039 -4.49218,0.2539 l -0.15625,4.4531 q 0,1.211 0.0781,3.6328 0.0781,2.4219 0.0781,3.6133 0,3.711 -0.42969,5.7813 -0.33203,1.5625 -1.81641,1.5625 -0.80078,0 -1.36718,-0.5274 -0.56641,-0.5078 -0.56641,-1.289 0,-0.1563 0.0391,-0.3907 0.41016,-2.539 0.41016,-5.5273 l -0.0586,-5.332 v -5.6641 q -2.4414,0.1953 -3.08593,0.1953 -1.97266,0 -1.97266,-1.8945 0,-1.9336 3.41797,-2.0313 l 1.875,-0.059 q 0.0586,-1.0937 0.29297,-2.9687 0.50781,-4.336 2.1875,-6.3867 2.03125,-2.4805 6.34765,-2.4805 2.79297,0 2.79297,1.8945 0,1.875 -2.53906,1.875 z"
         style="fill:#000000;stroke:none;stroke-opacity:1;paint-order:markers stroke fill;stroke-linecap:round;stroke-linejoin:round;stroke-width:3.00000004;stroke-dasharray:none;fill-opacity:1"
         id="path3427" />
      <path
         d="m 229.55664,1036.0127 q -0.9375,0 -1.62109,-0.6641 -0.6836,-0.664 -0.6836,-1.6015 0,-0.9375 0.6836,-1.6016 0.68359,-0.664 1.62109,-0.664 0.9375,0 1.60156,0.664 0.6836,0.6641 0.6836,1.6016 0,0.9375 -0.6836,1.6015 -0.66406,0.6641 -1.60156,0.6641 z m 0.87891,15.8594 q 0,1.1719 0.0586,3.5156 0.0781,2.3242 0.0781,3.4961 0,0.8594 -0.52735,1.4062 -0.52734,0.5469 -1.38672,0.5469 -0.83984,0 -1.38672,-0.5469 -0.52734,-0.5468 -0.52734,-1.4062 0,-1.1719 -0.0781,-3.4961 -0.0586,-2.3437 -0.0586,-3.5156 0,-1.836 0.19531,-4.5703 0.19532,-2.7539 0.19532,-4.5899 0,-0.8789 0.52734,-1.4258 0.54688,-0.5468 1.38672,-0.5468 0.83984,0 1.36719,0.5468 0.54687,0.5469 0.54687,1.4258 0,1.836 -0.19531,4.5899 -0.19531,2.7343 -0.19531,4.5703 z"
         style="fill:#000000;stroke:none;stroke-opacity:1;paint-order:markers stroke fill;stroke-linecap:round;stroke-linejoin:round;stroke-width:3.00000004;stroke-dasharray:none;fill-opacity:1"
         id="path3429" />
      <path
         d="m 245.86523,1061.9697 q -4.0039,0 -6.67968,-2.4218 -2.8125,-2.5391 -2.8125,-6.6993 0,-3.9648 2.63672,-8.1836 2.92968,-4.6875 6.60156,-4.6875 1.91406,0 4.27734,0.8985 2.98828,1.1523 2.98828,2.8125 0,0.7422 -0.48828,1.3281 -0.48828,0.5664 -1.21094,0.5664 -0.5664,0 -0.99609,-0.332 -0.41016,-0.3516 -0.80078,-0.6836 -1.15234,-0.918 -3.76953,-0.918 -1.99219,0 -3.94531,3.5547 -1.77735,3.2617 -1.77735,5.6445 0,2.5782 1.75781,4.0625 1.64063,1.3868 4.21875,1.3868 1.17188,0 2.5,-0.625 l 2.26563,-1.211 q 0.58594,-0.3125 0.83984,-0.3125 0.72266,0 1.25,0.586 0.52735,0.5664 0.52735,1.3086 0,1.4257 -3.00782,2.7539 -2.63671,1.1718 -4.375,1.1718 z"
         style="fill:#000000;stroke:none;stroke-opacity:1;paint-order:markers stroke fill;stroke-linecap:round;stroke-linejoin:round;stroke-width:3.00000004;stroke-dasharray:none;fill-opacity:1"
         id="path3431" />
      <path
         d="m 261.31445,1036.0127 q -0.9375,0 -1.62109,-0.6641 -0.68359,-0.664 -0.68359,-1.6015 0,-0.9375 0.68359,-1.6016 0.68359,-0.664 1.62109,-0.664 0.9375,0 1.60157,0.664 0.68359,0.6641 0.68359,1.6016 0,0.9375 -0.68359,1.6015 -0.66407,0.6641 -1.60157,0.6641 z m 0.87891,15.8594 q 0,1.1719 0.0586,3.5156 0.0781,2.3242 0.0781,3.4961 0,0.8594 -0.52735,1.4062 -0.52734,0.5469 -1.38671,0.5469 -0.83985,0 -1.38672,-0.5469 -0.52735,-0.5468 -0.52735,-1.4062 0,-1.1719 -0.0781,-3.4961 -0.0586,-2.3437 -0.0586,-3.5156 0,-1.836 0.19532,-4.5703 0.19531,-2.7539 0.19531,-4.5899 0,-0.8789 0.52734,-1.4258 0.54688,-0.5468 1.38672,-0.5468 0.83985,0 1.36719,0.5468 0.54687,0.5469 0.54687,1.4258 0,1.836 -0.19531,4.5899 -0.19531,2.7343 -0.19531,4.5703 z"
         style="fill:#000000;stroke:none;stroke-opacity:1;paint-order:markers stroke fill;stroke-linecap:round;stroke-linejoin:round;stroke-width:3.00000004;stroke-dasharray:none;fill-opacity:1"
         id="path3433" />
      <path
         d="m 284.04883,1062.0283 q -0.3711,0 -1.34766,-0.8593 -0.8789,-0.8008 -1.30859,-1.4258 -1.875,1.0156 -3.30078,1.5234 -1.42578,0.5274 -2.38282,0.5274 -4.57031,0 -6.66015,-2.5782 -1.97266,-2.4218 -1.97266,-7.4218 0,-4.7266 3.24219,-8.086 3.26172,-3.3594 7.77344,-3.3594 1.69922,0 3.80859,0.8789 2.65625,1.0938 2.65625,2.6368 0,0.5273 -0.39062,0.9375 -0.19532,0.7422 -0.3125,2.4414 -0.0977,1.6992 -0.11719,4.3554 -0.0195,2.4219 0.33203,3.8282 0.19531,0.8593 1.23047,3.4375 0.13672,0.3515 0.44922,1.0351 l 0.11718,0.3321 q 0,0.7812 -0.54687,1.289 -0.54688,0.5078 -1.26953,0.5078 z m -4.0625,-13.5742 q 0,-0.8398 0.0976,-1.8164 0.11719,-0.9961 0.33204,-2.1094 -0.72266,-0.3711 -1.25,-0.5468 -0.50782,-0.1758 -0.82032,-0.1758 -3.02734,0 -5.23437,2.4804 -2.1875,2.461 -2.1875,5.6836 0,3.2032 1.13281,4.8047 1.13281,1.6016 3.39844,1.6016 1.875,0 3.18359,-0.6836 0.70313,-0.3711 1.97266,-1.4844 -0.625,-5.1758 -0.625,-7.7539 z"
         style="fill:#000000;stroke:none;stroke-opacity:1;paint-order:markers stroke fill;stroke-linecap:round;stroke-linejoin:round;stroke-width:3.00000004;stroke-dasharray:none;fill-opacity:1"
         id="path3435" />
      <path
         d="m 294.22461,1045.3877 -0.29297,9.707 q 0,1.543 -0.15625,4.5313 -0.19531,1.9531 -1.91406,1.9531 -1.91406,0 -1.91406,-1.9922 0,-2.3633 0.21484,-7.0898 0.21484,-4.7461 0.21484,-7.1094 0,-3.0859 0.0977,-7.0508 0.0977,-3.9844 0.0977,-7.0703 0,-1.9531 1.91406,-1.9531 1.93359,0 1.93359,1.9531 0,3.0859 -0.0976,7.0703 -0.0977,3.9649 -0.0977,7.0508 z"
         style="fill:#000000;stroke:none;stroke-opacity:1;paint-order:markers stroke fill;stroke-linecap:round;stroke-linejoin:round;stroke-width:3.00000004;stroke-dasharray:none;fill-opacity:1"
         id="path3437" />
      <path
         d="m 302.7207,1062.5557 q -1.01562,0 -1.71875,-0.7032 -0.70312,-0.7031 -0.70312,-1.7187 0,-0.9961 0.70312,-1.6992 0.70313,-0.7227 1.71875,-0.7227 0.9961,0 1.69922,0.7227 0.72266,0.7031 0.72266,1.6992 0,1.0156 -0.72266,1.7187 -0.70312,0.7032 -1.69922,0.7032 z"
         style="fill:#000000;stroke:none;stroke-opacity:1;paint-order:markers stroke fill;stroke-linecap:round;stroke-linejoin:round;stroke-width:3.00000004;stroke-dasharray:none;fill-opacity:1"
         id="path3439" />
      <path
         d="m 326.25586,1052.3213 -0.44922,6.5625 q -0.11719,3.9062 -0.80078,6.3867 -0.87891,3.1641 -2.8125,4.668 -2.34375,1.8164 -6.77734,1.8164 -2.59766,0 -4.35547,-0.3516 -2.46094,-0.4883 -2.46094,-2.0312 0,-1.7383 1.69922,-1.7383 0.70312,0 2.34375,0.332 1.64062,0.3516 3.63281,0.3125 3.75,-0.059 5.17578,-3.6328 0.9375,-2.3828 0.9961,-7.3242 -1.05469,1.9531 -2.51954,2.9297 -1.44531,0.9765 -3.32031,0.9765 -3.53515,0 -5.76172,-2.4023 -2.20703,-2.4219 -2.20703,-6.2695 0,-5.2735 3.02735,-8.4961 3.125,-3.3203 8.51562,-3.3203 1.81641,0 3.04688,0.4687 1.23046,0.4688 1.875,1.4063 2.08984,0.059 2.08984,2.3242 0,1.3867 -0.41016,3.7109 -0.44922,2.6953 -0.52734,3.6719 z m -6.26953,-8.457 q -3.71094,0 -5.74219,2.5586 -1.81641,2.3046 -1.81641,5.8593 0,2.8321 1.07422,4.2578 1.07422,1.4258 3.22266,1.4258 1.97266,0 3.82812,-2.2265 1.67969,-2.0508 1.91407,-4.0625 0.41015,-2.1094 0.8789,-6.6211 -0.78125,-0.6055 -1.62109,-0.8985 -0.83984,-0.2929 -1.73828,-0.2929 z"
         style="fill:#000000;stroke:none;stroke-opacity:1;paint-order:markers stroke fill;stroke-linecap:round;stroke-linejoin:round;stroke-width:3.00000004;stroke-dasharray:none;fill-opacity:1"
         id="path3441" />
      <path
         d="m 335.14258,1036.0127 q -0.9375,0 -1.6211,-0.6641 -0.68359,-0.664 -0.68359,-1.6015 0,-0.9375 0.68359,-1.6016 0.6836,-0.664 1.6211,-0.664 0.9375,0 1.60156,0.664 0.68359,0.6641 0.68359,1.6016 0,0.9375 -0.68359,1.6015 -0.66406,0.6641 -1.60156,0.6641 z m 0.8789,15.8594 q 0,1.1719 0.0586,3.5156 0.0781,2.3242 0.0781,3.4961 0,0.8594 -0.52734,1.4062 -0.52734,0.5469 -1.38672,0.5469 -0.83984,0 -1.38672,-0.5469 -0.52734,-0.5468 -0.52734,-1.4062 0,-1.1719 -0.0781,-3.4961 -0.0586,-2.3437 -0.0586,-3.5156 0,-1.836 0.19531,-4.5703 0.19531,-2.7539 0.19531,-4.5899 0,-0.8789 0.52735,-1.4258 0.54687,-0.5468 1.38672,-0.5468 0.83984,0 1.36718,0.5468 0.54688,0.5469 0.54688,1.4258 0,1.836 -0.19531,4.5899 -0.19532,2.7343 -0.19532,4.5703 z"
         style="fill:#000000;stroke:none;stroke-opacity:1;paint-order:markers stroke fill;stroke-linecap:round;stroke-linejoin:round;stroke-width:3.00000004;stroke-dasharray:none;fill-opacity:1"
         id="path3443" />
      <path
         d="m 355.68945,1044.0986 q -0.41015,0 -0.97656,-0.039 -0.54687,-0.039 -0.95703,-0.039 -0.44922,0 -2.65625,0.293 l 0.37109,11.543 0.0195,0.8593 0.0195,0.9961 q 0.0781,4.2774 -2.05079,4.2774 -0.78125,0 -1.36718,-0.5078 -0.56641,-0.5079 -0.56641,-1.2696 0,-0.7422 0.0586,-2.2265 0.0586,-1.4844 0.0586,-2.2266 l -0.39063,-11.4063 q -1.42578,-0.058 -4.33593,-0.332 -1.73829,-0.2344 -1.73829,-1.9336 0,-0.8594 0.52735,-1.4258 0.52734,-0.5664 1.34765,-0.5664 l 4.10157,0.3321 q 0,-0.9961 -0.0977,-2.6563 -0.0781,-1.6797 -0.0781,-2.4219 0,-0.8203 0.5664,-1.3476 0.56641,-0.5469 1.38672,-0.5469 1.75781,0 2.05078,2.8711 0.0586,0.7227 0.0586,1.7383 l -0.0391,1.1328 -0.0195,1.2109 q 2.42188,-0.3125 2.77344,-0.3125 2.03125,0 2.65625,0.1953 1.19141,0.3907 1.19141,1.836 0,0.8594 -0.54688,1.4258 -0.52734,0.5468 -1.36719,0.5468 z"
         style="fill:#000000;stroke:none;stroke-opacity:1;paint-order:markers stroke fill;stroke-linecap:round;stroke-linejoin:round;stroke-width:3.00000004;stroke-dasharray:none;fill-opacity:1"
         id="path3445" />
      <path
         d="m 377.81836,1061.9502 q -1.38672,0 -1.81641,-1.4844 -0.44922,-1.6015 -0.82031,-4.5508 -0.35156,-2.832 -0.35156,-4.6484 0,-0.5078 0.0391,-1.543 0.0586,-1.0351 0.0586,-1.5429 0,-3.6719 -1.83593,-3.6719 -2.48047,0 -4.4336,2.2461 -0.99609,1.1523 -2.73437,4.3945 0,7.4414 -0.625,8.8086 -0.54688,1.211 -1.69922,1.211 -0.80078,0 -1.40625,-0.5469 -0.60547,-0.5469 -0.60547,-1.3281 0,-0.2735 0.17578,-0.8594 0.15625,-0.4883 0.21485,-2.8516 l 0.0586,-2.8906 0.0586,-14.3555 q 0.13672,-2.4219 0.13672,-3.2617 0,-0.9961 -0.19531,-1.875 -0.17578,-0.8984 -0.17578,-1.8555 0,-0.8203 0.5664,-1.3476 0.56641,-0.5469 1.38672,-0.5469 1.60157,0 1.875,1.7188 0.3125,1.8945 0.3125,3.4179 0,2.0508 -0.13672,4.2774 -0.11718,2.1289 -0.0976,4.2773 l 0.0195,1.7188 q 1.60156,-2.1485 3.41797,-3.2032 1.83594,-1.0742 3.88672,-1.0742 3.24218,0 4.45312,2.1094 0.85938,1.4844 0.97656,5 l 0.15625,3.7305 0.39063,4.0625 q 0.27344,2.2851 0.66406,4.0234 0.0781,0.332 0.0781,0.5664 0,0.8008 -0.58594,1.3281 -0.58594,0.5469 -1.40625,0.5469 z"
         style="fill:#000000;stroke:none;stroke-opacity:1;paint-order:markers stroke fill;stroke-linecap:round;stroke-linejoin:round;stroke-width:3.00000004;stroke-dasharray:none;fill-opacity:1"
         id="path3447" />
      <path
         d="m 400.51367,1049.333 q 0,1.4063 0.0195,4.2188 0.0195,2.8125 0.0195,4.2187 0,0.4297 0.0586,1.3086 0.0781,0.8789 0.0781,1.3086 0,0.8398 -0.5664,1.3672 -0.56641,0.5469 -1.38672,0.5469 -1.50391,0 -1.91406,-1.8555 -2.44141,1.2695 -5.625,1.2695 -2.5586,0 -4.23829,-1.1328 -1.85546,-1.25 -2.20703,-3.6523 -0.76172,-5.1758 -0.76172,-9.2188 0,-2.6758 0.58594,-6.0937 0.27344,-1.6992 1.85547,-1.6992 0.83984,0 1.40625,0.5468 0.56641,0.5274 0.56641,1.3672 0,0.8985 -0.29297,2.8711 -0.27344,1.9727 -0.27344,3.0078 0,3.2617 0.21484,5.586 0.21485,2.3242 0.64454,3.7304 0.64453,0.3516 1.26953,0.5469 0.625,0.1758 1.23047,0.1758 2.61718,0 5.52734,-0.8399 l -0.0195,-3.9648 -0.0391,-3.7891 q 0,-4.2187 0.37109,-7.3242 0.21484,-1.7969 1.89453,-1.7969 0.83984,0 1.40625,0.5469 0.56641,0.5469 0.52734,1.3672 z"
         style="fill:#000000;stroke:none;stroke-opacity:1;paint-order:markers stroke fill;stroke-linecap:round;stroke-linejoin:round;stroke-width:3.00000004;stroke-dasharray:none;fill-opacity:1"
         id="path3449" />
      <path
         d="m 414.49805,1061.5596 q -2.98828,0 -5.42969,-1.1719 -0.625,0.9375 -1.52344,0.9375 -0.74219,0 -1.26953,-0.5273 -0.50781,-0.5079 -0.50781,-1.2891 0,-0.5078 0.0391,-1.5039 0.0586,-0.9961 0.0586,-1.5039 0,-2.0703 -0.11718,-6.1914 -0.0977,-4.1406 -0.0977,-6.211 0,-1.4257 0.0195,-5.3906 0.0195,-3.9844 0.0195,-5.4297 0,-1.1718 0.48828,-2.1093 0.64454,-1.1915 1.77735,-1.1915 1.46484,0 1.46484,1.6993 0,0.2734 -0.0976,0.8007 -0.0977,0.5274 -0.0977,0.8008 l -0.0586,4.2774 -0.0391,4.9804 q 1.69922,-1.1523 3.22266,-1.7187 1.54297,-0.5859 2.89062,-0.5859 4.19922,0 6.81641,3.2226 2.46094,3.0274 2.46094,7.4414 0,4.4531 -2.8711,7.5586 -2.87109,3.1055 -7.14843,3.1055 z m 0.74218,-17.6367 q -1.60156,0 -3.28125,0.8984 -0.82031,0.4492 -2.8125,1.9336 l -0.0391,3.3789 0.0195,3.0469 0.0195,3.2031 q 0.9375,0.4297 2.63672,1.0937 1.21094,0.3711 2.71485,0.3711 2.83203,0 4.64843,-1.9921 1.81641,-1.9922 1.81641,-4.961 0,-2.9101 -1.46484,-4.8633 -1.58203,-2.1093 -4.25782,-2.1093 z"
         style="fill:#000000;stroke:none;stroke-opacity:1;paint-order:markers stroke fill;stroke-linecap:round;stroke-linejoin:round;stroke-width:3.00000004;stroke-dasharray:none;fill-opacity:1"
         id="path3451" />
      <path
         d="m 431.60742,1062.5557 q -1.01562,0 -1.71875,-0.7032 -0.70312,-0.7031 -0.70312,-1.7187 0,-0.9961 0.70312,-1.6992 0.70313,-0.7227 1.71875,-0.7227 0.9961,0 1.69922,0.7227 0.72266,0.7031 0.72266,1.6992 0,1.0156 -0.72266,1.7187 -0.70312,0.7032 -1.69922,0.7032 z"
         style="fill:#000000;stroke:none;stroke-opacity:1;paint-order:markers stroke fill;stroke-linecap:round;stroke-linejoin:round;stroke-width:3.00000004;stroke-dasharray:none;fill-opacity:1"
         id="path3453" />
      <path
         d="m 442.79883,1036.0127 q -0.9375,0 -1.6211,-0.6641 -0.68359,-0.664 -0.68359,-1.6015 0,-0.9375 0.68359,-1.6016 0.6836,-0.664 1.6211,-0.664 0.9375,0 1.60156,0.664 0.68359,0.6641 0.68359,1.6016 0,0.9375 -0.68359,1.6015 -0.66406,0.6641 -1.60156,0.6641 z m 0.8789,15.8594 q 0,1.1719 0.0586,3.5156 0.0781,2.3242 0.0781,3.4961 0,0.8594 -0.52734,1.4062 -0.52734,0.5469 -1.38672,0.5469 -0.83984,0 -1.38672,-0.5469 -0.52734,-0.5468 -0.52734,-1.4062 0,-1.1719 -0.0781,-3.4961 -0.0586,-2.3437 -0.0586,-3.5156 0,-1.836 0.19531,-4.5703 0.19531,-2.7539 0.19531,-4.5899 0,-0.8789 0.52735,-1.4258 0.54687,-0.5468 1.38672,-0.5468 0.83984,0 1.36718,0.5468 0.54688,0.5469 0.54688,1.4258 0,1.836 -0.19531,4.5899 -0.19532,2.7343 -0.19532,4.5703 z"
         style="fill:#000000;stroke:none;stroke-opacity:1;paint-order:markers stroke fill;stroke-linecap:round;stroke-linejoin:round;stroke-width:3.00000004;stroke-dasharray:none;fill-opacity:1"
         id="path3455" />
      <path
         d="m 457.60352,1061.8916 q -3.28125,0 -5.64454,-2.4219 -2.63671,-2.6953 -2.77343,-7.2461 -0.11719,-4.414 2.22656,-7.7734 2.73437,-3.9648 7.61719,-3.9648 3.90625,0 5.91797,3.5742 1.60156,2.8906 1.54296,6.9531 -0.0586,4.3359 -2.26562,7.4023 -2.5,3.4766 -6.62109,3.4766 z m 1.17187,-17.4414 q -2.87109,-0.02 -4.47266,2.7344 -1.26953,2.207 -1.26953,5.039 0,2.8321 1.54297,4.4141 1.28906,1.3086 3.02735,1.3086 2.03125,0 3.49609,-1.4844 1.66016,-1.6406 1.75781,-4.4336 0.27344,-7.5586 -4.08203,-7.5781 z"
         style="fill:#000000;stroke:none;stroke-opacity:1;paint-order:markers stroke fill;stroke-linecap:round;stroke-linejoin:round;stroke-width:3.00000004;stroke-dasharray:none;fill-opacity:1"
         id="path3457" />
      <path
         d="m 472.05664,1062.4971 q -0.72266,0 -1.26953,-0.4883 -0.54688,-0.4883 -0.54688,-1.2109 0,-0.3125 0.13672,-0.6641 1.52344,-4.1992 5.74219,-12.0898 4.21875,-7.9102 5.76172,-12.129 2.55859,-6.9921 3.86719,-6.9335 0.72265,0.019 1.26953,0.5273 0.54687,0.4883 0.54687,1.1914 0,0.4492 -0.21484,1.0742 l -2.1875,5.3125 q -1.30859,3.6133 -3.73047,8.3399 l -4.25781,8.0859 -3.53516,7.832 q -0.52734,1.1524 -1.58203,1.1524 z"
         style="fill:#000000;stroke:none;stroke-opacity:1;paint-order:markers stroke fill;stroke-linecap:round;stroke-linejoin:round;stroke-width:3.00000004;stroke-dasharray:none;fill-opacity:1"
         id="path3459" />
      <path
         d="m 500.9043,1061.5596 q -2.98828,0 -5.42969,-1.1719 -0.625,0.9375 -1.52344,0.9375 -0.74219,0 -1.26953,-0.5273 -0.50781,-0.5079 -0.50781,-1.2891 0,-0.5078 0.0391,-1.5039 0.0586,-0.9961 0.0586,-1.5039 0,-2.0703 -0.11718,-6.1914 -0.0977,-4.1406 -0.0977,-6.211 0,-1.4257 0.0195,-5.3906 0.0195,-3.9844 0.0195,-5.4297 0,-1.1718 0.48828,-2.1093 0.64454,-1.1915 1.77735,-1.1915 1.46484,0 1.46484,1.6993 0,0.2734 -0.0976,0.8007 -0.0977,0.5274 -0.0977,0.8008 l -0.0586,4.2774 -0.0391,4.9804 q 1.69922,-1.1523 3.22266,-1.7187 1.54297,-0.5859 2.89062,-0.5859 4.19922,0 6.81641,3.2226 2.46094,3.0274 2.46094,7.4414 0,4.4531 -2.8711,7.5586 -2.87109,3.1055 -7.14843,3.1055 z m 0.74218,-17.6367 q -1.60156,0 -3.28125,0.8984 -0.82031,0.4492 -2.8125,1.9336 l -0.0391,3.3789 0.0195,3.0469 0.0195,3.2031 q 0.9375,0.4297 2.63672,1.0937 1.21094,0.3711 2.71485,0.3711 2.83203,0 4.64843,-1.9921 1.81641,-1.9922 1.81641,-4.961 0,-2.9101 -1.46484,-4.8633 -1.58203,-2.1093 -4.25782,-2.1093 z"
         style="fill:#000000;stroke:none;stroke-opacity:1;paint-order:markers stroke fill;stroke-linecap:round;stroke-linejoin:round;stroke-width:3.00000004;stroke-dasharray:none;fill-opacity:1"
         id="path3461" />
      <path
         d="m 530.76758,1062.0283 q -0.3711,0 -1.34766,-0.8593 -0.8789,-0.8008 -1.30859,-1.4258 -1.875,1.0156 -3.30078,1.5234 -1.42578,0.5274 -2.38282,0.5274 -4.57031,0 -6.66015,-2.5782 -1.97266,-2.4218 -1.97266,-7.4218 0,-4.7266 3.24219,-8.086 3.26172,-3.3594 7.77344,-3.3594 1.69922,0 3.80859,0.8789 2.65625,1.0938 2.65625,2.6368 0,0.5273 -0.39062,0.9375 -0.19532,0.7422 -0.3125,2.4414 -0.0977,1.6992 -0.11719,4.3554 -0.0195,2.4219 0.33203,3.8282 0.19531,0.8593 1.23047,3.4375 0.13672,0.3515 0.44922,1.0351 l 0.11718,0.3321 q 0,0.7812 -0.54687,1.289 -0.54688,0.5078 -1.26953,0.5078 z m -4.0625,-13.5742 q 0,-0.8398 0.0977,-1.8164 0.11719,-0.9961 0.33204,-2.1094 -0.72266,-0.3711 -1.25,-0.5468 -0.50782,-0.1758 -0.82032,-0.1758 -3.02734,0 -5.23437,2.4804 -2.1875,2.461 -2.1875,5.6836 0,3.2032 1.13281,4.8047 1.13281,1.6016 3.39844,1.6016 1.875,0 3.18359,-0.6836 0.70313,-0.3711 1.97266,-1.4844 -0.625,-5.1758 -0.625,-7.7539 z"
         style="fill:#000000;stroke:none;stroke-opacity:1;paint-order:markers stroke fill;stroke-linecap:round;stroke-linejoin:round;stroke-width:3.00000004;stroke-dasharray:none;fill-opacity:1"
         id="path3463" />
      <path
         d="m 545.10352,1061.5596 q -2.98829,0 -5.42969,-1.1719 -0.625,0.9375 -1.52344,0.9375 -0.74219,0 -1.26953,-0.5273 -0.50781,-0.5079 -0.50781,-1.2891 0,-0.5078 0.0391,-1.5039 0.0586,-0.9961 0.0586,-1.5039 0,-2.0703 -0.11718,-6.1914 -0.0977,-4.1406 -0.0977,-6.211 0,-1.4257 0.0195,-5.3906 0.0195,-3.9844 0.0195,-5.4297 0,-1.1718 0.48828,-2.1093 0.64453,-1.1915 1.77735,-1.1915 1.46484,0 1.46484,1.6993 0,0.2734 -0.0977,0.8007 -0.0977,0.5274 -0.0977,0.8008 l -0.0586,4.2774 -0.0391,4.9804 q 1.69922,-1.1523 3.22266,-1.7187 1.54297,-0.5859 2.89062,-0.5859 4.19922,0 6.81641,3.2226 2.46094,3.0274 2.46094,7.4414 0,4.4531 -2.8711,7.5586 -2.87109,3.1055 -7.14843,3.1055 z m 0.74218,-17.6367 q -1.60156,0 -3.28125,0.8984 -0.82031,0.4492 -2.8125,1.9336 l -0.0391,3.3789 0.0195,3.0469 0.0195,3.2031 q 0.9375,0.4297 2.63672,1.0937 1.21094,0.3711 2.71485,0.3711 2.83203,0 4.64843,-1.9921 1.81641,-1.9922 1.81641,-4.961 0,-2.9101 -1.46484,-4.8633 -1.58204,-2.1093 -4.25782,-2.1093 z"
         style="fill:#000000;stroke:none;stroke-opacity:1;paint-order:markers stroke fill;stroke-linecap:round;stroke-linejoin:round;stroke-width:3.00000004;stroke-dasharray:none;fill-opacity:1"
         id="path3465" />
      <path
         d="m 576.74414,1043.3174 -6.75781,14.6094 q -2.5,5.332 -3.82813,8.9257 l -1.28906,3.7891 q -0.50781,1.4063 -1.75781,1.4063 -0.82031,0 -1.42578,-0.5469 -0.58594,-0.5274 -0.58594,-1.3281 0,-1.9532 4.21875,-11.3086 l -6.99219,-13.4571 -0.8789,-1.4257 q -0.52735,-0.8985 -0.52735,-1.504 0,-0.8007 0.60547,-1.4062 0.625,-0.6055 1.38672,-0.6055 0.89844,0 1.38672,0.6836 3.32031,4.6094 7.1289,13.125 l 2.89063,-6.7383 q 1.5625,-3.4961 3.00781,-6.0156 0.625,-1.0937 1.64063,-1.0937 0.80078,0 1.40625,0.5664 0.625,0.5664 0.625,1.3476 0,0.4297 -0.25391,0.9766 z"
         style="fill:#000000;stroke:none;stroke-opacity:1;paint-order:markers stroke fill;stroke-linecap:round;stroke-linejoin:round;stroke-width:3.00000004;stroke-dasharray:none;fill-opacity:1"
         id="path3467" />
      <path
         d="m 593.7168,1045.7002 q -1.07422,0 -1.50391,-0.7227 -0.29297,-0.5078 -0.50781,-2.1093 -1.46485,0.3711 -4.51172,1.3672 -3.14453,1.25 -3.16406,3.0859 0.58593,0.2148 1.15234,0.3125 4.49219,0.8008 6.67969,2.207 3.18359,2.0508 3.18359,5.9375 0,3.1836 -2.7539,4.8047 -2.28516,1.3281 -5.78125,1.3281 -2.5586,0 -4.88282,-0.8593 -3.00781,-1.0938 -3.00781,-3.0469 0,-0.7813 0.60547,-1.3672 0.625,-0.5859 1.40625,-0.5859 0.60547,0 1.5625,0.9375 0.46875,0.4492 2.10937,0.7422 1.3086,0.2343 2.20704,0.2343 1.64062,0 2.89062,-0.3906 1.81641,-0.5664 1.81641,-1.7969 0,-2.6562 -3.71094,-3.5937 l -2.03125,-0.4492 q -2.59766,-0.5664 -3.69141,-1.3282 -1.58203,-1.0937 -1.58203,-3.3007 0,-4.0821 3.84766,-5.8204 1.17187,-0.5273 3.75,-1.25 2.57812,-0.7421 3.6914,-1.25 0.80079,-0.3515 1.73829,-0.3515 0.83984,0 1.36718,0.5469 0.54688,0.5468 0.54688,1.4257 0,0.5664 0.23437,1.6602 0.25391,1.0937 0.25391,1.6601 0,0.879 -0.54688,1.4258 -0.52734,0.5469 -1.36718,0.5469 z"
         style="fill:#000000;stroke:none;stroke-opacity:1;paint-order:markers stroke fill;stroke-linecap:round;stroke-linejoin:round;stroke-width:3.00000004;stroke-dasharray:none;fill-opacity:1"
         id="path3469" />
      <path
         d="m 616.35352,1061.9502 q -1.38672,0 -1.81641,-1.4844 -0.44922,-1.6015 -0.82031,-4.5508 -0.35157,-2.832 -0.35157,-4.6484 0,-0.5078 0.0391,-1.543 0.0586,-1.0351 0.0586,-1.5429 0,-3.6719 -1.83594,-3.6719 -2.48047,0 -4.43359,2.2461 -0.99609,1.1523 -2.73438,4.3945 0,7.4414 -0.625,8.8086 -0.54687,1.211 -1.69921,1.211 -0.80079,0 -1.40625,-0.5469 -0.60547,-0.5469 -0.60547,-1.3281 0,-0.2735 0.17578,-0.8594 0.15625,-0.4883 0.21484,-2.8516 l 0.0586,-2.8906 0.0586,-14.3555 q 0.13672,-2.4219 0.13672,-3.2617 0,-0.9961 -0.19531,-1.875 -0.17579,-0.8984 -0.17579,-1.8555 0,-0.8203 0.56641,-1.3476 0.56641,-0.5469 1.38672,-0.5469 1.60156,0 1.875,1.7188 0.3125,1.8945 0.3125,3.4179 0,2.0508 -0.13672,4.2774 -0.11719,2.1289 -0.0977,4.2773 l 0.0195,1.7188 q 1.60156,-2.1485 3.41796,-3.2032 1.83594,-1.0742 3.88672,-1.0742 3.24219,0 4.45313,2.1094 0.85937,1.4844 0.97656,5 l 0.15625,3.7305 0.39063,4.0625 q 0.27343,2.2851 0.66406,4.0234 0.0781,0.332 0.0781,0.5664 0,0.8008 -0.58593,1.3281 -0.58594,0.5469 -1.40625,0.5469 z"
         style="fill:#000000;stroke:none;stroke-opacity:1;paint-order:markers stroke fill;stroke-linecap:round;stroke-linejoin:round;stroke-width:3.00000004;stroke-dasharray:none;fill-opacity:1"
         id="path3471" />
      <path
         d="m 638.36523,1062.0283 q -0.37109,0 -1.34765,-0.8593 -0.87891,-0.8008 -1.3086,-1.4258 -1.875,1.0156 -3.30078,1.5234 -1.42578,0.5274 -2.38281,0.5274 -4.57031,0 -6.66016,-2.5782 -1.97265,-2.4218 -1.97265,-7.4218 0,-4.7266 3.24219,-8.086 3.26171,-3.3594 7.77343,-3.3594 1.69922,0 3.8086,0.8789 2.65625,1.0938 2.65625,2.6368 0,0.5273 -0.39063,0.9375 -0.19531,0.7422 -0.3125,2.4414 -0.0977,1.6992 -0.11719,4.3554 -0.0195,2.4219 0.33204,3.8282 0.19531,0.8593 1.23046,3.4375 0.13672,0.3515 0.44922,1.0351 l 0.11719,0.3321 q 0,0.7812 -0.54687,1.289 -0.54688,0.5078 -1.26954,0.5078 z m -4.0625,-13.5742 q 0,-0.8398 0.0977,-1.8164 0.11719,-0.9961 0.33203,-2.1094 -0.72265,-0.3711 -1.25,-0.5468 -0.50781,-0.1758 -0.82031,-0.1758 -3.02734,0 -5.23438,2.4804 -2.1875,2.461 -2.1875,5.6836 0,3.2032 1.13282,4.8047 1.13281,1.6016 3.39843,1.6016 1.875,0 3.1836,-0.6836 0.70312,-0.3711 1.97265,-1.4844 -0.625,-5.1758 -0.625,-7.7539 z"
         style="fill:#000000;stroke:none;stroke-opacity:1;paint-order:markers stroke fill;stroke-linecap:round;stroke-linejoin:round;stroke-width:3.00000004;stroke-dasharray:none;fill-opacity:1"
         id="path3473" />
      <path
         d="m 658.77539,1046.3057 q -0.13672,2.4414 -1.95312,2.4414 -1.67969,0 -1.67969,-1.9336 0,-0.3711 -0.0586,-1.3672 l -0.0586,-1.6406 q -3.08594,0.3711 -4.94141,1.7383 -1.73828,1.2695 -2.89062,3.8281 l 0.0391,10.7031 q 0,1.9727 -1.93359,1.9727 -1.71875,0 -1.71875,-1.9727 v -13.7109 q 0,-0.6446 0.0391,-1.9336 0.0586,-1.2891 0.0586,-1.9336 0,-1.9727 1.71875,-1.9727 1.91407,0 1.9336,3.2422 3.75,-3.6133 8.32031,-3.6133 1.58203,0 2.36328,1.1914 0.78125,1.1914 0.78125,3.5938 0,1.0156 -0.0195,1.3672 z"
         style="fill:#000000;stroke:none;stroke-opacity:1;paint-order:markers stroke fill;stroke-linecap:round;stroke-linejoin:round;stroke-width:3.00000004;stroke-dasharray:none;fill-opacity:1"
         id="path3475" />
      <path
         d="m 679.06836,1061.54 q -1.07422,0 -1.66016,-1.1328 -1.01562,-1.9726 -3.0664,-4.6679 l -3.45703,-4.7071 q -1.13282,0.8985 -3.51563,2.5196 -0.21484,3.0273 -0.21484,5.8984 0,0.8789 -0.54688,1.4258 -0.52734,0.5469 -1.36719,0.5469 -1.97265,0 -1.97265,-2.6563 0,-1.6211 0.21484,-4.8437 0.23438,-3.2422 0.23438,-4.8633 0,-2.9688 0.0781,-6.7774 0.0977,-3.8281 0.0977,-6.7578 0,-0.8789 -0.0977,-2.0703 -0.0781,-1.1914 -0.0781,-2.0703 0,-0.8789 0.52734,-1.4258 0.54688,-0.5469 1.38672,-0.5469 0.83984,0 1.36719,0.5469 0.54687,0.5469 0.54687,1.4258 0,0.8984 0.0977,2.1289 0.0977,1.2109 0.0977,2.1094 l -0.13671,6.289 q -0.0977,3.3985 -0.0586,6.7969 2.65625,-2.0312 5.11719,-4.4531 l 4.29687,-4.4336 q 0.64454,-0.6641 1.38672,-0.6641 0.76172,0 1.36719,0.6055 0.625,0.6055 0.625,1.4063 0,0.664 -0.56641,1.3085 -2.40234,2.8125 -5.91796,6.0352 l 4.25781,5.8008 q 2.98828,4.082 2.98828,5.3125 0,0.7812 -0.625,1.3476 -0.60547,0.5664 -1.40625,0.5664 z"
         style="fill:#000000;stroke:none;stroke-opacity:1;paint-order:markers stroke fill;stroke-linecap:round;stroke-linejoin:round;stroke-width:3.00000004;stroke-dasharray:none;fill-opacity:1"
         id="path3477" />
    </g>
    <g
       aria-label="BABY SHARK 
CHALLENGE"
       transform="matrix(0.64820361,0,0,0.5678746,-146.46059,-278.83133)"
       id="text3314"
       style="font-size:40px;line-height:1.25;font-family:'Comic Sans MS';-inkscape-font-specification:'Comic Sans MS';white-space:pre;shape-inside:url(#rect3316);display:inline;fill:#000000;stroke:none;stroke-opacity:1;paint-order:markers stroke fill;stroke-linecap:round;stroke-linejoin:round;stroke-width:2.18047215;stroke-dasharray:none;fill-opacity:1"
       inkscape:label="BABY SHARK CHALLENGE">
      <path
         d="m 276.20605,897.01075 q -4.39453,1.71875 -11.23046,1.71875 -0.83985,0 -1.60157,-0.80078 -0.74218,-0.78125 -0.74218,-1.6211 v -5.68359 q 0,-2.79297 0.35156,-7.96875 0.39062,-5.58594 0.42969,-8.08594 -0.0195,-1.79687 0.21484,-5.35156 0.13672,-0.97656 0.64453,-1.28906 2.65625,-0.82032 6.03516,-0.82032 3.4375,0 6.60156,2.34375 3.65234,2.69532 3.65234,6.66016 0,5.01953 -3.90625,7.91016 2.92969,1.25 4.375,2.77343 1.46485,1.52344 1.46485,3.32032 0,2.36328 -2.5586,4.57031 -1.77734,1.5625 -3.73047,2.32422 z m -5.89843,-25.91797 q -2.12891,0 -2.98828,0.13672 l -0.0391,3.41797 -0.39062,7.55859 q 2.77344,0.23438 2.96875,0.21484 2.94922,-0.23437 4.82422,-1.83593 2.01172,-1.73828 2.01172,-4.47266 0,-1.85547 -2.05079,-3.4375 -2.05078,-1.58203 -4.33593,-1.58203 z m 2.1875,15.64453 -2.07032,-0.33203 q -0.2539,0 -0.78125,0.0391 -0.50781,0.0195 -0.78125,0.0195 -1.05468,0 -2.24609,-0.17578 -0.11719,2.46094 -0.11719,4.39453 v 4.04297 q 5.11719,-0.17578 8.33985,-1.44531 1.36718,-0.52734 2.61718,-1.64063 1.19141,-1.01562 1.19141,-1.52343 0,-0.91797 -2.5,-2.07032 -1.875,-0.8789 -3.65234,-1.30859 z"
         style="text-align:center;text-anchor:middle;stroke:none;stroke-opacity:1;paint-order:markers stroke fill;stroke-linecap:round;stroke-linejoin:round;stroke-width:2.18047215;stroke-dasharray:none;fill:#000000;fill-opacity:1"
         id="path3480" />
      <path
         d="m 308.53027,898.37794 q -1.79687,0 -3.125,-4.60938 -0.50781,-1.75781 -1.26953,-6.15234 -1.99219,0.27343 -5.21484,0.97656 l -5.19531,1.07422 q -0.97657,2.55859 -3.33985,7.48047 -0.625,1.09375 -1.69922,1.09375 -0.78125,0 -1.40625,-0.56641 -0.60547,-0.56641 -0.60547,-1.40625 0,-0.9375 2.94922,-7.12891 -0.33203,-0.50781 -0.33203,-1.17187 0,-1.58203 1.91406,-2.03125 2.22657,-4.17969 5.625,-9.60938 4.62891,-7.40234 5.76172,-7.40234 1.54297,0 2.10938,2.14844 l 1.23047,6.5625 2.91015,13.57422 1.11328,3.08593 q 0.56641,1.58204 0.56641,2.10938 0,0.83984 -0.60547,1.40625 -0.60547,0.56641 -1.38672,0.56641 z m -6.89453,-22.32422 -5.58594,9.0039 q 2.36329,-0.60547 7.16797,-1.46484 z"
         style="text-align:center;text-anchor:middle;stroke:none;stroke-opacity:1;paint-order:markers stroke fill;stroke-linecap:round;stroke-linejoin:round;stroke-width:2.18047215;stroke-dasharray:none;fill:#000000;fill-opacity:1"
         id="path3482" />
      <path
         d="m 330.67871,897.01075 q -4.39453,1.71875 -11.23047,1.71875 -0.83984,0 -1.60156,-0.80078 -0.74219,-0.78125 -0.74219,-1.6211 v -5.68359 q 0,-2.79297 0.35156,-7.96875 0.39063,-5.58594 0.42969,-8.08594 -0.0195,-1.79687 0.21485,-5.35156 0.13671,-0.97656 0.64453,-1.28906 2.65625,-0.82032 6.03515,-0.82032 3.4375,0 6.60157,2.34375 3.65234,2.69532 3.65234,6.66016 0,5.01953 -3.90625,7.91016 2.92969,1.25 4.375,2.77343 1.46484,1.52344 1.46484,3.32032 0,2.36328 -2.55859,4.57031 -1.77734,1.5625 -3.73047,2.32422 z m -5.89844,-25.91797 q -2.1289,0 -2.98828,0.13672 l -0.0391,3.41797 -0.39063,7.55859 q 2.77344,0.23438 2.96875,0.21484 2.94922,-0.23437 4.82422,-1.83593 2.01172,-1.73828 2.01172,-4.47266 0,-1.85547 -2.05078,-3.4375 -2.05078,-1.58203 -4.33594,-1.58203 z m 2.1875,15.64453 -2.07031,-0.33203 q -0.25391,0 -0.78125,0.0391 -0.50781,0.0195 -0.78125,0.0195 -1.05469,0 -2.24609,-0.17578 -0.11719,2.46094 -0.11719,4.39453 v 4.04297 q 5.11719,-0.17578 8.33984,-1.44531 1.36719,-0.52734 2.61719,-1.64063 1.19141,-1.01562 1.19141,-1.52343 0,-0.91797 -2.5,-2.07032 -1.875,-0.8789 -3.65235,-1.30859 z"
         style="text-align:center;text-anchor:middle;stroke:none;stroke-opacity:1;paint-order:markers stroke fill;stroke-linecap:round;stroke-linejoin:round;stroke-width:2.18047215;stroke-dasharray:none;fill:#000000;fill-opacity:1"
         id="path3484" />
      <path
         d="m 361.47949,872.81153 q -0.46875,0.74219 -1.25,2.28516 l -3.35937,8.30078 q -1.95313,4.66797 -3.67188,8.16406 l -2.4414,4.35547 -1.03516,2.10937 q -0.64453,1.13282 -1.73828,1.13282 -0.76172,0 -1.38672,-0.56641 -0.625,-0.56641 -0.625,-1.40625 0,-0.66406 1.83594,-4.16016 l 2.40234,-4.39453 q -3.49609,-4.51172 -4.53125,-7.10937 -0.87891,-2.20703 -2.92969,-5.29297 -2.8125,-4.21875 -3.30078,-5.09766 -0.29297,-0.52734 -0.29297,-1.05469 0,-0.83984 0.60547,-1.40625 0.625,-0.58593 1.40625,-0.58593 0.95703,0 1.60156,0.91797 l 1.5625,2.42187 q 2.07032,3.06641 2.73438,4.17969 1.46484,2.40234 2.28516,4.45312 0.64453,1.6211 2.7539,4.4336 l 4.47266,-10.89844 q 0.76172,-1.34766 2.10937,-4.16016 0.54688,-1.32812 1.81641,-1.32812 0.78125,0 1.38672,0.54687 0.625,0.54688 0.625,1.40625 0,0.89844 -1.03516,2.75391 z"
         style="text-align:center;text-anchor:middle;stroke:none;stroke-opacity:1;paint-order:markers stroke fill;stroke-linecap:round;stroke-linejoin:round;stroke-width:2.18047215;stroke-dasharray:none;fill:#000000;fill-opacity:1"
         id="path3486" />
      <path
         d="m 378.56934,892.92872 q -0.0195,-0.82032 0.54687,-1.32813 0.58594,-0.52734 1.42578,-0.52734 0.95703,0 1.67969,1.09375 0.99609,1.48437 1.77734,2.01172 1.66016,1.09375 4.82422,1.09375 3.02735,0 5.625,-1.3086 3.32031,-1.67968 3.32031,-4.66797 0,-2.46093 -2.79296,-3.88671 -2.36329,-1.23047 -5.83985,-1.32813 -3.08594,-0.11719 -5.2539,-1.34766 -2.77344,-1.58203 -2.77344,-4.53125 0,-3.47656 3.94531,-6.34765 3.76953,-2.71485 7.79297,-2.71485 1.89453,0 4.27734,0.64454 3.16407,0.83984 3.16407,2.14843 0,1.71875 -1.75782,1.71875 -0.78125,0 -2.73437,-0.41015 -1.95313,-0.42969 -3.02735,-0.41016 -3.04687,0.0391 -5.17578,1.50391 -2.1875,1.5039 -2.1875,3.65234 0,1.62109 2.89063,2.28516 1.07422,0.2539 4.16015,0.46875 4.47266,0.33203 6.99219,2.8125 2.30469,2.26562 2.30469,5.52734 0,4.64844 -4.29688,7.42188 -3.73046,2.40234 -8.65234,2.40234 -3.57422,0 -6.54297,-1.36719 -3.63281,-1.67969 -3.6914,-4.60937 z"
         style="text-align:center;text-anchor:middle;stroke:none;stroke-opacity:1;paint-order:markers stroke fill;stroke-linecap:round;stroke-linejoin:round;stroke-width:2.18047215;stroke-dasharray:none;fill:#000000;fill-opacity:1"
         id="path3488" />
      <path
         d="m 432.12402,870.27247 q -0.29297,0.82031 -0.29297,2.40234 0,0.58594 0.0391,1.73828 0.0391,1.15235 0.0391,1.73828 0,1.95313 -0.35156,5.82032 -0.33203,3.86718 -0.33203,5.82031 0,1.48437 0.21484,4.45312 0.21484,2.96875 0.21484,4.47266 0,0.80078 -0.54687,1.34766 -0.52735,0.54687 -1.32813,0.54687 -0.78125,0 -1.32812,-0.54687 -0.54688,-0.54688 -0.54688,-1.34766 0,-1.50391 -0.21484,-4.47266 -0.21484,-2.96875 -0.21484,-4.45312 0,-1.42578 0.0976,-2.89063 -3.33984,0.0586 -8.26172,0.9961 l -8.20312,1.60156 q 0,1.75781 -0.35156,5 -0.35157,3.22266 -0.35157,5 0,0.80078 -0.54687,1.34766 -0.52735,0.5664 -1.32813,0.5664 -0.80078,0 -1.34765,-0.5664 -0.52735,-0.54688 -0.52735,-1.34766 0,-2.07031 0.33203,-6.17188 0.35157,-4.12109 0.35157,-6.1914 0,-1.07422 -0.0781,-3.24219 -0.0781,-2.16797 -0.0781,-3.26172 0,-1.54297 0.19531,-4.6289 0.19531,-3.10547 0.19531,-4.64844 0,-0.82031 0.52735,-1.36719 0.54687,-0.54687 1.34765,-0.54687 0.80078,0 1.32813,0.54687 0.54687,0.54688 0.54687,1.36719 0,1.5625 -0.21484,4.6875 -0.19531,3.10547 -0.19531,4.66797 l 0.11718,4.9414 8.37891,-1.58203 q 5.01953,-0.9375 8.45703,-0.97656 0.21484,-2.79297 0.21484,-8.41797 0,-1.48437 0.48829,-3.00781 0.64453,-2.08985 1.8164,-2.08985 0.74219,0 1.32813,0.54688 0.58593,0.52734 0.58593,1.34766 0,0.29296 -0.17578,0.80078 z"
         style="text-align:center;text-anchor:middle;stroke:none;stroke-opacity:1;paint-order:markers stroke fill;stroke-linecap:round;stroke-linejoin:round;stroke-width:2.18047215;stroke-dasharray:none;fill:#000000;fill-opacity:1"
         id="path3490" />
      <path
         d="m 458.82324,898.37794 q -1.79687,0 -3.125,-4.60938 -0.50781,-1.75781 -1.26953,-6.15234 -1.99219,0.27343 -5.21484,0.97656 l -5.19532,1.07422 q -0.97656,2.55859 -3.33984,7.48047 -0.625,1.09375 -1.69922,1.09375 -0.78125,0 -1.40625,-0.56641 -0.60547,-0.56641 -0.60547,-1.40625 0,-0.9375 2.94922,-7.12891 -0.33203,-0.50781 -0.33203,-1.17187 0,-1.58203 1.91406,-2.03125 2.22657,-4.17969 5.625,-9.60938 4.62891,-7.40234 5.76172,-7.40234 1.54297,0 2.10938,2.14844 l 1.23047,6.5625 2.91015,13.57422 1.11328,3.08593 q 0.56641,1.58204 0.56641,2.10938 0,0.83984 -0.60547,1.40625 -0.60547,0.56641 -1.38672,0.56641 z m -6.89453,-22.32422 -5.58594,9.0039 q 2.36328,-0.60547 7.16797,-1.46484 z"
         style="text-align:center;text-anchor:middle;stroke:none;stroke-opacity:1;paint-order:markers stroke fill;stroke-linecap:round;stroke-linejoin:round;stroke-width:2.18047215;stroke-dasharray:none;fill:#000000;fill-opacity:1"
         id="path3492" />
      <path
         d="m 485.65918,898.00684 q -0.74219,0 -1.38672,-0.625 -6.46484,-6.38672 -14.375,-8.59375 l 0.15625,3.82813 0.0977,3.84765 q 0,0.85938 -0.56641,1.42578 -0.54687,0.58594 -1.38672,0.58594 -0.83984,0 -1.40625,-0.58594 -0.54687,-0.5664 -0.54687,-1.42578 0,-1.54297 -0.15625,-4.58984 -0.13672,-3.06641 -0.13672,-4.60938 0,-1.79687 0.39062,-5.35156 0.39063,-3.55469 0.39063,-5.33203 0,-0.99609 -0.19531,-2.94922 -0.17579,-1.95312 -0.17579,-2.94922 0,-1.11328 0.625,-1.95312 0.74219,-1.03516 2.05079,-0.9375 l 4.70703,0.37109 q 2.67578,0.33203 4.51172,1.3086 7.91015,4.19921 7.91015,10.2539 0,2.96875 -2.69531,5.25391 -2.16797,1.83594 -5.41016,2.79297 6.07422,3.26172 9.08203,6.875 0.50782,0.625 0.50782,1.32812 0,0.82031 -0.60547,1.42578 -0.58594,0.60547 -1.38672,0.60547 z m -12.44141,-25.82031 -2.89062,-0.23438 0.19531,2.36329 q 0.13672,1.44531 0.13672,2.36328 0,1.5625 -0.25391,3.88672 l -0.41015,3.88671 q 0.27343,0 0.83984,0.0195 0.58594,0.0195 0.87891,0.0195 4.98047,0 7.46093,-1.32813 1.09375,-0.60547 2.03125,-1.58203 1.03516,-1.09375 1.03516,-1.85547 0,-2.71484 -3.08594,-5.05859 -2.83203,-2.14844 -5.9375,-2.48047 z"
         style="text-align:center;text-anchor:middle;stroke:none;stroke-opacity:1;paint-order:markers stroke fill;stroke-linecap:round;stroke-linejoin:round;stroke-width:2.18047215;stroke-dasharray:none;fill:#000000;fill-opacity:1"
         id="path3494" />
      <path
         d="m 511.32324,898.59278 q -2.96875,0 -8.45703,-5.21484 l -5.83984,-5.87891 v 0.27344 l -0.0195,10.23437 q 0,1.9336 -1.69922,1.9336 -1.11328,0 -1.77735,-0.97657 -0.54687,-0.80078 -0.54687,-1.73828 0,-4.57031 0.27344,-13.67187 0.27343,-9.10157 0.27343,-13.65235 0,-0.83984 0.54688,-1.42578 0.5664,-0.58594 1.38672,-0.58594 0.83984,0 1.38672,0.58594 0.5664,0.58594 0.5664,1.42578 0,1.89453 -0.23437,5.89844 -0.23438,3.86719 -0.21485,5.91797 2.61719,-2.48047 5.91797,-6.23047 l 5.60547,-6.50391 q 0.66406,-0.76171 1.48438,-0.76171 0.78125,0 1.38671,0.58593 0.60547,0.58594 0.60547,1.42578 0,1.28907 -5.03906,6.875 -3.47656,3.8086 -7.1875,7.46094 2.34375,2.46094 7.34375,7.07031 l 2.05078,1.71875 q 1.11328,0.85938 2.40235,1.28907 1.54296,0.50781 1.54296,1.93359 0,0.66406 -0.41015,1.26953 -0.50781,0.74219 -1.34766,0.74219 z"
         style="text-align:center;text-anchor:middle;stroke:none;stroke-opacity:1;paint-order:markers stroke fill;stroke-linecap:round;stroke-linejoin:round;stroke-width:2.18047215;stroke-dasharray:none;fill:#000000;fill-opacity:1"
         id="path3496" />
      <path
         d="m 295.02441,925.87794 q -1.25,0 -1.875,-1.46485 -0.54687,-1.25 -1.01562,-1.52344 -0.41016,-0.21484 -2.03125,-0.21484 -2.83203,0 -6.28906,4.33594 -4.6875,5.82031 -4.6875,11.03515 0,2.51954 1.62109,4.33594 1.66016,1.875 4.00391,1.875 2.01172,0 4.04297,-1.03515 1.13281,-0.58594 3.47656,-2.30469 1.11328,-0.82031 1.67969,-0.82031 0.83984,0 1.40625,0.64453 0.5664,0.625 0.5664,1.40625 0,0.8789 -0.74219,1.54297 -5.15625,4.57031 -10.42968,4.57031 -4.04297,0 -6.83594,-3.10547 -2.69531,-3.00781 -2.69531,-7.10938 0,-6.62109 5.54687,-13.57421 4.62891,-5.80079 9.33594,-5.80079 0.95703,0 1.71875,0.0977 0.76172,0.0781 1.34766,0.27344 0.68359,-0.9961 1.77734,-0.9961 1.34766,0 1.69922,1.77735 0.3125,1.58203 0.3125,3.88672 0,0.80078 -0.42969,1.40625 -0.52734,0.76172 -1.50391,0.76172 z"
         style="text-align:center;text-anchor:middle;stroke:none;stroke-opacity:1;paint-order:markers stroke fill;stroke-linecap:round;stroke-linejoin:round;stroke-width:2.18047215;stroke-dasharray:none;fill:#000000;fill-opacity:1"
         id="path3498" />
      <path
         d="m 326.00098,920.27247 q -0.29297,0.82031 -0.29297,2.40234 0,0.58594 0.0391,1.73828 0.0391,1.15235 0.0391,1.73828 0,1.95313 -0.35156,5.82032 -0.33203,3.86718 -0.33203,5.82031 0,1.48437 0.21484,4.45312 0.21485,2.96875 0.21485,4.47266 0,0.80078 -0.54688,1.34766 -0.52734,0.54687 -1.32812,0.54687 -0.78125,0 -1.32813,-0.54687 -0.54687,-0.54688 -0.54687,-1.34766 0,-1.50391 -0.21485,-4.47266 -0.21484,-2.96875 -0.21484,-4.45312 0,-1.42578 0.0977,-2.89063 -3.33985,0.0586 -8.26172,0.9961 l -8.20313,1.60156 q 0,1.75781 -0.35156,5 -0.35156,3.22266 -0.35156,5 0,0.80078 -0.54688,1.34766 -0.52734,0.5664 -1.32812,0.5664 -0.80078,0 -1.34766,-0.5664 -0.52734,-0.54688 -0.52734,-1.34766 0,-2.07031 0.33203,-6.17188 0.35156,-4.12109 0.35156,-6.1914 0,-1.07422 -0.0781,-3.24219 -0.0781,-2.16797 -0.0781,-3.26172 0,-1.54297 0.19531,-4.6289 0.19532,-3.10547 0.19532,-4.64844 0,-0.82031 0.52734,-1.36719 0.54687,-0.54687 1.34766,-0.54687 0.80078,0 1.32812,0.54687 0.54688,0.54688 0.54688,1.36719 0,1.5625 -0.21485,4.6875 -0.19531,3.10547 -0.19531,4.66797 l 0.11719,4.9414 8.3789,-1.58203 q 5.01953,-0.9375 8.45703,-0.97656 0.21485,-2.79297 0.21485,-8.41797 0,-1.48437 0.48828,-3.00781 0.64453,-2.08985 1.81641,-2.08985 0.74218,0 1.32812,0.54688 0.58594,0.52734 0.58594,1.34766 0,0.29296 -0.17578,0.80078 z"
         style="text-align:center;text-anchor:middle;stroke:none;stroke-opacity:1;paint-order:markers stroke fill;stroke-linecap:round;stroke-linejoin:round;stroke-width:2.18047215;stroke-dasharray:none;fill:#000000;fill-opacity:1"
         id="path3500" />
      <path
         d="m 352.7002,948.37794 q -1.79688,0 -3.125,-4.60938 -0.50782,-1.75781 -1.26954,-6.15234 -1.99218,0.27343 -5.21484,0.97656 l -5.19531,1.07422 q -0.97656,2.55859 -3.33985,7.48047 -0.625,1.09375 -1.69921,1.09375 -0.78125,0 -1.40625,-0.56641 -0.60547,-0.56641 -0.60547,-1.40625 0,-0.9375 2.94922,-7.12891 -0.33204,-0.50781 -0.33204,-1.17187 0,-1.58203 1.91407,-2.03125 2.22656,-4.17969 5.625,-9.60938 4.6289,-7.40234 5.76172,-7.40234 1.54296,0 2.10937,2.14844 l 1.23047,6.5625 2.91016,13.57422 1.11328,3.08593 q 0.5664,1.58204 0.5664,2.10938 0,0.83984 -0.60547,1.40625 -0.60546,0.56641 -1.38671,0.56641 z m -6.89454,-22.32422 -5.58593,9.0039 q 2.36328,-0.60547 7.16797,-1.46484 z"
         style="text-align:center;text-anchor:middle;stroke:none;stroke-opacity:1;paint-order:markers stroke fill;stroke-linecap:round;stroke-linejoin:round;stroke-width:2.18047215;stroke-dasharray:none;fill:#000000;fill-opacity:1"
         id="path3502" />
      <path
         d="m 377.56348,946.99122 q -2.20703,1.03515 -6.9336,1.85547 -4.35547,0.76171 -7.10937,0.76171 -1.97266,0 -2.83203,-0.60546 -1.17188,-0.82032 -1.17188,-3.00782 l 0.39063,-6.46484 q 0.50781,-8.94531 0.50781,-19.84375 0,-0.83984 0.54687,-1.42578 0.56641,-0.58594 1.38672,-0.58594 0.83985,0 1.38672,0.58594 0.56641,0.58594 0.56641,1.42578 0,11.03516 -0.52735,20.07812 l -0.2539,2.96875 q -0.15625,1.6211 -0.11719,2.8711 5.09766,0.0586 12.89063,-2.40235 0.33203,-0.0976 0.625,-0.0976 0.83984,0 1.40625,0.66406 0.48828,0.60547 0.48828,1.38672 0,1.25 -1.25,1.83594 z"
         style="text-align:center;text-anchor:middle;stroke:none;stroke-opacity:1;paint-order:markers stroke fill;stroke-linecap:round;stroke-linejoin:round;stroke-width:2.18047215;stroke-dasharray:none;fill:#000000;fill-opacity:1"
         id="path3504" />
      <path
         d="m 399.59473,946.99122 q -2.20703,1.03515 -6.9336,1.85547 -4.35547,0.76171 -7.10937,0.76171 -1.97266,0 -2.83203,-0.60546 -1.17188,-0.82032 -1.17188,-3.00782 l 0.39063,-6.46484 q 0.50781,-8.94531 0.50781,-19.84375 0,-0.83984 0.54687,-1.42578 0.56641,-0.58594 1.38672,-0.58594 0.83985,0 1.38672,0.58594 0.56641,0.58594 0.56641,1.42578 0,11.03516 -0.52735,20.07812 l -0.2539,2.96875 q -0.15625,1.6211 -0.11719,2.8711 5.09766,0.0586 12.89063,-2.40235 0.33203,-0.0976 0.625,-0.0976 0.83984,0 1.40625,0.66406 0.48828,0.60547 0.48828,1.38672 0,1.25 -1.25,1.83594 z"
         style="text-align:center;text-anchor:middle;stroke:none;stroke-opacity:1;paint-order:markers stroke fill;stroke-linecap:round;stroke-linejoin:round;stroke-width:2.18047215;stroke-dasharray:none;fill:#000000;fill-opacity:1"
         id="path3506" />
      <path
         d="m 423.38379,921.50294 q -0.27344,0 -0.60547,-0.0977 -3.30078,-0.9375 -6.36719,-0.9375 -1.60156,0 -3.49609,0.29297 -1.89453,0.29297 -4.08203,0.89844 0.17578,1.26953 0.17578,2.03125 0,2.71484 -0.33203,7.46093 l 8.55469,-0.82031 q 3.76953,-0.39062 4.6289,-0.39062 0.85938,0 1.44531,0.54687 0.58594,0.54688 0.58594,1.46484 0,1.77735 -1.79687,1.99219 l -4.64844,0.41016 -9.02344,0.82031 q -0.0781,1.38672 -0.13672,2.63672 -0.0391,1.23047 -0.0391,2.30469 0,4.3164 0.625,5.07812 0.46875,0.54688 3.06641,0.54688 1.21093,0 3.63281,-0.0586 2.44141,-0.0781 3.67187,-0.0781 0.39063,0 1.15235,-0.11719 0.76172,-0.13672 1.13281,-0.13672 2.07031,0 2.07031,2.03125 0,1.64063 -1.66015,1.97266 -1.83594,0.37109 -7.94922,0.37109 -6.05469,0 -7.77344,-1.60156 -1.875,-1.73828 -1.875,-8.00781 0,-1.25 0.0586,-2.73438 0.0586,-1.48437 0.15625,-3.20312 -0.21484,-0.44922 -0.21484,-0.95703 0,-0.66407 0.37109,-1.19141 0.39063,-5.64453 0.39063,-8.33984 0,-0.72266 -0.19531,-2.10938 -0.19532,-1.40625 -0.19532,-2.12891 0,-2.32421 1.95313,-2.32421 0.82031,0 1.40625,0.5664 2.34375,-0.625 4.41406,-0.9375 2.08985,-0.3125 3.92578,-0.3125 4.7461,0 7.57813,1.13281 1.30859,0.52735 1.30859,1.875 0,0.78125 -0.50781,1.38672 -0.56641,0.66407 -1.40625,0.66407 z"
         style="text-align:center;text-anchor:middle;stroke:none;stroke-opacity:1;paint-order:markers stroke fill;stroke-linecap:round;stroke-linejoin:round;stroke-width:2.18047215;stroke-dasharray:none;fill:#000000;fill-opacity:1"
         id="path3508" />
      <path
         d="m 456.68457,943.45606 q 0,0.9375 -0.3125,3.125 -0.3125,1.97266 -2.08984,1.97266 -1.07422,0 -2.5586,-1.40625 -7.94922,-7.51953 -18.24218,-21.69922 l -0.0977,4.43359 -0.0586,4.45313 q 0,1.62109 0.0586,4.86328 0.0781,3.24219 0.0781,4.88281 0,5.25391 -2.03125,5.25391 -1.07421,0 -1.69921,-0.6836 -0.56641,-0.60547 -0.56641,-1.44531 0,-0.82031 0.11719,-2.48047 0.13672,-1.66015 0.13672,-2.48047 0,-1.21093 0.0781,-3.61328 0.0781,-2.42187 0.0781,-3.63281 0,-1.28906 -0.0586,-3.88672 -0.0586,-2.61719 -0.0586,-3.90625 0,-1.23047 -0.23438,-3.65234 -0.23437,-2.44141 -0.23437,-3.67188 0,-0.89844 0.76172,-1.64062 0.78125,-0.74219 1.75781,-0.74219 1.03516,0 2.55859,2.26562 4.86328,7.28516 8.75,12.10938 4.62891,5.72266 10.15625,10.9375 0.0586,-0.83984 0,-2.48047 l -0.0586,-2.46094 q 0,-8.57422 -0.66406,-13.65234 -0.0781,-0.50781 -0.52735,-2.05078 -0.39062,-1.32813 -0.39062,-2.07031 0,-2.26563 2.07031,-2.26563 3.39844,0 3.39844,12.67578 0,2.16797 -0.0586,6.48438 -0.0586,4.29687 -0.0586,6.46484 z"
         style="text-align:center;text-anchor:middle;stroke:none;stroke-opacity:1;paint-order:markers stroke fill;stroke-linecap:round;stroke-linejoin:round;stroke-width:2.18047215;stroke-dasharray:none;fill:#000000;fill-opacity:1"
         id="path3510" />
      <path
         d="m 483.85254,935.97559 q -1.21094,5.9961 -5.09766,9.58985 -3.86718,3.57421 -9.14062,3.57421 -4.80469,0 -7.20703,-2.67578 -2.40235,-2.69531 -2.40235,-8.0664 0,-5.0586 2.38282,-10.41016 2.40234,-5.37109 6.15234,-8.67187 2.5,-2.20704 5.29297,-2.20704 1.77734,0 4.6875,1.17188 3.55469,1.40625 3.55469,3.10547 0,0.80078 -0.58594,1.42578 -0.58594,0.625 -1.40625,0.625 -0.42969,0 -1.21094,-0.48828 -2.98828,-1.81641 -5.03906,-1.81641 -1.46485,0 -3.06641,1.52344 -0.80078,0.76172 -2.30469,2.77344 -4.51171,5.97656 -4.51171,12.96875 0,3.67187 1.13281,5.13672 1.23047,1.60156 4.53125,1.60156 3.49609,0 6.07422,-2.20703 2.71484,-2.34375 3.78906,-6.69922 -5.41016,0.27344 -9.27734,2.08984 -0.44922,0.21485 -0.87891,0.21485 -0.85938,0 -1.42578,-0.66407 -0.52735,-0.60547 -0.52735,-1.40625 0,-1.07422 1.03516,-1.71875 4.21875,-2.57812 14.55078,-2.57812 0.83985,0 1.40625,0.5664 0.56641,0.56641 0.56641,1.42579 0,1.26953 -1.07422,1.8164 z"
         style="text-align:center;text-anchor:middle;stroke:none;stroke-opacity:1;paint-order:markers stroke fill;stroke-linecap:round;stroke-linejoin:round;stroke-width:2.18047215;stroke-dasharray:none;fill:#000000;fill-opacity:1"
         id="path3512" />
      <path
         d="m 507.42676,921.50294 q -0.27344,0 -0.60547,-0.0977 -3.30078,-0.9375 -6.36719,-0.9375 -1.60156,0 -3.49609,0.29297 -1.89453,0.29297 -4.08203,0.89844 0.17578,1.26953 0.17578,2.03125 0,2.71484 -0.33203,7.46093 l 8.55468,-0.82031 q 3.76954,-0.39062 4.62891,-0.39062 0.85938,0 1.44531,0.54687 0.58594,0.54688 0.58594,1.46484 0,1.77735 -1.79687,1.99219 l -4.64844,0.41016 -9.02344,0.82031 q -0.0781,1.38672 -0.13672,2.63672 -0.0391,1.23047 -0.0391,2.30469 0,4.3164 0.625,5.07812 0.46875,0.54688 3.06641,0.54688 1.21093,0 3.63281,-0.0586 2.4414,-0.0781 3.67187,-0.0781 0.39063,0 1.15235,-0.11719 0.76172,-0.13672 1.13281,-0.13672 2.07031,0 2.07031,2.03125 0,1.64063 -1.66015,1.97266 -1.83594,0.37109 -7.94922,0.37109 -6.05469,0 -7.77344,-1.60156 -1.875,-1.73828 -1.875,-8.00781 0,-1.25 0.0586,-2.73438 0.0586,-1.48437 0.15625,-3.20312 -0.21484,-0.44922 -0.21484,-0.95703 0,-0.66407 0.37109,-1.19141 0.39063,-5.64453 0.39063,-8.33984 0,-0.72266 -0.19531,-2.10938 -0.19532,-1.40625 -0.19532,-2.12891 0,-2.32421 1.95313,-2.32421 0.82031,0 1.40625,0.5664 2.34375,-0.625 4.41406,-0.9375 2.08984,-0.3125 3.92578,-0.3125 4.7461,0 7.57813,1.13281 1.30859,0.52735 1.30859,1.875 0,0.78125 -0.50781,1.38672 -0.56641,0.66407 -1.40625,0.66407 z"
         style="text-align:center;text-anchor:middle;stroke:none;stroke-opacity:1;paint-order:markers stroke fill;stroke-linecap:round;stroke-linejoin:round;stroke-width:2.18047215;stroke-dasharray:none;fill:#000000;fill-opacity:1"
         id="path3514" />
    </g>
    <g
       aria-label="I completed the"
       transform="matrix(0.49960621,0,0,0.49960621,9.5049568,-6.8912956)"
       id="text3255"
       style="font-size:40px;line-height:1.25;font-family:'Comic Sans MS';-inkscape-font-specification:'Comic Sans MS';white-space:pre;shape-inside:url(#rect3257);display:inline;stroke:none;stroke-opacity:1;paint-order:markers stroke fill;stroke-linecap:round;stroke-linejoin:round;stroke-width:2.64791878;stroke-dasharray:none;fill:#000000;fill-opacity:1"
       inkscape:label="I completed the">
      <path
         d="m 59.080078,25.299811 q -1.25,0 -3.144531,-0.253906 l -3.144531,-0.410156 q -0.449219,5.683593 -0.449219,10.859375 0,1.367187 0.07813,3.378906 0.07813,2.011719 0.07813,3.378906 0,1.835938 -0.136719,3.339844 l 6.152344,-0.07813 q 0.820312,0 1.367187,0.585937 0.566407,0.566407 0.566407,1.40625 0,0.859375 -0.566407,1.445313 -0.546875,0.566406 -1.367187,0.566406 -1.09375,0 -3.28125,0.05859 -2.1875,0.03906 -3.28125,0.03906 -1.289063,0 -3.867188,0.351563 -2.558593,0.371094 -3.867187,0.371094 -0.820313,0 -1.386719,-0.585938 -0.546875,-0.566406 -0.546875,-1.40625 0,-0.839844 0.546875,-1.425781 0.566406,-0.585938 1.386719,-0.585938 1.269531,0 4.199219,-0.410156 0.195312,-1.582031 0.195312,-3.613281 0,-1.347656 -0.136719,-3.28125 -0.117187,-1.953125 -0.117187,-3.28125 0,-4.511719 0.546875,-11.269531 l -2.539063,0.07813 -2.539062,0.05859 q -0.839844,0 -1.40625,-0.566406 -0.566406,-0.566406 -0.566406,-1.445312 0,-1.816407 1.835937,-1.992188 1.582031,-0.15625 5.917969,-0.15625 3.886719,0 9.746094,0.839844 1.738281,0.253906 1.738281,2.089844 0,0.917968 -0.664063,1.464843 -0.585937,0.449219 -1.347656,0.449219 z"
         style="fill:#000000;stroke:none;stroke-opacity:1;paint-order:markers stroke fill;stroke-linecap:round;stroke-linejoin:round;stroke-width:2.64791878;stroke-dasharray:none;fill-opacity:1"
         id="path3388" />
      <path
         d="m 85.740234,50.866217 q -4.003906,0 -6.679687,-2.421875 -2.8125,-2.539062 -2.8125,-6.699218 0,-3.964844 2.636719,-8.183594 2.929687,-4.6875 6.601562,-4.6875 1.914063,0 4.277344,0.898437 2.988281,1.152344 2.988281,2.8125 0,0.742188 -0.488281,1.328125 -0.488281,0.566407 -1.210938,0.566407 -0.566406,0 -0.996093,-0.332032 -0.410157,-0.351562 -0.800782,-0.683593 -1.152343,-0.917969 -3.769531,-0.917969 -1.992187,0 -3.945312,3.554687 -1.777344,3.261719 -1.777344,5.644532 0,2.578125 1.757812,4.0625 1.640625,1.386718 4.21875,1.386718 1.171875,0 2.5,-0.625 l 2.265625,-1.210937 q 0.585938,-0.3125 0.839844,-0.3125 0.722656,0 1.25,0.585937 0.527344,0.566407 0.527344,1.308594 0,1.425781 -3.007813,2.753906 -2.636718,1.171875 -4.375,1.171875 z"
         style="fill:#000000;stroke:none;stroke-opacity:1;paint-order:markers stroke fill;stroke-linecap:round;stroke-linejoin:round;stroke-width:2.64791878;stroke-dasharray:none;fill-opacity:1"
         id="path3390" />
      <path
         d="m 104.7832,50.788092 q -3.28125,0 -5.644528,-2.421875 -2.636719,-2.695312 -2.773438,-7.246093 -0.117187,-4.414063 2.226563,-7.773438 2.734373,-3.964844 7.617183,-3.964844 3.90625,0 5.91797,3.574219 1.60157,2.890625 1.54297,6.953125 -0.0586,4.335938 -2.26562,7.402344 -2.5,3.476562 -6.6211,3.476562 z m 1.17188,-17.441406 q -2.8711,-0.01953 -4.47266,2.734375 -1.26953,2.207031 -1.26953,5.039063 0,2.832031 1.54297,4.414062 1.28906,1.308594 3.02734,1.308594 2.03125,0 3.4961,-1.484375 1.66015,-1.640625 1.75781,-4.433594 0.27344,-7.558594 -4.08203,-7.578125 z"
         style="fill:#000000;stroke:none;stroke-opacity:1;paint-order:markers stroke fill;stroke-linecap:round;stroke-linejoin:round;stroke-width:2.64791878;stroke-dasharray:none;fill-opacity:1"
         id="path3392" />
      <path
         d="m 143.29883,51.256842 q -1.60156,0 -1.875,-1.699218 -0.35156,-2.148438 -0.70313,-6.054688 l -0.66406,-6.054687 q -0.19531,-1.347657 -0.66406,-2.636719 -0.66406,-1.757813 -1.44531,-1.757813 -0.72266,0 -2.69532,1.230469 -1.875,1.132813 -2.46093,1.816406 -0.0195,1.835938 0.0976,3.671875 l 0.58594,5.214844 q 0.37109,3.085938 0.37109,5.097656 0,0.859375 -0.54687,1.40625 -0.52735,0.566407 -1.36719,0.566407 -0.83984,0 -1.38672,-0.566407 -0.52734,-0.546875 -0.52734,-1.40625 0,-2.363281 -0.48828,-6.972656 -0.46875,-4.628906 -0.46875,-6.992187 0,-2.070313 -0.58594,-3.222657 -1.36719,0.625 -2.77344,2.03125 l -2.30469,2.578125 q -0.3125,0.46875 -0.99609,1.230469 0,1.171875 -0.21484,3.457031 -0.21485,2.285157 -0.21485,3.378907 0,0.585937 0.17578,1.640625 0.19532,1.054687 0.19532,1.523437 0,0.800781 -0.60547,1.347656 -0.58594,0.546875 -1.38672,0.546875 -2.20703,0 -2.20703,-5.019531 0,-1.171875 0.21484,-3.496094 0.21485,-2.324218 0.21485,-3.496093 0,-1.035157 -0.19532,-3.105469 -0.17578,-2.070313 -0.17578,-3.125 0,-4.433594 1.99219,-4.433594 0.76172,0 1.38672,0.664063 0.64453,0.664062 0.64453,1.445312 0,0.371094 -0.0977,1.152344 -0.0976,0.78125 -0.0976,1.191406 l 0.0391,2.050781 q 1.01562,-2.089843 2.98828,-3.769531 1.97266,-1.699219 3.35938,-1.699219 3.0664,0 4.21875,3.046875 1.07421,-1.425781 2.55859,-2.128906 1.48437,-0.722656 3.39844,-0.722656 3.26172,0 4.45312,3.515625 0.23438,0.703125 0.80078,5.488281 0.54688,3.359375 1.40625,11.191406 0.0586,0.78125 -0.52734,1.328125 -0.58594,0.546875 -1.42578,0.546875 z"
         style="fill:#000000;stroke:none;stroke-opacity:1;paint-order:markers stroke fill;stroke-linecap:round;stroke-linejoin:round;stroke-width:2.64791878;stroke-dasharray:none;fill-opacity:1"
         id="path3394" />
      <path
         d="m 157.86914,50.319342 q -1.95312,0 -4.29687,-0.625 l -0.0391,9.335938 q 0,0.859375 -0.54687,1.40625 -0.52735,0.546875 -1.36719,0.546875 -0.83984,0 -1.38672,-0.546875 -0.52734,-0.546875 -0.52734,-1.40625 l 0.0586,-7.8125 v -7.792969 q -0.0586,-4.277344 -0.29297,-7.792969 l -0.29297,-3.964843 q 0,-1.386719 0.50782,-2.34375 0.58593,-1.152344 1.69922,-1.152344 0.76171,0 1.26953,0.546875 0.52734,0.527344 0.52734,1.308594 0,0.175781 -0.0586,0.644531 -0.0977,0.605469 -0.13672,1.113281 1.67969,-1.152344 3.24219,-1.71875 1.5625,-0.585937 2.98828,-0.585937 4.0039,0 5.85937,3.554687 1.46485,2.8125 1.46485,7.441406 0,4.21875 -2.26563,6.953125 -2.40234,2.890625 -6.40625,2.890625 z m 1.34766,-16.933593 q -1.79688,0 -3.24219,0.800781 -1.03516,0.566406 -2.61719,2.070312 0.25391,4.433594 0.25391,9.316407 2.1289,0.820312 4.25781,0.820312 2.44141,0 3.73047,-1.816406 1.11328,-1.582031 1.11328,-4.101563 0,-3.554687 -0.87891,-5.3125 -0.85937,-1.777343 -2.61718,-1.777343 z"
         style="fill:#000000;stroke:none;stroke-opacity:1;paint-order:markers stroke fill;stroke-linecap:round;stroke-linejoin:round;stroke-width:2.64791878;stroke-dasharray:none;fill-opacity:1"
         id="path3396" />
      <path
         d="m 175.91602,34.284186 -0.29297,9.707031 q 0,1.542969 -0.15625,4.53125 -0.19532,1.953125 -1.91407,1.953125 -1.91406,0 -1.91406,-1.992187 0,-2.363281 0.21485,-7.089844 0.21484,-4.746094 0.21484,-7.109375 0,-3.085937 0.0977,-7.050781 0.0976,-3.984375 0.0976,-7.070313 0,-1.953125 1.91406,-1.953125 1.9336,0 1.9336,1.953125 0,3.085938 -0.0977,7.070313 -0.0976,3.964844 -0.0976,7.050781 z"
         style="fill:#000000;stroke:none;stroke-opacity:1;paint-order:markers stroke fill;stroke-linecap:round;stroke-linejoin:round;stroke-width:2.64791878;stroke-dasharray:none;fill-opacity:1"
         id="path3398" />
      <path
         d="m 191.0332,50.534186 q -4.41406,0 -7.14843,-2.207031 -2.98829,-2.441406 -2.98829,-6.835938 0,-5.078125 2.46094,-8.515625 2.67578,-3.75 7.14844,-3.75 3.24219,0 5.29297,1.09375 2.51953,1.347657 2.51953,4.140625 0,1.953125 -2.20703,3.554688 -0.97656,0.703125 -4.14063,2.1875 l -7.46093,3.535156 q 1.09375,1.621094 2.71484,2.441406 1.64062,0.820313 3.80859,0.820313 1.34766,0 3.16407,-0.507813 2.30468,-0.644531 2.96875,-1.679687 0.66406,-1.054688 1.42578,-1.054688 0.68359,0 1.21093,0.527344 0.54688,0.507813 0.54688,1.191406 0,2.167969 -3.49609,3.730469 -2.98829,1.328125 -5.82032,1.328125 z m -0.52734,-17.792969 q -2.38281,0 -3.96484,1.855469 -1.58204,1.835938 -2.36329,5.546875 l 5.9961,-2.851562 q 3.53515,-1.71875 5.03906,-2.988282 -1.67969,-1.5625 -4.70703,-1.5625 z"
         style="fill:#000000;stroke:none;stroke-opacity:1;paint-order:markers stroke fill;stroke-linecap:round;stroke-linejoin:round;stroke-width:2.64791878;stroke-dasharray:none;fill-opacity:1"
         id="path3400" />
      <path
         d="m 216.89258,32.995124 q -0.41016,0 -0.97656,-0.03906 -0.54688,-0.03906 -0.95704,-0.03906 -0.44921,0 -2.65625,0.292968 l 0.3711,11.542969 0.0195,0.859375 0.0195,0.996094 q 0.0781,4.277344 -2.05078,4.277344 -0.78125,0 -1.36719,-0.507813 -0.5664,-0.507812 -0.5664,-1.269531 0,-0.742188 0.0586,-2.226563 0.0586,-1.484375 0.0586,-2.226562 l -0.39062,-11.40625 q -1.42578,-0.05859 -4.33594,-0.332031 -1.73828,-0.234375 -1.73828,-1.933594 0,-0.859375 0.52734,-1.425781 0.52735,-0.566407 1.34766,-0.566407 l 4.10156,0.332032 q 0,-0.996094 -0.0976,-2.65625 -0.0781,-1.679688 -0.0781,-2.421875 0,-0.820313 0.56641,-1.347657 0.5664,-0.546875 1.38672,-0.546875 1.75781,0 2.05078,2.871094 0.0586,0.722656 0.0586,1.738281 l -0.0391,1.132813 -0.0195,1.210937 q 2.42187,-0.3125 2.77343,-0.3125 2.03125,0 2.65625,0.195313 1.19141,0.390625 1.19141,1.835937 0,0.859375 -0.54687,1.425782 -0.52735,0.546875 -1.36719,0.546875 z"
         style="fill:#000000;stroke:none;stroke-opacity:1;paint-order:markers stroke fill;stroke-linecap:round;stroke-linejoin:round;stroke-width:2.64791878;stroke-dasharray:none;fill-opacity:1"
         id="path3402" />
      <path
         d="m 231.79492,50.534186 q -4.41406,0 -7.14844,-2.207031 -2.98828,-2.441406 -2.98828,-6.835938 0,-5.078125 2.46094,-8.515625 2.67578,-3.75 7.14844,-3.75 3.24219,0 5.29297,1.09375 2.51953,1.347657 2.51953,4.140625 0,1.953125 -2.20703,3.554688 -0.97657,0.703125 -4.14063,2.1875 l -7.46094,3.535156 q 1.09375,1.621094 2.71485,2.441406 1.64062,0.820313 3.80859,0.820313 1.34766,0 3.16406,-0.507813 2.30469,-0.644531 2.96875,-1.679687 0.66407,-1.054688 1.42579,-1.054688 0.68359,0 1.21093,0.527344 0.54688,0.507813 0.54688,1.191406 0,2.167969 -3.4961,3.730469 -2.98828,1.328125 -5.82031,1.328125 z m -0.52734,-17.792969 q -2.38281,0 -3.96485,1.855469 -1.58203,1.835938 -2.36328,5.546875 l 5.9961,-2.851562 q 3.53515,-1.71875 5.03906,-2.988282 -1.67969,-1.5625 -4.70703,-1.5625 z"
         style="fill:#000000;stroke:none;stroke-opacity:1;paint-order:markers stroke fill;stroke-linecap:round;stroke-linejoin:round;stroke-width:2.64791878;stroke-dasharray:none;fill-opacity:1"
         id="path3404" />
      <path
         d="m 262.57617,32.389655 q -0.23437,2.871094 -0.23437,5.742187 0,6.503907 0.60547,9.824219 0.0391,0.273438 0.0391,0.449219 0,0.78125 -0.54688,1.289062 -0.54687,0.507813 -1.26953,0.507813 -1.21094,0 -1.77734,-1.757813 -1.40625,1.035157 -2.92969,1.5625 -1.50391,0.527344 -3.14453,0.527344 -4.04297,0 -6.69922,-2.695312 -2.73437,-2.753907 -2.73437,-7.070313 0,-5.214844 2.7539,-8.359375 2.77344,-3.144531 7.1875,-3.144531 2.26563,0 3.4961,0.703125 l 1.83593,1.347656 q 0.27344,-8.222656 0.64453,-11.074219 0.25391,-1.738281 1.77735,-1.738281 1.77734,0 1.77734,1.894531 0,2.714844 -0.78125,11.992188 z m -8.67187,0.507812 q -3.28125,0 -4.92188,1.953125 -1.64062,1.933594 -1.64062,5.839844 0,2.519531 1.77734,4.335938 1.79688,1.816406 4.19922,1.816406 1.64062,0 2.77344,-0.605469 0.66406,-0.351562 2.16797,-1.621094 0.29296,-0.253906 0.5664,-0.605468 l -0.0586,-3.378907 0.0195,-2.265625 0.0391,-2.304687 q -0.74219,-1.582031 -1.97265,-2.363281 -1.23047,-0.800782 -2.94922,-0.800782 z"
         style="fill:#000000;stroke:none;stroke-opacity:1;paint-order:markers stroke fill;stroke-linecap:round;stroke-linejoin:round;stroke-width:2.64791878;stroke-dasharray:none;fill-opacity:1"
         id="path3406" />
      <path
         d="m 293.10352,32.995124 q -0.41016,0 -0.97657,-0.03906 -0.54687,-0.03906 -0.95703,-0.03906 -0.44922,0 -2.65625,0.292968 l 0.3711,11.542969 0.0195,0.859375 0.0195,0.996094 q 0.0781,4.277344 -2.05078,4.277344 -0.78125,0 -1.36719,-0.507813 -0.56641,-0.507812 -0.56641,-1.269531 0,-0.742188 0.0586,-2.226563 0.0586,-1.484375 0.0586,-2.226562 l -0.39062,-11.40625 q -1.42579,-0.05859 -4.33594,-0.332031 -1.73828,-0.234375 -1.73828,-1.933594 0,-0.859375 0.52734,-1.425781 0.52734,-0.566407 1.34766,-0.566407 l 4.10156,0.332032 q 0,-0.996094 -0.0977,-2.65625 -0.0781,-1.679688 -0.0781,-2.421875 0,-0.820313 0.5664,-1.347657 0.56641,-0.546875 1.38672,-0.546875 1.75782,0 2.05078,2.871094 0.0586,0.722656 0.0586,1.738281 l -0.0391,1.132813 -0.0195,1.210937 q 2.42188,-0.3125 2.77344,-0.3125 2.03125,0 2.65625,0.195313 1.19141,0.390625 1.19141,1.835937 0,0.859375 -0.54688,1.425782 -0.52734,0.546875 -1.36718,0.546875 z"
         style="fill:#000000;stroke:none;stroke-opacity:1;paint-order:markers stroke fill;stroke-linecap:round;stroke-linejoin:round;stroke-width:2.64791878;stroke-dasharray:none;fill-opacity:1"
         id="path3408" />
      <path
         d="m 315.23242,50.846686 q -1.38672,0 -1.8164,-1.484375 -0.44922,-1.601562 -0.82032,-4.550781 -0.35156,-2.832031 -0.35156,-4.648438 0,-0.507812 0.0391,-1.542968 0.0586,-1.035157 0.0586,-1.542969 0,-3.671875 -1.83594,-3.671875 -2.48047,0 -4.43359,2.246094 -0.9961,1.152343 -2.73438,4.394531 0,7.441406 -0.625,8.808594 -0.54687,1.210937 -1.69922,1.210937 -0.80078,0 -1.40625,-0.546875 -0.60547,-0.546875 -0.60547,-1.328125 0,-0.273437 0.17578,-0.859375 0.15625,-0.488281 0.21485,-2.851562 l 0.0586,-2.890625 0.0586,-14.355469 q 0.13671,-2.421875 0.13671,-3.261719 0,-0.996094 -0.19531,-1.875 -0.17578,-0.898437 -0.17578,-1.855469 0,-0.820312 0.56641,-1.347656 0.5664,-0.546875 1.38672,-0.546875 1.60156,0 1.875,1.71875 0.3125,1.894531 0.3125,3.417969 0,2.050781 -0.13672,4.277344 -0.11719,2.128906 -0.0977,4.277343 l 0.0195,1.71875 q 1.60156,-2.148437 3.41797,-3.203125 1.83594,-1.074218 3.88672,-1.074218 3.24219,0 4.45312,2.109375 0.85938,1.484375 0.97657,5 l 0.15625,3.730468 0.39062,4.0625 q 0.27344,2.285157 0.66406,4.023438 0.0781,0.332031 0.0781,0.566406 0,0.800781 -0.58594,1.328125 -0.58594,0.546875 -1.40625,0.546875 z"
         style="fill:#000000;stroke:none;stroke-opacity:1;paint-order:markers stroke fill;stroke-linecap:round;stroke-linejoin:round;stroke-width:2.64791878;stroke-dasharray:none;fill-opacity:1"
         id="path3410" />
      <path
         d="m 331.11133,50.534186 q -4.41406,0 -7.14844,-2.207031 -2.98828,-2.441406 -2.98828,-6.835938 0,-5.078125 2.46094,-8.515625 2.67578,-3.75 7.14843,-3.75 3.24219,0 5.29297,1.09375 2.51953,1.347657 2.51953,4.140625 0,1.953125 -2.20703,3.554688 -0.97656,0.703125 -4.14062,2.1875 l -7.46094,3.535156 q 1.09375,1.621094 2.71484,2.441406 1.64063,0.820313 3.8086,0.820313 1.34765,0 3.16406,-0.507813 2.30469,-0.644531 2.96875,-1.679687 0.66406,-1.054688 1.42578,-1.054688 0.6836,0 1.21094,0.527344 0.54687,0.507813 0.54687,1.191406 0,2.167969 -3.49609,3.730469 -2.98828,1.328125 -5.82031,1.328125 z m -0.52735,-17.792969 q -2.38281,0 -3.96484,1.855469 -1.58203,1.835938 -2.36328,5.546875 l 5.99609,-2.851562 q 3.53516,-1.71875 5.03907,-2.988282 -1.67969,-1.5625 -4.70704,-1.5625 z"
         style="fill:#000000;stroke:none;stroke-opacity:1;paint-order:markers stroke fill;stroke-linecap:round;stroke-linejoin:round;stroke-width:2.64791878;stroke-dasharray:none;fill-opacity:1"
         id="path3412" />
    </g>
  </g>
</svg>
