<?xml version="1.0" encoding="UTF-8" standalone="no"?>
<!-- Created with Inkscape (http://www.inkscape.org/) -->

<svg
   width="145.14413mm"
   height="99.06749mm"
   viewBox="0 0 145.14413 99.06749"
   version="1.1"
   id="svg5"
   xmlns="http://www.w3.org/2000/svg"
   xmlns:svg="http://www.w3.org/2000/svg">
  <defs
     id="defs2">
    <rect
       x="25.068678"
       y="98.882004"
       width="704.70837"
       height="409.45508"
       id="rect236" />
  </defs>
  <g
     id="layer1"
     transform="translate(-27.383613,-27.589914)">
    <g
       aria-label="i am a people
against music
theory

https://pamtofficial.github.io"
       transform="scale(0.26458333)"
       id="text234"
       style="font-size:40px;line-height:1.25;white-space:pre;shape-inside:url(#rect236)">
      <path
         d="m 167.62327,116.78205 q -1.75,0 -3.02604,-1.23958 -1.27604,-1.23959 -1.27604,-2.98959 0,-1.75 1.27604,-2.98958 1.27604,-1.23959 3.02604,-1.23959 1.75,0 2.98959,1.23959 1.27604,1.23958 1.27604,2.98958 0,1.75 -1.27604,2.98959 -1.23959,1.23958 -2.98959,1.23958 z m 1.64063,29.60418 q 0,2.1875 0.10937,6.56251 0.14584,4.33854 0.14584,6.52604 0,1.60417 -0.98438,2.625 -0.98437,1.02084 -2.58854,1.02084 -1.56771,0 -2.58854,-1.02084 -0.98438,-1.02083 -0.98438,-2.625 0,-2.1875 -0.14583,-6.52604 -0.10938,-4.37501 -0.10938,-6.56251 0,-3.42708 0.36458,-8.53125 0.36459,-5.14063 0.36459,-8.56771 0,-1.64063 0.98437,-2.66146 1.02084,-1.02084 2.58855,-1.02084 1.56771,0 2.55208,1.02084 1.02084,1.02083 1.02084,2.66146 0,3.42708 -0.36459,8.56771 -0.36458,5.10417 -0.36458,8.53125 z"
         style="font-size:74.6667px"
         id="path406" />
      <path
         d="m 232.3733,165.34458 q -0.6927,0 -2.51562,-1.60417 -1.64063,-1.49479 -2.44271,-2.66146 -3.5,1.89583 -6.16146,2.84375 -2.66146,0.98437 -4.44792,0.98437 -8.53126,0 -12.4323,-4.8125 -3.68229,-4.52083 -3.68229,-13.85417 0,-8.82292 6.05208,-15.09376 6.08855,-6.27083 14.51043,-6.27083 3.17187,0 7.10938,1.64062 4.95833,2.04167 4.95833,4.92188 0,0.98437 -0.72917,1.75 -0.36458,1.38542 -0.58333,4.55729 -0.18229,3.17188 -0.21875,8.13022 -0.0365,4.52083 0.61979,7.14583 0.36459,1.60417 2.29688,6.41667 0.25521,0.65625 0.83854,1.93229 l 0.21875,0.6198 q 0,1.45833 -1.02083,2.40625 -1.02084,0.94792 -2.3698,0.94792 z m -7.58333,-25.33856 q 0,-1.56771 0.18229,-3.39063 0.21875,-1.85937 0.61979,-3.9375 -1.34896,-0.69271 -2.33333,-1.02083 -0.94792,-0.32813 -1.53125,-0.32813 -5.65105,0 -9.77084,4.63021 -4.08334,4.59376 -4.08334,10.60938 0,5.97917 2.11459,8.96876 2.11458,2.98958 6.34375,2.98958 3.5,0 5.94271,-1.27604 1.3125,-0.69271 3.68229,-2.77083 -1.16666,-9.66147 -1.16666,-14.47397 z"
         style="font-size:74.6667px"
         id="path408" />
      <path
         d="m 288.40979,165.96437 q -2.98959,0 -3.50001,-3.17188 -0.65625,-4.01042 -1.3125,-11.30209 l -1.23958,-11.30209 q -0.36458,-2.51562 -1.23959,-4.92187 -1.23958,-3.28126 -2.69791,-3.28126 -1.34896,0 -5.03126,2.29688 -3.5,2.11458 -4.59375,3.39063 -0.0365,3.42708 0.18229,6.85417 l 1.09375,9.73438 q 0.69271,5.76042 0.69271,9.51563 0,1.60416 -1.02083,2.625 -0.98438,1.05729 -2.55209,1.05729 -1.5677,0 -2.58854,-1.05729 -0.98437,-1.02084 -0.98437,-2.625 0,-4.41146 -0.91146,-13.01564 -0.875,-8.64062 -0.875,-13.05208 0,-3.86459 -1.09375,-6.01563 -2.55209,1.16666 -5.17709,3.79167 l -4.30208,4.8125 q -0.58334,0.875 -1.85938,2.29687 0,2.18751 -0.40104,6.45313 -0.40104,4.26563 -0.40104,6.3073 0,1.09375 0.32812,3.0625 0.36458,1.96875 0.36458,2.84375 0,1.49479 -1.1302,2.51563 -1.09375,1.02083 -2.58855,1.02083 -4.11979,0 -4.11979,-9.3698 0,-2.1875 0.40104,-6.52604 0.40104,-4.33854 0.40104,-6.52605 0,-1.93229 -0.36458,-5.79687 -0.32813,-3.86459 -0.32813,-5.83334 0,-8.27605 3.71876,-8.27605 1.42187,0 2.58854,1.23959 1.20312,1.23958 1.20312,2.69792 0,0.69271 -0.18229,2.15104 -0.18229,1.45833 -0.18229,2.22396 l 0.0729,3.82813 q 1.89583,-3.90105 5.57813,-7.03647 3.68229,-3.17187 6.27083,-3.17187 5.72396,0 7.87501,5.6875 2.0052,-2.66146 4.77604,-3.97396 2.77083,-1.34896 6.34375,-1.34896 6.08855,0 8.31251,6.5625 0.4375,1.3125 1.49479,10.2448 1.02083,6.27084 2.625,20.89064 0.10938,1.45833 -0.98438,2.47916 -1.09375,1.02084 -2.66145,1.02084 z"
         style="font-size:74.6667px"
         id="path410" />
      <path
         d="m 350.8994,165.34458 q -0.69271,0 -2.51563,-1.60417 -1.64062,-1.49479 -2.44271,-2.66146 -3.5,1.89583 -6.16146,2.84375 -2.66146,0.98437 -4.44792,0.98437 -8.53125,0 -12.43229,-4.8125 -3.6823,-4.52083 -3.6823,-13.85417 0,-8.82292 6.05209,-15.09376 6.08854,-6.27083 14.51042,-6.27083 3.17188,0 7.10938,1.64062 4.95834,2.04167 4.95834,4.92188 0,0.98437 -0.72917,1.75 -0.36458,1.38542 -0.58333,4.55729 -0.18229,3.17188 -0.21875,8.13022 -0.0365,4.52083 0.61979,7.14583 0.36458,1.60417 2.29688,6.41667 0.2552,0.65625 0.83854,1.93229 l 0.21875,0.6198 q 0,1.45833 -1.02084,2.40625 -1.02083,0.94792 -2.36979,0.94792 z m -7.58334,-25.33856 q 0,-1.56771 0.1823,-3.39063 0.21875,-1.85937 0.61979,-3.9375 -1.34896,-0.69271 -2.33334,-1.02083 -0.94791,-0.32813 -1.53125,-0.32813 -5.65104,0 -9.77084,4.63021 -4.08333,4.59376 -4.08333,10.60938 0,5.97917 2.11458,8.96876 2.11459,2.98958 6.34376,2.98958 3.5,0 5.94271,-1.27604 1.3125,-0.69271 3.68229,-2.77083 -1.16667,-9.66147 -1.16667,-14.47397 z"
         style="font-size:74.6667px"
         id="path412" />
      <path
         d="m 398.44109,164.21437 q -3.64584,0 -8.02084,-1.16667 l -0.0729,17.42709 q 0,1.60417 -1.02083,2.625 -0.98438,1.02084 -2.55209,1.02084 -1.5677,0 -2.58854,-1.02084 -0.98437,-1.02083 -0.98437,-2.625 l 0.10937,-14.58334 v -14.54688 q -0.10937,-7.98438 -0.54687,-14.54688 l -0.54688,-7.40105 q 0,-2.58854 0.94792,-4.375 1.09375,-2.15104 3.17187,-2.15104 1.42188,0 2.3698,1.02083 0.98437,0.98438 0.98437,2.44271 0,0.32813 -0.10937,1.20313 -0.18229,1.1302 -0.25521,2.07812 3.13542,-2.15104 6.05209,-3.20833 2.91666,-1.09375 5.57812,-1.09375 7.47396,0 10.93751,6.63542 2.73437,5.25 2.73437,13.89063 0,7.875 -4.22916,12.97917 -4.48438,5.39584 -11.95834,5.39584 z m 2.51562,-31.60939 q -3.35417,0 -6.05208,1.49479 -1.9323,1.05729 -4.88542,3.86458 0.47396,8.27605 0.47396,17.39064 3.97396,1.53125 7.94792,1.53125 4.55729,0 6.96354,-3.39063 2.07813,-2.95313 2.07813,-7.65625 0,-6.63542 -1.64063,-9.91667 -1.60417,-3.31771 -4.88542,-3.31771 z"
         style="font-size:74.6667px"
         id="path414" />
      <path
         d="m 439.89424,164.61541 q -8.23958,0 -13.34375,-4.1198 -5.57813,-4.55729 -5.57813,-12.76042 0,-9.47917 4.59375,-15.89584 4.99479,-7 13.34376,-7 6.05208,0 9.88021,2.04167 4.70313,2.51562 4.70313,7.72917 0,3.64583 -4.1198,6.63542 -1.82291,1.3125 -7.72917,4.08333 l -13.92709,6.59896 q 2.04167,3.02605 5.06771,4.5573 3.06251,1.53125 7.10938,1.53125 2.51563,0 5.90626,-0.94792 4.30208,-1.20313 5.54166,-3.13542 1.23959,-1.96875 2.66146,-1.96875 1.27605,0 2.26042,0.98438 1.02084,0.94791 1.02084,2.22396 0,4.04687 -6.52605,6.96354 -5.57813,2.47917 -10.86459,2.47917 z m -0.98437,-33.21356 q -4.44792,0 -7.40105,3.46354 -2.95312,3.42709 -4.41146,10.35418 l 11.19272,-5.32292 q 6.59896,-3.20834 9.40625,-5.57813 -3.13542,-2.91667 -8.78646,-2.91667 z"
         style="font-size:74.6667px"
         id="path416" />
      <path
         d="m 477.44635,165.08937 q -6.125,0 -10.53646,-4.52084 -4.92188,-5.03125 -5.17708,-13.52605 -0.21875,-8.23958 4.15625,-14.51042 5.10417,-7.40105 14.21875,-7.40105 7.29167,0 11.04688,6.67188 2.98959,5.39584 2.88021,12.97918 -0.10937,8.09375 -4.22916,13.81771 -4.66667,6.48959 -12.35939,6.48959 z m 2.18751,-32.55731 q -5.35938,-0.0365 -8.34897,5.10417 -2.36979,4.11979 -2.36979,9.40625 0,5.28646 2.88021,8.23959 2.40625,2.44271 5.65104,2.44271 3.79167,0 6.52605,-2.77083 3.09896,-3.06251 3.28125,-8.27605 0.51042,-14.10938 -7.61979,-14.14584 z"
         style="font-size:74.6667px"
         id="path418" />
      <path
         d="m 518.5349,164.21437 q -3.64584,0 -8.02084,-1.16667 l -0.0729,17.42709 q 0,1.60417 -1.02083,2.625 -0.98438,1.02084 -2.55208,1.02084 -1.56771,0 -2.58855,-1.02084 -0.98437,-1.02083 -0.98437,-2.625 l 0.10937,-14.58334 v -14.54688 q -0.10937,-7.98438 -0.54687,-14.54688 l -0.54688,-7.40105 q 0,-2.58854 0.94792,-4.375 1.09375,-2.15104 3.17188,-2.15104 1.42187,0 2.36979,1.02083 0.98437,0.98438 0.98437,2.44271 0,0.32813 -0.10937,1.20313 -0.18229,1.1302 -0.25521,2.07812 3.13542,-2.15104 6.05209,-3.20833 2.91666,-1.09375 5.57812,-1.09375 7.47397,0 10.93751,6.63542 2.73438,5.25 2.73438,13.89063 0,7.875 -4.22917,12.97917 -4.48438,5.39584 -11.95834,5.39584 z m 2.51562,-31.60939 q -3.35416,0 -6.05208,1.49479 -1.9323,1.05729 -4.88542,3.86458 0.47396,8.27605 0.47396,17.39064 3.97396,1.53125 7.94792,1.53125 4.55729,0 6.96354,-3.39063 2.07813,-2.95313 2.07813,-7.65625 0,-6.63542 -1.64063,-9.91667 -1.60416,-3.31771 -4.88542,-3.31771 z"
         style="font-size:74.6667px"
         id="path420" />
      <path
         d="m 552.22243,134.28206 -0.54688,18.1198 q 0,2.88021 -0.29167,8.45834 -0.36458,3.64583 -3.57292,3.64583 -3.57291,0 -3.57291,-3.71875 0,-4.41146 0.40104,-13.23438 0.40104,-8.85938 0.40104,-13.27084 0,-5.76042 0.18229,-13.16146 0.18229,-7.43751 0.18229,-13.19793 0,-3.64583 3.57292,-3.64583 3.60938,0 3.60938,3.64583 0,5.76042 -0.18229,13.19793 -0.18229,7.40104 -0.18229,13.16146 z"
         style="font-size:74.6667px"
         id="path422" />
      <path
         d="m 580.44118,164.61541 q -8.23959,0 -13.34376,-4.1198 -5.57813,-4.55729 -5.57813,-12.76042 0,-9.47917 4.59376,-15.89584 4.99479,-7 13.34375,-7 6.05209,0 9.88022,2.04167 4.70312,2.51562 4.70312,7.72917 0,3.64583 -4.11979,6.63542 -1.82292,1.3125 -7.72917,4.08333 l -13.92709,6.59896 q 2.04167,3.02605 5.06771,4.5573 3.0625,1.53125 7.10938,1.53125 2.51562,0 5.90625,-0.94792 4.30209,-1.20313 5.54167,-3.13542 1.23958,-1.96875 2.66146,-1.96875 1.27604,0 2.26042,0.98438 1.02083,0.94791 1.02083,2.22396 0,4.04687 -6.52604,6.96354 -5.57813,2.47917 -10.86459,2.47917 z m -0.98438,-33.21356 q -4.44792,0 -7.40104,3.46354 -2.95313,3.42709 -4.41146,10.35418 l 11.19271,-5.32292 q 6.59896,-3.20834 9.40626,-5.57813 -3.13542,-2.91667 -8.78647,-2.91667 z"
         style="font-size:74.6667px"
         id="path424" />
      <path
         d="m 179.78213,258.67795 q -0.69271,0 -2.51562,-1.60417 -1.64063,-1.49479 -2.44271,-2.66146 -3.50001,1.89584 -6.16146,2.84375 -2.66146,0.98438 -4.44792,0.98438 -8.53126,0 -12.4323,-4.8125 -3.68229,-4.52084 -3.68229,-13.85418 0,-8.82292 6.05208,-15.09375 6.08855,-6.27084 14.51043,-6.27084 3.17187,0 7.10937,1.64063 4.95834,2.04166 4.95834,4.92187 0,0.98438 -0.72917,1.75 -0.36458,1.38542 -0.58333,4.5573 -0.18229,3.17187 -0.21875,8.13021 -0.0365,4.52084 0.61979,7.14584 0.36458,1.60416 2.29688,6.41667 0.25521,0.65625 0.83854,1.93229 l 0.21875,0.61979 q 0,1.45833 -1.02083,2.40625 -1.02084,0.94792 -2.3698,0.94792 z M 172.1988,233.3394 q 0,-1.56771 0.18229,-3.39063 0.21875,-1.85938 0.61979,-3.9375 -1.34896,-0.69271 -2.33334,-1.02084 -0.94791,-0.32812 -1.53125,-0.32812 -5.65104,0 -9.77083,4.63021 -4.08334,4.59375 -4.08334,10.60938 0,5.97917 2.11458,8.96875 2.11459,2.98959 6.34376,2.98959 3.5,0 5.94271,-1.27604 1.3125,-0.69271 3.68229,-2.77084 -1.16666,-9.66146 -1.16666,-14.47396 z"
         style="font-size:74.6667px"
         id="path426" />
      <path
         d="m 219.52173,240.55815 -0.83854,12.25 q -0.21875,7.29167 -1.49479,11.92189 -1.64063,5.90625 -5.25,8.71354 -4.375,3.39063 -12.65105,3.39063 -4.84896,0 -8.13021,-0.65625 -4.59375,-0.91146 -4.59375,-3.79167 0,-3.24479 3.17187,-3.24479 1.3125,0 4.375,0.61979 3.06251,0.65625 6.78126,0.58333 7,-0.10937 9.66146,-6.78125 1.75,-4.44792 1.85938,-13.67188 -1.96876,3.64583 -4.70313,5.46875 -2.69792,1.82292 -6.19792,1.82292 -6.59896,0 -10.75521,-4.48438 -4.1198,-4.52084 -4.1198,-11.70313 0,-9.84376 5.65105,-15.85938 5.83333,-6.19792 15.89584,-6.19792 3.39062,0 5.6875,0.875 2.29688,0.875 3.5,2.625 3.90105,0.10937 3.90105,4.33854 0,2.58855 -0.76563,6.92709 -0.83854,5.03125 -0.98438,6.85417 z M 207.8186,224.77168 q -6.92708,0 -10.71875,4.77605 -3.39063,4.30208 -3.39063,10.9375 0,5.28646 2.00521,7.94792 2.00521,2.66146 6.01563,2.66146 3.68229,0 7.14584,-4.15625 3.13541,-3.82813 3.57291,-7.58334 0.76563,-3.9375 1.64063,-12.35938 -1.45833,-1.13021 -3.02604,-1.67708 -1.56771,-0.54688 -3.2448,-0.54688 z"
         style="font-size:74.6667px"
         id="path428" />
      <path
         d="m 257.62071,258.67795 q -0.69271,0 -2.51563,-1.60417 -1.64062,-1.49479 -2.44271,-2.66146 -3.5,1.89584 -6.16146,2.84375 -2.66146,0.98438 -4.44792,0.98438 -8.53125,0 -12.43229,-4.8125 -3.6823,-4.52084 -3.6823,-13.85418 0,-8.82292 6.05209,-15.09375 6.08854,-6.27084 14.51042,-6.27084 3.17188,0 7.10938,1.64063 4.95834,2.04166 4.95834,4.92187 0,0.98438 -0.72917,1.75 -0.36458,1.38542 -0.58333,4.5573 -0.1823,3.17187 -0.21875,8.13021 -0.0365,4.52084 0.61979,7.14584 0.36458,1.60416 2.29687,6.41667 0.25521,0.65625 0.83855,1.93229 l 0.21875,0.61979 q 0,1.45833 -1.02084,2.40625 -1.02083,0.94792 -2.36979,0.94792 z m -7.58334,-25.33855 q 0,-1.56771 0.18229,-3.39063 0.21875,-1.85938 0.6198,-3.9375 -1.34896,-0.69271 -2.33334,-1.02084 -0.94792,-0.32812 -1.53125,-0.32812 -5.65104,0 -9.77084,4.63021 -4.08333,4.59375 -4.08333,10.60938 0,5.97917 2.11458,8.96875 2.11459,2.98959 6.34376,2.98959 3.5,0 5.94271,-1.27604 1.3125,-0.69271 3.68229,-2.77084 -1.16667,-9.66146 -1.16667,-14.47396 z"
         style="font-size:74.6667px"
         id="path430" />
      <path
         d="m 274.31863,210.11543 q -1.75,0 -3.02604,-1.23959 -1.27604,-1.23958 -1.27604,-2.98958 0,-1.75 1.27604,-2.98959 1.27604,-1.23958 3.02604,-1.23958 1.75,0 2.98959,1.23958 1.27604,1.23959 1.27604,2.98959 0,1.75 -1.27604,2.98958 -1.23959,1.23959 -2.98959,1.23959 z m 1.64063,29.60418 q 0,2.1875 0.10937,6.5625 0.14584,4.33854 0.14584,6.52604 0,1.60417 -0.98438,2.62501 -0.98437,1.02083 -2.58854,1.02083 -1.56771,0 -2.58854,-1.02083 -0.98438,-1.02084 -0.98438,-2.62501 0,-2.1875 -0.14583,-6.52604 -0.10938,-4.375 -0.10938,-6.5625 0,-3.42709 0.36459,-8.53126 0.36458,-5.14062 0.36458,-8.56771 0,-1.64063 0.98438,-2.66146 1.02083,-1.02083 2.58854,-1.02083 1.56771,0 2.55208,1.02083 1.02084,1.02083 1.02084,2.66146 0,3.42709 -0.36459,8.56771 -0.36458,5.10417 -0.36458,8.53126 z"
         style="font-size:74.6667px"
         id="path432" />
      <path
         d="m 316.24574,258.86024 q -3.13541,0 -3.53646,-3.42708 l -1.02083,-7.98438 q -0.51042,-4.26563 -0.51042,-7.98438 0,-1.02084 0.10938,-3.46354 0.14583,-2.44271 0.14583,-3.46355 0,-7.875 -2.91667,-7.875 -4.08333,0 -7.80208,4.84896 -3.35417,4.41146 -5.25,11.15625 -0.0729,1.42188 -0.32813,3.57292 -0.21875,1.82292 -0.21875,3.53646 0,1.09375 0.21875,3.28125 0.21875,2.1875 0.21875,3.28126 0,1.64062 -1.02083,2.66146 -0.98438,1.02083 -2.55209,1.02083 -1.60417,0 -2.58854,-1.02083 -0.98438,-1.02084 -0.98438,-2.66146 0,-1.09376 -0.25521,-3.28126 -0.21875,-2.1875 -0.21875,-3.28125 0,-3.75521 0.51042,-10.39063 0.54688,-6.67188 0.54688,-10.42709 0,-1.16666 -0.14584,-3.46354 -0.10937,-2.29688 -0.10937,-3.46354 0,-1.56771 1.02083,-2.55209 1.05729,-1.02083 2.58855,-1.02083 3.35416,0 3.68229,4.73958 l 0.10937,4.26563 q 6.12501,-8.16667 12.57813,-8.16667 5.83334,0 8.13022,5.14063 1.56771,3.42708 1.71354,10.13542 v 3.68229 l -0.0365,3.39063 q 0,3.02604 0.76563,7.83855 0.80208,4.77604 0.80208,7.76562 0,1.60417 -1.05729,2.58855 -1.02084,1.02083 -2.58855,1.02083 z"
         style="font-size:74.6667px"
         id="path434" />
      <path
         d="m 351.97492,228.19877 q -2.00521,0 -2.80729,-1.34896 -0.54688,-0.94792 -0.94792,-3.9375 -2.73438,0.69271 -8.42188,2.55208 -5.86979,2.33334 -5.90625,5.76042 1.09375,0.40104 2.15104,0.58333 8.38542,1.4948 12.46876,4.1198 5.94271,3.82813 5.94271,11.08334 0,5.94271 -5.14063,8.96875 -4.26563,2.47917 -10.79167,2.47917 -4.77605,0 -9.11459,-1.60417 -5.61458,-2.04167 -5.61458,-5.6875 0,-1.45834 1.1302,-2.55209 1.16667,-1.09375 2.62501,-1.09375 1.1302,0 2.91666,1.75 0.875,0.83855 3.93751,1.38542 2.4427,0.4375 4.11979,0.4375 3.0625,0 5.39583,-0.72916 3.39063,-1.0573 3.39063,-3.35417 0,-4.95834 -6.92709,-6.70834 l -3.79166,-0.83854 q -4.84896,-1.05729 -6.89063,-2.47917 -2.95313,-2.04167 -2.95313,-6.16146 0,-7.6198 7.1823,-10.86459 2.1875,-0.98437 7,-2.33333 4.8125,-1.38542 6.89063,-2.33334 1.49479,-0.65625 3.24479,-0.65625 1.56771,0 2.55209,1.02084 1.02083,1.02083 1.02083,2.66145 0,1.0573 0.4375,3.09896 0.47396,2.04167 0.47396,3.09896 0,1.64063 -1.02084,2.66146 -0.98437,1.02084 -2.55208,1.02084 z"
         style="font-size:74.6667px"
         id="path436" />
      <path
         d="m 388.10514,225.20918 q -0.76563,0 -1.82292,-0.0729 -1.02083,-0.0729 -1.78646,-0.0729 -0.83854,0 -4.95833,0.54688 l 0.6927,21.54688 0.0365,1.60417 0.0365,1.85937 q 0.14583,7.98438 -3.82813,7.98438 -1.45833,0 -2.55208,-0.94791 -1.05729,-0.94792 -1.05729,-2.3698 0,-1.38541 0.10937,-4.15625 0.10938,-2.77083 0.10938,-4.15625 l -0.72917,-21.29168 q -2.66146,-0.10937 -8.09375,-0.61979 -3.2448,-0.4375 -3.2448,-3.60938 0,-1.60416 0.98438,-2.66146 0.98437,-1.05729 2.51563,-1.05729 l 7.65625,0.61979 q 0,-1.85937 -0.18229,-4.95833 -0.14584,-3.13542 -0.14584,-4.52084 0,-1.53125 1.0573,-2.51562 1.05729,-1.02084 2.58854,-1.02084 3.28125,0 3.82813,5.35938 0.10937,1.34896 0.10937,3.24479 l -0.0729,2.11459 -0.0365,2.26041 q 4.52083,-0.58333 5.17708,-0.58333 3.79167,0 4.95834,0.36458 2.22396,0.72917 2.22396,3.42709 0,1.60417 -1.02084,2.66146 -0.98437,1.02083 -2.55208,1.02083 z"
         style="font-size:74.6667px"
         id="path438" />
      <path
         d="m 467.51145,259.29774 q -2.98958,0 -3.5,-3.17188 -0.65625,-4.01041 -1.3125,-11.30208 l -1.23959,-11.30209 q -0.36458,-2.51563 -1.23958,-4.92188 -1.23958,-3.28125 -2.69792,-3.28125 -1.34896,0 -5.03125,2.29687 -3.5,2.11459 -4.59375,3.39063 -0.0365,3.42709 0.18229,6.85417 l 1.09375,9.73438 q 0.69271,5.76042 0.69271,9.51563 0,1.60417 -1.02084,2.625 -0.98437,1.05729 -2.55208,1.05729 -1.56771,0 -2.58854,-1.05729 -0.98438,-1.02083 -0.98438,-2.625 0,-4.41146 -0.91146,-13.01563 -0.875,-8.64063 -0.875,-13.05209 0,-3.86459 -1.09375,-6.01563 -2.55208,1.16667 -5.17708,3.79167 l -4.30209,4.8125 q -0.58333,0.875 -1.85938,2.29688 0,2.1875 -0.40104,6.45313 -0.40104,4.26562 -0.40104,6.30729 0,1.09375 0.32813,3.0625 0.36458,1.96875 0.36458,2.84375 0,1.4948 -1.13021,2.51563 -1.09375,1.02083 -2.58854,1.02083 -4.1198,0 -4.1198,-9.36979 0,-2.1875 0.40105,-6.52605 0.40104,-4.33854 0.40104,-6.52604 0,-1.93229 -0.36459,-5.79688 -0.32812,-3.86458 -0.32812,-5.83334 0,-8.27604 3.71875,-8.27604 1.42188,0 2.58854,1.23958 1.20313,1.23959 1.20313,2.69792 0,0.69271 -0.18229,2.15104 -0.18229,1.45834 -0.18229,2.22396 l 0.0729,3.82813 q 1.89584,-3.90104 5.57813,-7.03646 3.68229,-3.17188 6.27084,-3.17188 5.72396,0 7.875,5.6875 2.00521,-2.66146 4.77604,-3.97396 2.77084,-1.34896 6.34376,-1.34896 6.08854,0 8.3125,6.56251 0.4375,1.3125 1.49479,10.24479 1.02084,6.27084 2.625,20.89064 0.10938,1.45833 -0.98437,2.47917 -1.09375,1.02083 -2.66146,1.02083 z"
         style="font-size:74.6667px"
         id="path440" />
      <path
         d="m 508.96458,234.98002 q 0,2.625 0.0365,7.875 0.0365,5.25001 0.0365,7.87501 0,0.80208 0.10938,2.44271 0.14583,1.64062 0.14583,2.44271 0,1.56771 -1.05729,2.55208 -1.05729,1.02084 -2.58854,1.02084 -2.8073,0 -3.57292,-3.46355 -4.55729,2.3698 -10.50001,2.3698 -4.77604,0 -7.91146,-2.11459 -3.46354,-2.33333 -4.11979,-6.81771 -1.42188,-9.66146 -1.42188,-17.20834 0,-4.9948 1.09375,-11.37501 0.51042,-3.17187 3.46355,-3.17187 1.56771,0 2.625,1.02083 1.05729,0.98438 1.05729,2.55208 0,1.67709 -0.54688,5.35938 -0.51041,3.6823 -0.51041,5.61459 0,6.08854 0.40104,10.42709 0.40104,4.33854 1.20312,6.96354 1.20313,0.65625 2.3698,1.02084 1.16667,0.32812 2.29687,0.32812 4.88542,0 10.31772,-1.56771 l -0.0365,-7.40104 -0.0729,-7.07292 q 0,-7.87501 0.69271,-13.67189 0.40104,-3.35416 3.53646,-3.35416 1.56771,0 2.625,1.02083 1.05729,1.02083 0.98438,2.55208 z"
         style="font-size:74.6667px"
         id="path442" />
      <path
         d="m 542.65211,228.19877 q -2.00521,0 -2.8073,-1.34896 -0.54687,-0.94792 -0.94791,-3.9375 -2.73438,0.69271 -8.42188,2.55208 -5.8698,2.33334 -5.90626,5.76042 1.09375,0.40104 2.15105,0.58333 8.38542,1.4948 12.46875,4.1198 5.94271,3.82813 5.94271,11.08334 0,5.94271 -5.14062,8.96875 -4.26563,2.47917 -10.79168,2.47917 -4.77604,0 -9.11458,-1.60417 -5.61459,-2.04167 -5.61459,-5.6875 0,-1.45834 1.13021,-2.55209 1.16667,-1.09375 2.625,-1.09375 1.13021,0 2.91667,1.75 0.875,0.83855 3.9375,1.38542 2.44271,0.4375 4.11979,0.4375 3.06251,0 5.39584,-0.72916 3.39063,-1.0573 3.39063,-3.35417 0,-4.95834 -6.92709,-6.70834 l -3.79167,-0.83854 q -4.84896,-1.05729 -6.89063,-2.47917 -2.95312,-2.04167 -2.95312,-6.16146 0,-7.6198 7.18229,-10.86459 2.1875,-0.98437 7,-2.33333 4.81251,-1.38542 6.89063,-2.33334 1.4948,-0.65625 3.2448,-0.65625 1.56771,0 2.55208,1.02084 1.02083,1.02083 1.02083,2.66145 0,1.0573 0.43751,3.09896 0.47395,2.04167 0.47395,3.09896 0,1.64063 -1.02083,2.66146 -0.98438,1.02084 -2.55208,1.02084 z"
         style="font-size:74.6667px"
         id="path444" />
      <path
         d="m 561.35523,210.11543 q -1.75,0 -3.02604,-1.23959 -1.27604,-1.23958 -1.27604,-2.98958 0,-1.75 1.27604,-2.98959 1.27604,-1.23958 3.02604,-1.23958 1.75,0 2.98959,1.23958 1.27604,1.23959 1.27604,2.98959 0,1.75 -1.27604,2.98958 -1.23959,1.23959 -2.98959,1.23959 z m 1.64063,29.60418 q 0,2.1875 0.10937,6.5625 0.14584,4.33854 0.14584,6.52604 0,1.60417 -0.98438,2.62501 -0.98437,1.02083 -2.58854,1.02083 -1.56771,0 -2.58855,-1.02083 -0.98437,-1.02084 -0.98437,-2.62501 0,-2.1875 -0.14583,-6.52604 -0.10938,-4.375 -0.10938,-6.5625 0,-3.42709 0.36458,-8.53126 0.36459,-5.14062 0.36459,-8.56771 0,-1.64063 0.98437,-2.66146 1.02084,-1.02083 2.58855,-1.02083 1.56771,0 2.55208,1.02083 1.02083,1.02083 1.02083,2.66146 0,3.42709 -0.36458,8.56771 -0.36458,5.10417 -0.36458,8.53126 z"
         style="font-size:74.6667px"
         id="path446" />
      <path
         d="m 591.79796,258.56857 q -7.47397,0 -12.46876,-4.52083 -5.25,-4.73959 -5.25,-12.50522 0,-7.40104 4.92187,-15.27604 5.46876,-8.75001 12.32293,-8.75001 3.57291,0 7.98438,1.67709 5.57812,2.15104 5.57812,5.25 0,1.38542 -0.91146,2.47917 -0.91145,1.05729 -2.26041,1.05729 -1.0573,0 -1.85938,-0.61979 -0.76562,-0.65625 -1.49479,-1.27605 -2.15104,-1.71354 -7.03646,-1.71354 -3.71876,0 -7.36459,6.63542 -3.31771,6.08855 -3.31771,10.53646 0,4.81251 3.28125,7.58334 3.0625,2.58854 7.87501,2.58854 2.1875,0 4.66666,-1.16666 l 4.22917,-2.26042 q 1.09375,-0.58333 1.56771,-0.58333 1.34896,0 2.33334,1.09375 0.98437,1.05729 0.98437,2.44271 0,2.66146 -5.61458,5.14062 -4.92188,2.1875 -8.16667,2.1875 z"
         style="font-size:74.6667px"
         id="path448" />
      <path
         d="m 290.26916,318.54256 q -0.76562,0 -1.82291,-0.0729 -1.02084,-0.0729 -1.78646,-0.0729 -0.83854,0 -4.95834,0.54688 l 0.69271,21.54688 0.0365,1.60417 0.0365,1.85938 q 0.14583,7.98438 -3.82813,7.98438 -1.45833,0 -2.55208,-0.94792 -1.0573,-0.94792 -1.0573,-2.36979 0,-1.38542 0.10938,-4.15626 0.10937,-2.77083 0.10937,-4.15625 l -0.72916,-21.29167 q -2.66146,-0.10938 -8.09376,-0.6198 -3.24479,-0.4375 -3.24479,-3.60937 0,-1.60417 0.98438,-2.66146 0.98437,-1.05729 2.51562,-1.05729 l 7.65625,0.61979 q 0,-1.85938 -0.18229,-4.95834 -0.14583,-3.13542 -0.14583,-4.52083 0,-1.53125 1.05729,-2.51563 1.05729,-1.02083 2.58854,-1.02083 3.28126,0 3.82813,5.35937 0.10938,1.34896 0.10938,3.2448 l -0.0729,2.11458 -0.0365,2.26042 q 4.52084,-0.58333 5.17709,-0.58333 3.79167,0 4.95833,0.36458 2.22396,0.72917 2.22396,3.42708 0,1.60417 -1.02083,2.66146 -0.98438,1.02084 -2.55209,1.02084 z"
         style="font-size:74.6667px"
         id="path450" />
      <path
         d="m 331.57648,351.86549 q -2.58855,0 -3.39063,-2.77083 -0.83854,-2.98959 -1.53125,-8.4948 -0.65625,-5.28646 -0.65625,-8.67709 0,-0.94792 0.0729,-2.88021 0.10938,-1.93229 0.10938,-2.88021 0,-6.85417 -3.42709,-6.85417 -4.63021,0 -8.27604,4.19271 -1.85938,2.15105 -5.10417,8.20313 0,13.89063 -1.16667,16.44272 -1.02083,2.26042 -3.17187,2.26042 -1.4948,0 -2.62501,-1.02084 -1.1302,-1.02083 -1.1302,-2.47917 0,-0.51041 0.32812,-1.60416 0.29167,-0.91146 0.40104,-5.32292 l 0.10938,-5.39584 0.10937,-26.79689 q 0.25521,-4.52083 0.25521,-6.08854 0,-1.85938 -0.36458,-3.5 -0.32813,-1.67709 -0.32813,-3.46355 0,-1.53125 1.05729,-2.51562 1.0573,-1.02084 2.58855,-1.02084 2.98958,0 3.5,3.20834 0.58333,3.53646 0.58333,6.38021 0,3.82813 -0.25521,7.98438 -0.21875,3.97396 -0.18229,7.98438 l 0.0365,3.20833 q 2.98959,-4.01042 6.38021,-5.97917 3.42709,-2.00521 7.25521,-2.00521 6.05209,0 8.31251,3.93751 1.60417,2.77083 1.82292,9.33333 l 0.29166,6.96355 0.72917,7.58334 q 0.51042,4.26562 1.23958,7.51042 0.14584,0.61979 0.14584,1.05729 0,1.49479 -1.09375,2.47917 -1.09375,1.02083 -2.625,1.02083 z"
         style="font-size:74.6667px"
         id="path452" />
      <path
         d="m 361.21712,351.28216 q -8.23959,0 -13.34376,-4.1198 -5.57813,-4.55729 -5.57813,-12.76042 0,-9.47917 4.59375,-15.89584 4.9948,-7 13.34376,-7 6.05209,0 9.88021,2.04166 4.70313,2.51563 4.70313,7.72917 0,3.64584 -4.11979,6.63542 -1.82292,1.3125 -7.72917,4.08334 l -13.92709,6.59896 q 2.04166,3.02604 5.06771,4.55729 3.0625,1.53125 7.10938,1.53125 2.51562,0 5.90625,-0.94791 4.30208,-1.20313 5.54167,-3.13542 1.23958,-1.96875 2.66146,-1.96875 1.27604,0 2.26041,0.98437 1.02084,0.94792 1.02084,2.22396 0,4.04688 -6.52605,6.96355 -5.57812,2.47917 -10.86458,2.47917 z m -0.98438,-33.21356 q -4.44792,0 -7.40105,3.46354 -2.95312,3.42709 -4.41146,10.35417 l 11.19272,-5.32292 q 6.59896,-3.20833 9.40625,-5.57812 -3.13542,-2.91667 -8.78646,-2.91667 z"
         style="font-size:74.6667px"
         id="path454" />
      <path
         d="m 398.76922,351.75611 q -6.125,0 -10.53646,-4.52083 -4.92188,-5.03125 -5.17709,-13.52605 -0.21875,-8.23959 4.15625,-14.51042 5.10417,-7.40105 14.21876,-7.40105 7.29167,0 11.04688,6.67188 2.98958,5.39584 2.88021,12.97917 -0.10938,8.09376 -4.22917,13.81772 -4.66667,6.48958 -12.35938,6.48958 z m 2.1875,-32.5573 q -5.35938,-0.0365 -8.34896,5.10417 -2.36979,4.11979 -2.36979,9.40625 0,5.28646 2.88021,8.23959 2.40625,2.44271 5.65104,2.44271 3.79167,0 6.52604,-2.77084 3.09896,-3.0625 3.28126,-8.27604 0.51041,-14.10938 -7.6198,-14.14584 z"
         style="font-size:74.6667px"
         id="path456" />
      <path
         d="m 452.72758,322.66235 q -0.25521,4.55729 -3.64584,4.55729 -3.13542,0 -3.13542,-3.60937 0,-0.69271 -0.10937,-2.55209 l -0.10938,-3.0625 q -5.76042,0.69271 -9.22396,3.2448 -3.24479,2.36979 -5.39584,7.14583 l 0.0729,19.97918 q 0,3.68229 -3.60938,3.68229 -3.20833,0 -3.20833,-3.68229 v -25.59376 q 0,-1.20313 0.0729,-3.60938 0.10937,-2.40625 0.10937,-3.60938 0,-3.68229 3.20834,-3.68229 3.57291,0 3.60937,6.05209 7.00001,-6.7448 15.53126,-6.7448 2.95313,0 4.41146,2.22396 1.45833,2.22396 1.45833,6.70834 0,1.89583 -0.0365,2.55208 z"
         style="font-size:74.6667px"
         id="path458" />
      <path
         d="m 492.02968,317.08422 -12.61459,27.27085 q -4.66667,9.95313 -7.14584,16.66147 l -2.40625,7.07292 q -0.94792,2.625 -3.28125,2.625 -1.53125,0 -2.66146,-1.02084 -1.09375,-0.98437 -1.09375,-2.47916 0,-3.64584 7.875,-21.10939 l -13.05209,-25.1198 -1.64062,-2.66146 q -0.98438,-1.67709 -0.98438,-2.8073 0,-1.49479 1.13021,-2.625 1.16667,-1.13021 2.58854,-1.13021 1.67709,0 2.58854,1.27605 6.19792,8.60417 13.3073,24.50001 l 5.39584,-12.57813 q 2.91667,-6.52605 5.61458,-11.22918 1.16667,-2.04166 3.06251,-2.04166 1.49479,0 2.625,1.05729 1.16666,1.05729 1.16666,2.51563 0,0.80208 -0.47395,1.82291 z"
         style="font-size:74.6667px"
         id="path460" />
      <path
         d="m 119.72754,468.56844 q -1.38672,0 -1.81641,-1.48438 -0.44922,-1.60156 -0.82031,-4.55078 -0.35156,-2.83203 -0.35156,-4.64844 0,-0.50781 0.0391,-1.54296 0.0586,-1.03516 0.0586,-1.54297 0,-3.67188 -1.83593,-3.67188 -2.48047,0 -4.4336,2.2461 -0.99609,1.15234 -2.73437,4.39453 0,7.4414 -0.625,8.80859 -0.54688,1.21094 -1.69922,1.21094 -0.80078,0 -1.40625,-0.54688 -0.60547,-0.54687 -0.60547,-1.32812 0,-0.27344 0.17578,-0.85938 0.15625,-0.48828 0.21485,-2.85156 l 0.0586,-2.89062 0.0586,-14.35547 q 0.13672,-2.42188 0.13672,-3.26172 0,-0.9961 -0.19531,-1.875 -0.17578,-0.89844 -0.17578,-1.85547 0,-0.82031 0.5664,-1.34766 0.56641,-0.54687 1.38672,-0.54687 1.60157,0 1.875,1.71875 0.3125,1.89453 0.3125,3.41797 0,2.05078 -0.13672,4.27734 -0.11718,2.12891 -0.0977,4.27734 l 0.0195,1.71875 q 1.60156,-2.14843 3.41797,-3.20312 1.83594,-1.07422 3.88672,-1.07422 3.24218,0 4.45312,2.10938 0.85938,1.48437 0.97656,5 l 0.15625,3.73046 0.39063,4.0625 q 0.27344,2.28516 0.66406,4.02344 0.0781,0.33203 0.0781,0.56641 0,0.80078 -0.58594,1.32812 -0.58594,0.54688 -1.40625,0.54688 z"
         style="font-family:'Comic Sans MS';-inkscape-font-specification:'Comic Sans MS';text-align:center;text-anchor:middle"
         id="path462" />
      <path
         d="m 139.55176,450.71688 q -0.41016,0 -0.97656,-0.0391 -0.54688,-0.0391 -0.95704,-0.0391 -0.44921,0 -2.65625,0.29297 l 0.3711,11.54297 0.0195,0.85937 0.0195,0.9961 q 0.0781,4.27734 -2.05078,4.27734 -0.78125,0 -1.36719,-0.50781 -0.5664,-0.50781 -0.5664,-1.26953 0,-0.74219 0.0586,-2.22657 0.0586,-1.48437 0.0586,-2.22656 l -0.39062,-11.40625 q -1.42578,-0.0586 -4.33594,-0.33203 -1.73828,-0.23437 -1.73828,-1.93359 0,-0.85938 0.52734,-1.42578 0.52735,-0.56641 1.34766,-0.56641 l 4.10156,0.33203 q 0,-0.99609 -0.0977,-2.65625 -0.0781,-1.67969 -0.0781,-2.42187 0,-0.82032 0.56641,-1.34766 0.5664,-0.54688 1.38672,-0.54688 1.75781,0 2.05078,2.8711 0.0586,0.72265 0.0586,1.73828 l -0.0391,1.13281 -0.0195,1.21094 q 2.42187,-0.3125 2.77343,-0.3125 2.03125,0 2.65625,0.19531 1.19141,0.39063 1.19141,1.83594 0,0.85937 -0.54687,1.42578 -0.52735,0.54688 -1.36719,0.54688 z"
         style="font-family:'Comic Sans MS';-inkscape-font-specification:'Comic Sans MS';text-align:center;text-anchor:middle"
         id="path464" />
      <path
         d="m 158.39941,450.71688 q -0.41015,0 -0.97656,-0.0391 -0.54687,-0.0391 -0.95703,-0.0391 -0.44922,0 -2.65625,0.29297 l 0.37109,11.54297 0.0195,0.85937 0.0195,0.9961 q 0.0781,4.27734 -2.05078,4.27734 -0.78125,0 -1.36719,-0.50781 -0.56641,-0.50781 -0.56641,-1.26953 0,-0.74219 0.0586,-2.22657 0.0586,-1.48437 0.0586,-2.22656 l -0.39063,-11.40625 q -1.42578,-0.0586 -4.33593,-0.33203 -1.73828,-0.23437 -1.73828,-1.93359 0,-0.85938 0.52734,-1.42578 0.52734,-0.56641 1.34766,-0.56641 l 4.10156,0.33203 q 0,-0.99609 -0.0977,-2.65625 -0.0781,-1.67969 -0.0781,-2.42187 0,-0.82032 0.5664,-1.34766 0.56641,-0.54688 1.38672,-0.54688 1.75781,0 2.05078,2.8711 0.0586,0.72265 0.0586,1.73828 l -0.0391,1.13281 -0.0195,1.21094 q 2.42188,-0.3125 2.77344,-0.3125 2.03125,0 2.65625,0.19531 1.19141,0.39063 1.19141,1.83594 0,0.85937 -0.54688,1.42578 -0.52734,0.54688 -1.36719,0.54688 z"
         style="font-family:'Comic Sans MS';-inkscape-font-specification:'Comic Sans MS';text-align:center;text-anchor:middle"
         id="path466" />
      <path
         d="m 172.48145,468.04109 q -1.95313,0 -4.29688,-0.625 l -0.0391,9.33594 q 0,0.85938 -0.54688,1.40625 -0.52734,0.54688 -1.36718,0.54688 -0.83985,0 -1.38672,-0.54688 -0.52735,-0.54687 -0.52735,-1.40625 l 0.0586,-7.8125 v -7.79297 q -0.0586,-4.27734 -0.29297,-7.79297 L 163.79,449.38875 q 0,-1.38672 0.50781,-2.34375 0.58594,-1.15234 1.69922,-1.15234 0.76172,0 1.26953,0.54687 0.52735,0.52735 0.52735,1.3086 0,0.17578 -0.0586,0.64453 -0.0977,0.60547 -0.13672,1.11328 1.67969,-1.15235 3.24219,-1.71875 1.5625,-0.58594 2.98828,-0.58594 4.00391,0 5.85938,3.55469 1.46484,2.8125 1.46484,7.4414 0,4.21875 -2.26562,6.95313 -2.40235,2.89062 -6.40625,2.89062 z m 1.34765,-16.93359 q -1.79687,0 -3.24219,0.80078 -1.03515,0.56641 -2.61718,2.07031 0.2539,4.4336 0.2539,9.31641 2.12891,0.82031 4.25782,0.82031 2.4414,0 3.73046,-1.8164 1.11329,-1.58203 1.11329,-4.10157 0,-3.55468 -0.87891,-5.3125 -0.85938,-1.77734 -2.61719,-1.77734 z"
         style="font-family:'Comic Sans MS';-inkscape-font-specification:'Comic Sans MS';text-align:center;text-anchor:middle"
         id="path468" />
      <path
         d="m 198.75098,452.31844 q -1.07422,0 -1.50391,-0.72266 -0.29297,-0.50781 -0.50781,-2.10937 -1.46485,0.37109 -4.51172,1.36718 -3.14453,1.25 -3.16406,3.08594 0.58593,0.21485 1.15234,0.3125 4.49219,0.80078 6.67969,2.20703 3.18359,2.05078 3.18359,5.9375 0,3.1836 -2.7539,4.80469 -2.28516,1.32813 -5.78125,1.32813 -2.5586,0 -4.88282,-0.85938 -3.00781,-1.09375 -3.00781,-3.04687 0,-0.78125 0.60547,-1.36719 0.625,-0.58594 1.40625,-0.58594 0.60547,0 1.5625,0.9375 0.46875,0.44922 2.10937,0.74219 1.3086,0.23437 2.20704,0.23437 1.64062,0 2.89062,-0.39062 1.81641,-0.56641 1.81641,-1.79688 0,-2.65625 -3.71094,-3.59375 l -2.03125,-0.44922 q -2.59766,-0.5664 -3.69141,-1.32812 -1.58203,-1.09375 -1.58203,-3.30078 0,-4.08203 3.84766,-5.82031 1.17187,-0.52735 3.75,-1.25 2.57812,-0.74219 3.6914,-1.25 0.80079,-0.35157 1.73829,-0.35157 0.83984,0 1.36718,0.54688 0.54688,0.54687 0.54688,1.42578 0,0.56641 0.23437,1.66016 0.25391,1.09375 0.25391,1.66015 0,0.87891 -0.54688,1.42578 -0.52734,0.54688 -1.36718,0.54688 z"
         style="font-family:'Comic Sans MS';-inkscape-font-specification:'Comic Sans MS';text-align:center;text-anchor:middle"
         id="path470" />
      <path
         d="m 210.41113,462.94344 q 0,0.8789 -0.5664,1.44531 -0.56641,0.56641 -1.44532,0.56641 -0.8789,0 -1.42578,-0.56641 -0.5664,-0.56641 -0.5664,-1.44531 0,-0.3711 -0.13672,-1.07422 -0.11719,-0.72266 -0.11719,-1.07422 0,-0.82031 0.60547,-1.36719 0.625,-0.54687 1.46484,-0.54687 2.1875,0 2.1875,4.0625 z m -0.33203,-14.25781 q 0,0.8789 -0.5664,1.44531 -0.54688,0.5664 -1.42579,0.5664 -0.8789,0 -1.44531,-0.5664 -0.5664,-0.56641 -0.5664,-1.44531 0,-0.23438 -0.0977,-0.70313 -0.0781,-0.48828 -0.0781,-0.74219 0,-0.83984 0.58594,-1.38672 0.58594,-0.54687 1.44531,-0.54687 2.14844,0 2.14844,3.37891 z"
         style="font-family:'Comic Sans MS';-inkscape-font-specification:'Comic Sans MS';text-align:center;text-anchor:middle"
         id="path472" />
      <path
         d="m 217.73535,469.11531 q -0.72265,0 -1.26953,-0.48828 -0.54687,-0.48828 -0.54687,-1.21094 0,-0.3125 0.13671,-0.66406 1.52344,-4.19922 5.74219,-12.08984 4.21875,-7.91016 5.76172,-12.12891 2.55859,-6.99219 3.86719,-6.93359 0.72265,0.0195 1.26953,0.52734 0.54687,0.48828 0.54687,1.19141 0,0.44922 -0.21484,1.07422 l -2.1875,5.3125 q -1.30859,3.61328 -3.73047,8.33984 l -4.25781,8.08594 -3.53516,7.83203 q -0.52734,1.15234 -1.58203,1.15234 z"
         style="font-family:'Comic Sans MS';-inkscape-font-specification:'Comic Sans MS';text-align:center;text-anchor:middle"
         id="path474" />
      <path
         d="m 238.2041,469.11531 q -0.72265,0 -1.26953,-0.48828 -0.54687,-0.48828 -0.54687,-1.21094 0,-0.3125 0.13671,-0.66406 1.52344,-4.19922 5.74219,-12.08984 4.21875,-7.91016 5.76172,-12.12891 2.55859,-6.99219 3.86719,-6.93359 0.72265,0.0195 1.26953,0.52734 0.54687,0.48828 0.54687,1.19141 0,0.44922 -0.21484,1.07422 l -2.1875,5.3125 q -1.30859,3.61328 -3.73047,8.33984 l -4.25781,8.08594 -3.53516,7.83203 q -0.52734,1.15234 -1.58203,1.15234 z"
         style="font-family:'Comic Sans MS';-inkscape-font-specification:'Comic Sans MS';text-align:center;text-anchor:middle"
         id="path476" />
      <path
         d="m 266.23145,468.04109 q -1.95313,0 -4.29688,-0.625 l -0.0391,9.33594 q 0,0.85938 -0.54688,1.40625 -0.52734,0.54688 -1.36718,0.54688 -0.83985,0 -1.38672,-0.54688 -0.52735,-0.54687 -0.52735,-1.40625 l 0.0586,-7.8125 v -7.79297 q -0.0586,-4.27734 -0.29297,-7.79297 L 257.54,449.38875 q 0,-1.38672 0.50781,-2.34375 0.58594,-1.15234 1.69922,-1.15234 0.76172,0 1.26953,0.54687 0.52735,0.52735 0.52735,1.3086 0,0.17578 -0.0586,0.64453 -0.0976,0.60547 -0.13672,1.11328 1.67969,-1.15235 3.24219,-1.71875 1.5625,-0.58594 2.98828,-0.58594 4.00391,0 5.85938,3.55469 1.46484,2.8125 1.46484,7.4414 0,4.21875 -2.26562,6.95313 -2.40235,2.89062 -6.40625,2.89062 z m 1.34765,-16.93359 q -1.79687,0 -3.24219,0.80078 -1.03515,0.56641 -2.61718,2.07031 0.2539,4.4336 0.2539,9.31641 2.12891,0.82031 4.25782,0.82031 2.4414,0 3.73046,-1.8164 1.11329,-1.58203 1.11329,-4.10157 0,-3.55468 -0.87891,-5.3125 -0.85938,-1.77734 -2.61719,-1.77734 z"
         style="font-family:'Comic Sans MS';-inkscape-font-specification:'Comic Sans MS';text-align:center;text-anchor:middle"
         id="path478" />
      <path
         d="m 294.57129,468.64656 q -0.37109,0 -1.34766,-0.85937 -0.8789,-0.80078 -1.30859,-1.42578 -1.875,1.01562 -3.30078,1.52343 -1.42578,0.52735 -2.38281,0.52735 -4.57032,0 -6.66016,-2.57813 -1.97266,-2.42187 -1.97266,-7.42187 0,-4.72656 3.24219,-8.08594 3.26172,-3.35937 7.77344,-3.35937 1.69922,0 3.80859,0.8789 2.65625,1.09375 2.65625,2.63672 0,0.52734 -0.39062,0.9375 -0.19532,0.74219 -0.3125,2.44141 -0.0977,1.69922 -0.11719,4.35547 -0.0195,2.42187 0.33203,3.82812 0.19531,0.85938 1.23047,3.4375 0.13672,0.35156 0.44922,1.03516 l 0.11719,0.33203 q 0,0.78125 -0.54688,1.28906 -0.54687,0.50781 -1.26953,0.50781 z m -4.0625,-13.57422 q 0,-0.83984 0.0977,-1.8164 0.11718,-0.9961 0.33203,-2.10938 -0.72266,-0.37109 -1.25,-0.54687 -0.50782,-0.17578 -0.82032,-0.17578 -3.02734,0 -5.23437,2.48047 -2.1875,2.46093 -2.1875,5.68359 0,3.20312 1.13281,4.80469 1.13281,1.60156 3.39844,1.60156 1.875,0 3.18359,-0.68359 0.70313,-0.3711 1.97266,-1.48438 -0.625,-5.17578 -0.625,-7.75391 z"
         style="font-family:'Comic Sans MS';-inkscape-font-specification:'Comic Sans MS';text-align:center;text-anchor:middle"
         id="path480" />
      <path
         d="m 324.59082,468.97859 q -1.60156,0 -1.875,-1.69921 -0.35156,-2.14844 -0.70312,-6.05469 L 321.34863,455.17 q -0.19531,-1.34766 -0.66406,-2.63672 -0.66406,-1.75781 -1.44531,-1.75781 -0.72266,0 -2.69531,1.23047 -1.875,1.13281 -2.46094,1.8164 -0.0195,1.83594 0.0976,3.67188 l 0.58594,5.21484 q 0.3711,3.08594 0.3711,5.09766 0,0.85937 -0.54688,1.40625 -0.52734,0.56641 -1.36719,0.56641 -0.83984,0 -1.38672,-0.56641 -0.52734,-0.54688 -0.52734,-1.40625 0,-2.36328 -0.48828,-6.97266 -0.46875,-4.6289 -0.46875,-6.99218 0,-2.07032 -0.58594,-3.22266 -1.36719,0.625 -2.77344,2.03125 l -2.30468,2.57812 q -0.3125,0.46875 -0.9961,1.23047 0,1.17188 -0.21484,3.45703 -0.21484,2.28516 -0.21484,3.37891 0,0.58594 0.17578,1.64063 0.19531,1.05468 0.19531,1.52343 0,0.80078 -0.60547,1.34766 -0.58594,0.54687 -1.38672,0.54687 -2.20703,0 -2.20703,-5.01953 0,-1.17187 0.21484,-3.49609 0.21485,-2.32422 0.21485,-3.49609 0,-1.03516 -0.19531,-3.10547 -0.17579,-2.07032 -0.17579,-3.125 0,-4.4336 1.99219,-4.4336 0.76172,0 1.38672,0.66407 0.64453,0.66406 0.64453,1.44531 0,0.37109 -0.0976,1.15234 -0.0977,0.78125 -0.0977,1.19141 l 0.0391,2.05078 q 1.01563,-2.08984 2.98828,-3.76953 1.97266,-1.69922 3.35938,-1.69922 3.0664,0 4.21875,3.04687 1.07422,-1.42578 2.55859,-2.1289 1.48438,-0.72266 3.39844,-0.72266 3.26172,0 4.45312,3.51563 0.23438,0.70312 0.80079,5.48828 0.54687,3.35937 1.40625,11.1914 0.0586,0.78125 -0.52735,1.32813 -0.58594,0.54687 -1.42578,0.54687 z"
         style="font-family:'Comic Sans MS';-inkscape-font-specification:'Comic Sans MS';text-align:center;text-anchor:middle"
         id="path482" />
      <path
         d="m 343.92676,450.71688 q -0.41016,0 -0.97656,-0.0391 -0.54688,-0.0391 -0.95704,-0.0391 -0.44921,0 -2.65625,0.29297 l 0.3711,11.54297 0.0195,0.85937 0.0195,0.9961 q 0.0781,4.27734 -2.05078,4.27734 -0.78125,0 -1.36719,-0.50781 -0.5664,-0.50781 -0.5664,-1.26953 0,-0.74219 0.0586,-2.22657 0.0586,-1.48437 0.0586,-2.22656 l -0.39062,-11.40625 q -1.42578,-0.0586 -4.33594,-0.33203 -1.73828,-0.23437 -1.73828,-1.93359 0,-0.85938 0.52734,-1.42578 0.52735,-0.56641 1.34766,-0.56641 l 4.10156,0.33203 q 0,-0.99609 -0.0976,-2.65625 -0.0781,-1.67969 -0.0781,-2.42187 0,-0.82032 0.56641,-1.34766 0.5664,-0.54688 1.38672,-0.54688 1.75781,0 2.05078,2.8711 0.0586,0.72265 0.0586,1.73828 l -0.0391,1.13281 -0.0195,1.21094 q 2.42187,-0.3125 2.77343,-0.3125 2.03125,0 2.65625,0.19531 1.19141,0.39063 1.19141,1.83594 0,0.85937 -0.54687,1.42578 -0.52735,0.54688 -1.36719,0.54688 z"
         style="font-family:'Comic Sans MS';-inkscape-font-specification:'Comic Sans MS';text-align:center;text-anchor:middle"
         id="path484" />
      <path
         d="m 357.03223,468.50984 q -3.28125,0 -5.64453,-2.42187 -2.63672,-2.69531 -2.77344,-7.24609 -0.11719,-4.41407 2.22656,-7.77344 2.73438,-3.96485 7.61719,-3.96485 3.90625,0 5.91797,3.57422 1.60156,2.89063 1.54297,6.95313 -0.0586,4.33594 -2.26563,7.40234 -2.5,3.47656 -6.62109,3.47656 z m 1.17187,-17.4414 q -2.87109,-0.0195 -4.47265,2.73437 -1.26954,2.20703 -1.26954,5.03907 0,2.83203 1.54297,4.41406 1.28907,1.30859 3.02735,1.30859 2.03125,0 3.49609,-1.48437 1.66016,-1.64063 1.75781,-4.4336 0.27344,-7.55859 -4.08203,-7.57812 z"
         style="font-family:'Comic Sans MS';-inkscape-font-specification:'Comic Sans MS';text-align:center;text-anchor:middle"
         id="path486" />
      <path
         d="m 383.86816,439.89656 q -4.72656,0 -5.29296,6.5625 l -0.0586,1.21094 q 3.32031,-0.23437 4.29688,-0.23437 3.10547,0 3.10547,1.95312 0,1.42578 -1.52344,1.69922 -0.66406,0.11719 -1.5625,0.0977 -0.87891,-0.0391 -4.49219,0.2539 l -0.15625,4.45313 q 0,1.21093 0.0781,3.63281 0.0781,2.42187 0.0781,3.61328 0,3.71094 -0.42969,5.78125 -0.33203,1.5625 -1.8164,1.5625 -0.80078,0 -1.36719,-0.52734 -0.56641,-0.50782 -0.56641,-1.28907 0,-0.15625 0.0391,-0.39062 0.41015,-2.53906 0.41015,-5.52734 l -0.0586,-5.33204 v -5.66406 q -2.44141,0.19531 -3.08594,0.19531 -1.97266,0 -1.97266,-1.89453 0,-1.93359 3.41797,-2.03125 l 1.875,-0.0586 q 0.0586,-1.09375 0.29297,-2.96875 0.50781,-4.33594 2.1875,-6.38672 2.03125,-2.48047 6.34766,-2.48047 2.79297,0 2.79297,1.89453 0,1.875 -2.53907,1.875 z"
         style="font-family:'Comic Sans MS';-inkscape-font-specification:'Comic Sans MS';text-align:center;text-anchor:middle"
         id="path488" />
      <path
         d="m 404.2002,439.89656 q -4.72657,0 -5.29297,6.5625 l -0.0586,1.21094 q 3.32032,-0.23437 4.29688,-0.23437 3.10547,0 3.10547,1.95312 0,1.42578 -1.52344,1.69922 -0.66406,0.11719 -1.5625,0.0977 -0.87891,-0.0391 -4.49219,0.2539 l -0.15625,4.45313 q 0,1.21093 0.0781,3.63281 0.0781,2.42187 0.0781,3.61328 0,3.71094 -0.42969,5.78125 -0.33203,1.5625 -1.8164,1.5625 -0.80078,0 -1.36719,-0.52734 -0.56641,-0.50782 -0.56641,-1.28907 0,-0.15625 0.0391,-0.39062 0.41015,-2.53906 0.41015,-5.52734 l -0.0586,-5.33204 v -5.66406 q -2.44141,0.19531 -3.08594,0.19531 -1.97265,0 -1.97265,-1.89453 0,-1.93359 3.41796,-2.03125 l 1.875,-0.0586 q 0.0586,-1.09375 0.29297,-2.96875 0.50782,-4.33594 2.1875,-6.38672 2.03125,-2.48047 6.34766,-2.48047 2.79297,0 2.79297,1.89453 0,1.875 -2.53906,1.875 z"
         style="font-family:'Comic Sans MS';-inkscape-font-specification:'Comic Sans MS';text-align:center;text-anchor:middle"
         id="path490" />
      <path
         d="m 415.1377,442.63094 q -0.9375,0 -1.6211,-0.66406 -0.68359,-0.66407 -0.68359,-1.60157 0,-0.9375 0.68359,-1.60156 0.6836,-0.66406 1.6211,-0.66406 0.9375,0 1.60156,0.66406 0.68359,0.66406 0.68359,1.60156 0,0.9375 -0.68359,1.60157 -0.66406,0.66406 -1.60156,0.66406 z m 0.8789,15.85937 q 0,1.17188 0.0586,3.51563 0.0781,2.32422 0.0781,3.49609 0,0.85938 -0.52734,1.40625 -0.52735,0.54688 -1.38672,0.54688 -0.83985,0 -1.38672,-0.54688 -0.52734,-0.54687 -0.52734,-1.40625 0,-1.17187 -0.0781,-3.49609 -0.0586,-2.34375 -0.0586,-3.51563 0,-1.83593 0.19531,-4.57031 0.19531,-2.75391 0.19531,-4.58984 0,-0.87891 0.52735,-1.42578 0.54687,-0.54688 1.38671,-0.54688 0.83985,0 1.36719,0.54688 0.54688,0.54687 0.54688,1.42578 0,1.83593 -0.19532,4.58984 -0.19531,2.73438 -0.19531,4.57031 z"
         style="font-family:'Comic Sans MS';-inkscape-font-specification:'Comic Sans MS';text-align:center;text-anchor:middle"
         id="path492" />
      <path
         d="m 431.44629,468.58797 q -4.00391,0 -6.67969,-2.42188 -2.8125,-2.53906 -2.8125,-6.69921 0,-3.96485 2.63672,-8.1836 2.92969,-4.6875 6.60156,-4.6875 1.91407,0 4.27735,0.89844 2.98828,1.15234 2.98828,2.8125 0,0.74219 -0.48828,1.32812 -0.48828,0.56641 -1.21094,0.56641 -0.56641,0 -0.99609,-0.33203 -0.41016,-0.35156 -0.80079,-0.68359 -1.15234,-0.91797 -3.76953,-0.91797 -1.99218,0 -3.94531,3.55468 -1.77734,3.26172 -1.77734,5.64454 0,2.57812 1.75781,4.0625 1.64062,1.38671 4.21875,1.38671 1.17187,0 2.5,-0.625 l 2.26562,-1.21093 q 0.58594,-0.3125 0.83985,-0.3125 0.72265,0 1.25,0.58593 0.52734,0.56641 0.52734,1.3086 0,1.42578 -3.00781,2.7539 -2.63672,1.17188 -4.375,1.17188 z"
         style="font-family:'Comic Sans MS';-inkscape-font-specification:'Comic Sans MS';text-align:center;text-anchor:middle"
         id="path494" />
      <path
         d="m 446.89551,442.63094 q -0.9375,0 -1.6211,-0.66406 -0.68359,-0.66407 -0.68359,-1.60157 0,-0.9375 0.68359,-1.60156 0.6836,-0.66406 1.6211,-0.66406 0.9375,0 1.60156,0.66406 0.68359,0.66406 0.68359,1.60156 0,0.9375 -0.68359,1.60157 -0.66406,0.66406 -1.60156,0.66406 z m 0.8789,15.85937 q 0,1.17188 0.0586,3.51563 0.0781,2.32422 0.0781,3.49609 0,0.85938 -0.52734,1.40625 -0.52734,0.54688 -1.38672,0.54688 -0.83984,0 -1.38672,-0.54688 -0.52734,-0.54687 -0.52734,-1.40625 0,-1.17187 -0.0781,-3.49609 -0.0586,-2.34375 -0.0586,-3.51563 0,-1.83593 0.19531,-4.57031 0.19531,-2.75391 0.19531,-4.58984 0,-0.87891 0.52735,-1.42578 0.54687,-0.54688 1.38672,-0.54688 0.83984,0 1.36718,0.54688 0.54688,0.54687 0.54688,1.42578 0,1.83593 -0.19531,4.58984 -0.19532,2.73438 -0.19532,4.57031 z"
         style="font-family:'Comic Sans MS';-inkscape-font-specification:'Comic Sans MS';text-align:center;text-anchor:middle"
         id="path496" />
      <path
         d="m 469.62988,468.64656 q -0.37109,0 -1.34765,-0.85937 -0.87891,-0.80078 -1.3086,-1.42578 -1.875,1.01562 -3.30078,1.52343 -1.42578,0.52735 -2.38281,0.52735 -4.57031,0 -6.66016,-2.57813 -1.97265,-2.42187 -1.97265,-7.42187 0,-4.72656 3.24218,-8.08594 3.26172,-3.35937 7.77344,-3.35937 1.69922,0 3.8086,0.8789 2.65625,1.09375 2.65625,2.63672 0,0.52734 -0.39063,0.9375 -0.19531,0.74219 -0.3125,2.44141 -0.0977,1.69922 -0.11719,4.35547 -0.0195,2.42187 0.33203,3.82812 0.19532,0.85938 1.23047,3.4375 0.13672,0.35156 0.44922,1.03516 l 0.11719,0.33203 q 0,0.78125 -0.54688,1.28906 -0.54687,0.50781 -1.26953,0.50781 z m -4.0625,-13.57422 q 0,-0.83984 0.0977,-1.8164 0.11719,-0.9961 0.33203,-2.10938 -0.72266,-0.37109 -1.25,-0.54687 -0.50781,-0.17578 -0.82031,-0.17578 -3.02735,0 -5.23438,2.48047 -2.1875,2.46093 -2.1875,5.68359 0,3.20312 1.13282,4.80469 1.13281,1.60156 3.39843,1.60156 1.875,0 3.1836,-0.68359 0.70312,-0.3711 1.97265,-1.48438 -0.625,-5.17578 -0.625,-7.75391 z"
         style="font-family:'Comic Sans MS';-inkscape-font-specification:'Comic Sans MS';text-align:center;text-anchor:middle"
         id="path498" />
      <path
         d="m 479.80566,452.00594 -0.29296,9.70703 q 0,1.54297 -0.15625,4.53125 -0.19532,1.95312 -1.91407,1.95312 -1.91406,0 -1.91406,-1.99218 0,-2.36328 0.21484,-7.08985 0.21485,-4.74609 0.21485,-7.10937 0,-3.08594 0.0976,-7.05078 0.0977,-3.98438 0.0977,-7.07032 0,-1.95312 1.91406,-1.95312 1.9336,0 1.9336,1.95312 0,3.08594 -0.0977,7.07032 -0.0977,3.96484 -0.0977,7.05078 z"
         style="font-family:'Comic Sans MS';-inkscape-font-specification:'Comic Sans MS';text-align:center;text-anchor:middle"
         id="path500" />
      <path
         d="m 488.30176,469.17391 q -1.01563,0 -1.71875,-0.70313 -0.70313,-0.70312 -0.70313,-1.71875 0,-0.99609 0.70313,-1.69922 0.70312,-0.72265 1.71875,-0.72265 0.99609,0 1.69922,0.72265 0.72265,0.70313 0.72265,1.69922 0,1.01563 -0.72265,1.71875 -0.70313,0.70313 -1.69922,0.70313 z"
         style="font-family:'Comic Sans MS';-inkscape-font-specification:'Comic Sans MS';text-align:center;text-anchor:middle"
         id="path502" />
      <path
         d="m 511.83691,458.93953 -0.44921,6.5625 q -0.11719,3.90625 -0.80079,6.38672 -0.8789,3.16406 -2.8125,4.66797 -2.34375,1.81641 -6.77734,1.81641 -2.59766,0 -4.35547,-0.35157 -2.46094,-0.48828 -2.46094,-2.03125 0,-1.73828 1.69922,-1.73828 0.70313,0 2.34375,0.33203 1.64063,0.35157 3.63282,0.3125 3.75,-0.0586 5.17578,-3.63281 0.9375,-2.38281 0.99609,-7.32422 -1.05469,1.95313 -2.51953,2.92969 -1.44531,0.97656 -3.32031,0.97656 -3.53516,0 -5.76172,-2.40234 -2.20703,-2.42188 -2.20703,-6.26953 0,-5.27344 3.02734,-8.4961 3.125,-3.32031 8.51563,-3.32031 1.8164,0 3.04687,0.46875 1.23047,0.46875 1.875,1.40625 2.08984,0.0586 2.08984,2.32422 0,1.38672 -0.41015,3.71094 -0.44922,2.69531 -0.52735,3.67187 z m -6.26953,-8.45703 q -3.71093,0 -5.74218,2.55859 -1.81641,2.30469 -1.81641,5.85938 0,2.83203 1.07422,4.25781 1.07422,1.42578 3.22265,1.42578 1.97266,0 3.82813,-2.22656 1.67969,-2.05078 1.91406,-4.0625 0.41016,-2.10937 0.87891,-6.62109 -0.78125,-0.60547 -1.6211,-0.89844 -0.83984,-0.29297 -1.73828,-0.29297 z"
         style="font-family:'Comic Sans MS';-inkscape-font-specification:'Comic Sans MS';text-align:center;text-anchor:middle"
         id="path504" />
      <path
         d="m 520.72363,442.63094 q -0.9375,0 -1.62109,-0.66406 -0.68359,-0.66407 -0.68359,-1.60157 0,-0.9375 0.68359,-1.60156 0.68359,-0.66406 1.62109,-0.66406 0.9375,0 1.60157,0.66406 0.68359,0.66406 0.68359,1.60156 0,0.9375 -0.68359,1.60157 -0.66407,0.66406 -1.60157,0.66406 z m 0.87891,15.85937 q 0,1.17188 0.0586,3.51563 0.0781,2.32422 0.0781,3.49609 0,0.85938 -0.52735,1.40625 -0.52734,0.54688 -1.38671,0.54688 -0.83985,0 -1.38672,-0.54688 -0.52735,-0.54687 -0.52735,-1.40625 0,-1.17187 -0.0781,-3.49609 -0.0586,-2.34375 -0.0586,-3.51563 0,-1.83593 0.19532,-4.57031 0.19531,-2.75391 0.19531,-4.58984 0,-0.87891 0.52734,-1.42578 0.54688,-0.54688 1.38672,-0.54688 0.83985,0 1.36719,0.54688 0.54687,0.54687 0.54687,1.42578 0,1.83593 -0.19531,4.58984 -0.19531,2.73438 -0.19531,4.57031 z"
         style="font-family:'Comic Sans MS';-inkscape-font-specification:'Comic Sans MS';text-align:center;text-anchor:middle"
         id="path506" />
      <path
         d="m 541.27051,450.71688 q -0.41016,0 -0.97656,-0.0391 -0.54688,-0.0391 -0.95704,-0.0391 -0.44921,0 -2.65625,0.29297 l 0.3711,11.54297 0.0195,0.85937 0.0195,0.9961 q 0.0781,4.27734 -2.05078,4.27734 -0.78125,0 -1.36719,-0.50781 -0.5664,-0.50781 -0.5664,-1.26953 0,-0.74219 0.0586,-2.22657 0.0586,-1.48437 0.0586,-2.22656 l -0.39062,-11.40625 q -1.42578,-0.0586 -4.33594,-0.33203 -1.73828,-0.23437 -1.73828,-1.93359 0,-0.85938 0.52734,-1.42578 0.52735,-0.56641 1.34766,-0.56641 l 4.10156,0.33203 q 0,-0.99609 -0.0977,-2.65625 -0.0781,-1.67969 -0.0781,-2.42187 0,-0.82032 0.56641,-1.34766 0.5664,-0.54688 1.38672,-0.54688 1.75781,0 2.05078,2.8711 0.0586,0.72265 0.0586,1.73828 l -0.0391,1.13281 -0.0195,1.21094 q 2.42187,-0.3125 2.77343,-0.3125 2.03125,0 2.65625,0.19531 1.19141,0.39063 1.19141,1.83594 0,0.85937 -0.54687,1.42578 -0.52735,0.54688 -1.36719,0.54688 z"
         style="font-family:'Comic Sans MS';-inkscape-font-specification:'Comic Sans MS';text-align:center;text-anchor:middle"
         id="path508" />
      <path
         d="m 563.39941,468.56844 q -1.38671,0 -1.8164,-1.48438 -0.44922,-1.60156 -0.82031,-4.55078 -0.35157,-2.83203 -0.35157,-4.64844 0,-0.50781 0.0391,-1.54296 0.0586,-1.03516 0.0586,-1.54297 0,-3.67188 -1.83594,-3.67188 -2.48047,0 -4.43359,2.2461 -0.9961,1.15234 -2.73438,4.39453 0,7.4414 -0.625,8.80859 -0.54687,1.21094 -1.69922,1.21094 -0.80078,0 -1.40625,-0.54688 -0.60546,-0.54687 -0.60546,-1.32812 0,-0.27344 0.17578,-0.85938 0.15625,-0.48828 0.21484,-2.85156 l 0.0586,-2.89062 0.0586,-14.35547 q 0.13672,-2.42188 0.13672,-3.26172 0,-0.9961 -0.19532,-1.875 -0.17578,-0.89844 -0.17578,-1.85547 0,-0.82031 0.56641,-1.34766 0.56641,-0.54687 1.38672,-0.54687 1.60156,0 1.875,1.71875 0.3125,1.89453 0.3125,3.41797 0,2.05078 -0.13672,4.27734 -0.11719,2.12891 -0.0977,4.27734 l 0.0195,1.71875 q 1.60157,-2.14843 3.41797,-3.20312 1.83594,-1.07422 3.88672,-1.07422 3.24219,0 4.45313,2.10938 0.85937,1.48437 0.97656,5 l 0.15625,3.73046 0.39062,4.0625 q 0.27344,2.28516 0.66407,4.02344 0.0781,0.33203 0.0781,0.56641 0,0.80078 -0.58594,1.32812 -0.58593,0.54688 -1.40625,0.54688 z"
         style="font-family:'Comic Sans MS';-inkscape-font-specification:'Comic Sans MS';text-align:center;text-anchor:middle"
         id="path510" />
      <path
         d="m 586.09473,455.95125 q 0,1.40625 0.0195,4.21875 0.0195,2.8125 0.0195,4.21875 0,0.42969 0.0586,1.30859 0.0781,0.87891 0.0781,1.3086 0,0.83984 -0.56641,1.36719 -0.5664,0.54687 -1.38672,0.54687 -1.5039,0 -1.91406,-1.85547 -2.44141,1.26953 -5.625,1.26953 -2.55859,0 -4.23828,-1.13281 -1.85547,-1.25 -2.20703,-3.65234 -0.76172,-5.17578 -0.76172,-9.21875 0,-2.67578 0.58594,-6.09375 0.27343,-1.69922 1.85547,-1.69922 0.83984,0 1.40625,0.54687 0.5664,0.52735 0.5664,1.36719 0,0.89844 -0.29297,2.87109 -0.27343,1.97266 -0.27343,3.00782 0,3.26172 0.21484,5.58593 0.21484,2.32422 0.64453,3.73047 0.64453,0.35157 1.26953,0.54688 0.625,0.17578 1.23047,0.17578 2.61719,0 5.52734,-0.83984 l -0.0195,-3.96485 -0.0391,-3.78906 q 0,-4.21875 0.37109,-7.32422 0.21485,-1.79687 1.89454,-1.79687 0.83984,0 1.40625,0.54687 0.5664,0.54688 0.52734,1.36719 z"
         style="font-family:'Comic Sans MS';-inkscape-font-specification:'Comic Sans MS';text-align:center;text-anchor:middle"
         id="path512" />
      <path
         d="m 600.0791,468.17781 q -2.98828,0 -5.42969,-1.17187 -0.625,0.9375 -1.52343,0.9375 -0.74219,0 -1.26953,-0.52735 -0.50782,-0.50781 -0.50782,-1.28906 0,-0.50781 0.0391,-1.5039 0.0586,-0.9961 0.0586,-1.50391 0,-2.07031 -0.11719,-6.19141 -0.0977,-4.14062 -0.0977,-6.21093 0,-1.42579 0.0195,-5.39063 0.0195,-3.98437 0.0195,-5.42969 0,-1.17187 0.48828,-2.10937 0.64453,-1.19141 1.77734,-1.19141 1.46485,0 1.46485,1.69922 0,0.27344 -0.0977,0.80078 -0.0977,0.52735 -0.0977,0.80078 l -0.0586,4.27735 -0.0391,4.98047 q 1.69922,-1.15235 3.22265,-1.71875 1.54297,-0.58594 2.89063,-0.58594 4.19922,0 6.81641,3.22265 2.46093,3.02735 2.46093,7.44141 0,4.45313 -2.87109,7.55859 -2.87109,3.10547 -7.14844,3.10547 z m 0.74219,-17.63672 q -1.60156,0 -3.28125,0.89844 -0.82031,0.44922 -2.8125,1.9336 l -0.0391,3.3789 0.0195,3.04688 0.0195,3.20312 q 0.9375,0.42969 2.63672,1.09375 1.21094,0.3711 2.71484,0.3711 2.83203,0 4.64844,-1.99219 1.81641,-1.99219 1.81641,-4.96094 0,-2.91016 -1.46485,-4.86328 -1.58203,-2.10938 -4.25781,-2.10938 z"
         style="font-family:'Comic Sans MS';-inkscape-font-specification:'Comic Sans MS';text-align:center;text-anchor:middle"
         id="path514" />
      <path
         d="m 617.18848,469.17391 q -1.01563,0 -1.71875,-0.70313 -0.70313,-0.70312 -0.70313,-1.71875 0,-0.99609 0.70313,-1.69922 0.70312,-0.72265 1.71875,-0.72265 0.99609,0 1.69922,0.72265 0.72265,0.70313 0.72265,1.69922 0,1.01563 -0.72265,1.71875 -0.70313,0.70313 -1.69922,0.70313 z"
         style="font-family:'Comic Sans MS';-inkscape-font-specification:'Comic Sans MS';text-align:center;text-anchor:middle"
         id="path516" />
      <path
         d="m 628.37988,442.63094 q -0.9375,0 -1.62109,-0.66406 -0.68359,-0.66407 -0.68359,-1.60157 0,-0.9375 0.68359,-1.60156 0.68359,-0.66406 1.62109,-0.66406 0.9375,0 1.60157,0.66406 0.68359,0.66406 0.68359,1.60156 0,0.9375 -0.68359,1.60157 -0.66407,0.66406 -1.60157,0.66406 z m 0.87891,15.85937 q 0,1.17188 0.0586,3.51563 0.0781,2.32422 0.0781,3.49609 0,0.85938 -0.52735,1.40625 -0.52734,0.54688 -1.38671,0.54688 -0.83985,0 -1.38672,-0.54688 -0.52735,-0.54687 -0.52735,-1.40625 0,-1.17187 -0.0781,-3.49609 -0.0586,-2.34375 -0.0586,-3.51563 0,-1.83593 0.19532,-4.57031 0.19531,-2.75391 0.19531,-4.58984 0,-0.87891 0.52734,-1.42578 0.54688,-0.54688 1.38672,-0.54688 0.83985,0 1.36719,0.54688 0.54687,0.54687 0.54687,1.42578 0,1.83593 -0.19531,4.58984 -0.19531,2.73438 -0.19531,4.57031 z"
         style="font-family:'Comic Sans MS';-inkscape-font-specification:'Comic Sans MS';text-align:center;text-anchor:middle"
         id="path518" />
      <path
         d="m 643.18457,468.50984 q -3.28125,0 -5.64453,-2.42187 -2.63672,-2.69531 -2.77344,-7.24609 -0.11719,-4.41407 2.22656,-7.77344 2.73438,-3.96485 7.61719,-3.96485 3.90625,0 5.91797,3.57422 1.60156,2.89063 1.54297,6.95313 -0.0586,4.33594 -2.26563,7.40234 -2.5,3.47656 -6.62109,3.47656 z m 1.17188,-17.4414 q -2.8711,-0.0195 -4.47266,2.73437 -1.26953,2.20703 -1.26953,5.03907 0,2.83203 1.54297,4.41406 1.28906,1.30859 3.02734,1.30859 2.03125,0 3.49609,-1.48437 1.66016,-1.64063 1.75782,-4.4336 0.27343,-7.55859 -4.08203,-7.57812 z"
         style="font-family:'Comic Sans MS';-inkscape-font-specification:'Comic Sans MS';text-align:center;text-anchor:middle"
         id="path520" />
    </g>
  </g>
</svg>
