<?xml version="1.0" encoding="UTF-8" standalone="no"?>
<!-- Created with Inkscape (http://www.inkscape.org/) -->

<svg
   width="160.26344mm"
   height="204.17188mm"
   viewBox="0 0 160.26344 204.17188"
   version="1.1"
   id="svg5"
   xml:space="preserve"
   inkscape:version="1.2.2 (b0a8486541, 2022-12-01)"
   sodipodi:docname="dark.svg"
   xmlns:inkscape="http://www.inkscape.org/namespaces/inkscape"
   xmlns:sodipodi="http://sodipodi.sourceforge.net/DTD/sodipodi-0.dtd"
   xmlns="http://www.w3.org/2000/svg"
   xmlns:svg="http://www.w3.org/2000/svg"><sodipodi:namedview
     id="namedview7"
     pagecolor="#ffffff"
     bordercolor="#666666"
     borderopacity="1.0"
     inkscape:showpageshadow="2"
     inkscape:pageopacity="0.0"
     inkscape:pagecheckerboard="0"
     inkscape:deskcolor="#d1d1d1"
     inkscape:document-units="mm"
     showgrid="false"
     inkscape:zoom="0.7180275"
     inkscape:cx="190.10414"
     inkscape:cy="391.34992"
     inkscape:window-width="1920"
     inkscape:window-height="990"
     inkscape:window-x="0"
     inkscape:window-y="0"
     inkscape:window-maximized="1"
     inkscape:current-layer="layer1" /><defs
     id="defs2"><rect
       x="72.420624"
       y="771.55823"
       width="614.18262"
       height="188.01508"
       id="rect400" /><rect
       x="61.278992"
       y="82.169556"
       width="662.92725"
       height="227.0108"
       id="rect236" /><rect
       x="347.6311"
       y="505.69"
       width="150.18057"
       height="90.108345"
       id="rect9300" /></defs><g
     inkscape:label="Michael w/ a Creeper (Minecrafter font by MadPixel)"
     inkscape:groupmode="layer"
     id="layer1"
     transform="translate(-24.640745,-22.703875)"><g
       aria-label="IM WAITING IT OUT TIL ITS TIME TO LEAVE"
       transform="matrix(0.26458333,0,0,0.26458333,0.89091819,0)"
       id="text234"
       style="font-size:40px;line-height:1.25;font-family:'Comic Sans MS';-inkscape-font-specification:'Comic Sans MS';white-space:pre;shape-inside:url(#rect236);fill:#ffffff"
       inkscape:label="I'm waiting it out til it's time to leave"><path
         d="m 115.02319,85.809922 v 31.359998 h -9.88 V 85.809922 Z"
         style="font-family:Minecrafter;-inkscape-font-specification:Minecrafter;text-align:center;text-anchor:middle;fill:#ffffff"
         id="path2032" /><path
         d="m 128.22318,85.809922 v 3.84 h 3.96 v 3.56 h 1.48 v -3.56 h 3.96 v -3.84 h 9.72 v 31.359998 h -9.72 v -13.32 h -1.76 v 3.44 h -6.16 v -3.44 h -1.48 v 13.32 h -10 V 85.809922 Z"
         style="font-family:Minecrafter;-inkscape-font-specification:Minecrafter;text-align:center;text-anchor:middle;fill:#ffffff"
         id="path2034" /><path
         d="m 180.58318,85.809922 v 13.32 h 1.48 v -3.44 h 6.16 v 3.44 h 1.76 v -13.32 h 9.72 v 31.359998 h -9.72 v -3.84 h -3.96 v -3.56 h -1.48 v 3.56 h -3.96 v 3.84 h -10 V 85.809922 Z"
         style="font-family:Minecrafter;-inkscape-font-specification:Minecrafter;text-align:center;text-anchor:middle;fill:#ffffff"
         id="path2036" /><path
         d="m 226.90318,85.809922 v 31.359998 h -10.24 v -8.4 h -3.48 v 8.4 h -10.24 V 85.809922 Z m -13.6,15.319998 h 3.24 v -7.919998 h -3.24 z"
         style="font-family:Minecrafter;-inkscape-font-specification:Minecrafter;text-align:center;text-anchor:middle;fill:#ffffff"
         id="path2038" /><path
         d="m 239.98321,85.809922 v 31.359998 h -9.88 V 85.809922 Z"
         style="font-family:Minecrafter;-inkscape-font-specification:Minecrafter;text-align:center;text-anchor:middle;fill:#ffffff"
         id="path2040" /><path
         d="m 242.9432,94.089922 v -8.28 h 23.96 v 8.28 h -6.8 v 23.079998 h -10.36 V 94.089922 Z"
         style="font-family:Minecrafter;-inkscape-font-specification:Minecrafter;text-align:center;text-anchor:middle;fill:#ffffff"
         id="path2042" /><path
         d="m 279.4632,85.809922 v 31.359998 h -9.88 V 85.809922 Z"
         style="font-family:Minecrafter;-inkscape-font-specification:Minecrafter;text-align:center;text-anchor:middle;fill:#ffffff"
         id="path2044" /><path
         d="m 292.90318,85.809922 v 3.84 h 3.72 v 3.68 h 3.96 v 3.84 h 1.48 v -11.36 h 9.72 v 31.359998 h -9.72 v -3.84 h -3.96 v -3.68 h -3.96 v -3.84 h -1.48 v 11.36 h -10 V 85.809922 Z"
         style="font-family:Minecrafter;-inkscape-font-specification:Minecrafter;text-align:center;text-anchor:middle;fill:#ffffff"
         id="path2046" /><path
         d="M 315.02318,113.56992 V 89.889922 h 3.84 v -3.84 h 22.84 v 8.28 h -16.32 v 14.679998 h 8.04 v -5.68 h 8.28 v 14.08 h -22.84 v -3.84 z"
         style="font-family:Minecrafter;-inkscape-font-specification:Minecrafter;text-align:center;text-anchor:middle;fill:#ffffff"
         id="path2048" /><path
         d="m 374.30322,85.809922 v 31.359998 h -9.88 V 85.809922 Z"
         style="font-family:Minecrafter;-inkscape-font-specification:Minecrafter;text-align:center;text-anchor:middle;fill:#ffffff"
         id="path2050" /><path
         d="m 377.26318,94.089922 v -8.28 h 23.96 v 8.28 h -6.8 v 23.079998 h -10.36 V 94.089922 Z"
         style="font-family:Minecrafter;-inkscape-font-specification:Minecrafter;text-align:center;text-anchor:middle;fill:#ffffff"
         id="path2052" /><path
         d="M 423.9032,113.32992 V 89.649922 h 3.6 v -3.84 h 21.72 v 3.84 h 3.8 v 23.679998 h -3.8 v 3.84 h -21.72 v -3.84 z m 9.88,-4.32 h 9.12 V 94.209922 h -9.12 z"
         style="font-family:Minecrafter;-inkscape-font-specification:Minecrafter;text-align:center;text-anchor:middle;fill:#ffffff"
         id="path2054" /><path
         d="M 455.98319,114.08992 V 86.569922 h 10 v 22.959998 h 5.44 V 86.569922 h 10 v 27.519998 h -3.84 v 3.84 h -17.76 v -3.84 z"
         style="font-family:Minecrafter;-inkscape-font-specification:Minecrafter;text-align:center;text-anchor:middle;fill:#ffffff"
         id="path2056" /><path
         d="m 484.14315,94.089922 v -8.28 h 23.96 v 8.28 h -6.8 v 23.079998 h -10.36 V 94.089922 Z"
         style="font-family:Minecrafter;-inkscape-font-specification:Minecrafter;text-align:center;text-anchor:middle;fill:#ffffff"
         id="path2058" /><path
         d="m 530.54315,94.089922 v -8.28 h 23.96 v 8.28 h -6.8 v 23.079998 h -10.36 V 94.089922 Z"
         style="font-family:Minecrafter;-inkscape-font-specification:Minecrafter;text-align:center;text-anchor:middle;fill:#ffffff"
         id="path2060" /><path
         d="m 567.06314,85.809922 v 31.359998 h -9.88 V 85.809922 Z"
         style="font-family:Minecrafter;-inkscape-font-specification:Minecrafter;text-align:center;text-anchor:middle;fill:#ffffff"
         id="path2062" /><path
         d="m 580.26313,85.809922 v 23.079998 h 13.44 v 8.28 h -23.44 V 85.809922 Z"
         style="font-family:Minecrafter;-inkscape-font-specification:Minecrafter;text-align:center;text-anchor:middle;fill:#ffffff"
         id="path2064" /><path
         d="m 626.06317,85.809922 v 31.359998 h -9.88 V 85.809922 Z"
         style="font-family:Minecrafter;-inkscape-font-specification:Minecrafter;text-align:center;text-anchor:middle;fill:#ffffff"
         id="path2066" /><path
         d="m 629.02313,94.089922 v -8.28 h 23.96 v 8.28 h -6.8 v 23.079998 h -10.36 V 94.089922 Z"
         style="font-family:Minecrafter;-inkscape-font-specification:Minecrafter;text-align:center;text-anchor:middle;fill:#ffffff"
         id="path2068" /><path
         d="m 670.22315,108.88992 v -3.2 h -14.56 V 85.809922 h 24.68 v 8.28 h -14.56 v 3.2 h 14.56 v 19.879998 h -24.68 v -8.28 z"
         style="font-family:Minecrafter;-inkscape-font-specification:Minecrafter;text-align:center;text-anchor:middle;fill:#ffffff"
         id="path2070" /><path
         d="m 228.68314,144.77449 v -8.28 h 23.96 v 8.28 h -6.8 v 23.08 h -10.36 v -23.08 z"
         style="font-family:Minecrafter;-inkscape-font-specification:Minecrafter;text-align:center;text-anchor:middle;fill:#ffffff"
         id="path2072" /><path
         d="m 265.20313,136.49449 v 31.36 h -9.88 v -31.36 z"
         style="font-family:Minecrafter;-inkscape-font-specification:Minecrafter;text-align:center;text-anchor:middle;fill:#ffffff"
         id="path2074" /><path
         d="m 278.40312,136.49449 v 3.84 h 3.96 v 3.56 h 1.48 v -3.56 h 3.96 v -3.84 h 9.72 v 31.36 h -9.72 v -13.32 h -1.76 v 3.44 h -6.16 v -3.44 h -1.48 v 13.32 h -10 v -31.36 z"
         style="font-family:Minecrafter;-inkscape-font-specification:Minecrafter;text-align:center;text-anchor:middle;fill:#ffffff"
         id="path2076" /><path
         d="m 324.48312,136.49449 v 8.28 h -13.36 v 3.2 h 13.36 v 8.4 h -13.36 v 3.2 h 13.36 v 8.28 h -23.72 v -31.36 z"
         style="font-family:Minecrafter;-inkscape-font-specification:Minecrafter;text-align:center;text-anchor:middle;fill:#ffffff"
         id="path2078" /><path
         d="m 347.20311,144.77449 v -8.28 h 23.96 v 8.28 h -6.8 v 23.08 h -10.36 v -23.08 z"
         style="font-family:Minecrafter;-inkscape-font-specification:Minecrafter;text-align:center;text-anchor:middle;fill:#ffffff"
         id="path2080" /><path
         d="m 373.84311,164.01449 v -23.68 h 3.6 v -3.84 h 21.72 v 3.84 h 3.8 v 23.68 h -3.8 v 3.84 h -21.72 v -3.84 z m 9.88,-4.32 h 9.12 v -14.8 h -9.12 z"
         style="font-family:Minecrafter;-inkscape-font-specification:Minecrafter;text-align:center;text-anchor:middle;fill:#ffffff"
         id="path2082" /><path
         d="m 435.92311,136.49449 v 23.08 h 13.44 v 8.28 h -23.44 v -31.36 z"
         style="font-family:Minecrafter;-inkscape-font-specification:Minecrafter;text-align:center;text-anchor:middle;fill:#ffffff"
         id="path2084" /><path
         d="m 475.56314,136.49449 v 8.28 h -13.36 v 3.2 h 13.36 v 8.4 h -13.36 v 3.2 h 13.36 v 8.28 h -23.72 v -31.36 z"
         style="font-family:Minecrafter;-inkscape-font-specification:Minecrafter;text-align:center;text-anchor:middle;fill:#ffffff"
         id="path2086" /><path
         d="m 502.48313,136.49449 v 31.36 h -10.24 v -8.4 h -3.48 v 8.4 h -10.24 v -31.36 z m -13.6,15.32 h 3.24 v -7.92 h -3.24 z"
         style="font-family:Minecrafter;-inkscape-font-specification:Minecrafter;text-align:center;text-anchor:middle;fill:#ffffff"
         id="path2088" /><path
         d="m 507.80315,163.05449 v -5.68 h -2.36 v -20.88 h 10 v 22.96 h 4.44 v -22.96 h 10 v 20.88 h -2.36 v 5.68 h -3.44 v 4.8 h -12.84 v -4.8 z"
         style="font-family:Minecrafter;-inkscape-font-specification:Minecrafter;text-align:center;text-anchor:middle;fill:#ffffff"
         id="path2090" /><path
         d="m 556.56318,136.49449 v 8.28 h -13.36 v 3.2 h 13.36 v 8.4 h -13.36 v 3.2 h 13.36 v 8.28 h -23.72 v -31.36 z"
         style="font-family:Minecrafter;-inkscape-font-specification:Minecrafter;text-align:center;text-anchor:middle;fill:#ffffff"
         id="path2092" /></g><g
       aria-label="AND PICKING MY NOSE AS I SOFTLY PEE"
       transform="matrix(0.26458333,0,0,0.26458333,4.391736,0)"
       id="text398"
       style="font-size:40px;line-height:1.25;font-family:'Comic Sans MS';-inkscape-font-specification:'Comic Sans MS';white-space:pre;shape-inside:url(#rect400);fill:#ffffff"
       inkscape:label="And picking my nose as I softly pee"><path
         d="m 100.49169,775.19859 v 31.36 H 90.251689 v -8.4 h -3.48 v 8.4 h -10.24 v -31.36 z m -13.600001,15.32 h 3.24 v -7.92 h -3.24 z"
         style="font-family:Minecrafter;-inkscape-font-specification:Minecrafter;text-align:center;text-anchor:middle;fill:#ffffff"
         id="path1975" /><path
         d="m 113.93172,775.19859 v 3.84 h 3.72 v 3.68 h 3.96 v 3.84 h 1.48 v -11.36 h 9.72 v 31.36 h -9.72 v -3.84 h -3.96 v -3.68 h -3.96 v -3.84 h -1.48 v 11.36 h -10 v -31.36 z"
         style="font-family:Minecrafter;-inkscape-font-specification:Minecrafter;text-align:center;text-anchor:middle;fill:#ffffff"
         id="path1977" /><path
         d="m 158.13172,775.19859 v 2.84 h 2.84 v 25.68 h -2.84 v 2.84 h -22.08 v -31.36 z m -11.72,22.96 h 4.2 v -14.56 h -4.2 z"
         style="font-family:Minecrafter;-inkscape-font-specification:Minecrafter;text-align:center;text-anchor:middle;fill:#ffffff"
         id="path1979" /><path
         d="m 208.17174,775.19859 v 22.36 h -13.72 v 9 h -10.24 v -31.36 z m -13.6,14.8 h 3.24 v -7.4 h -3.24 z"
         style="font-family:Minecrafter;-inkscape-font-specification:Minecrafter;text-align:center;text-anchor:middle;fill:#ffffff"
         id="path1981" /><path
         d="m 220.77174,775.19859 v 31.36 h -9.88 v -31.36 z"
         style="font-family:Minecrafter;-inkscape-font-specification:Minecrafter;text-align:center;text-anchor:middle;fill:#ffffff"
         id="path1983" /><path
         d="m 223.97172,802.71859 v -23.68 h 3.84 v -3.84 h 21.6 v 8.28 h -15.32 v 14.8 h 15.32 v 8.28 h -21.6 v -3.84 z"
         style="font-family:Minecrafter;-inkscape-font-specification:Minecrafter;text-align:center;text-anchor:middle;fill:#ffffff"
         id="path1985" /><path
         d="m 262.13174,775.19859 v 8.16 h 1.48 v -4.32 h 2.96 v -3.84 h 10 v 11 h -3.32 v 2.96 h -3.08 v 3.44 h 3.08 v 2.96 h 3.32 v 11 h -10 v -3.84 h -2.96 v -4.32 h -1.48 v 8.16 h -10 v -31.36 z"
         style="font-family:Minecrafter;-inkscape-font-specification:Minecrafter;text-align:center;text-anchor:middle;fill:#ffffff"
         id="path1987" /><path
         d="m 289.41172,775.19859 v 31.36 h -9.88 v -31.36 z"
         style="font-family:Minecrafter;-inkscape-font-specification:Minecrafter;text-align:center;text-anchor:middle;fill:#ffffff"
         id="path1989" /><path
         d="m 302.85171,775.19859 v 3.84 h 3.72 v 3.68 h 3.96 v 3.84 h 1.48 v -11.36 h 9.72 v 31.36 h -9.72 v -3.84 h -3.96 v -3.68 h -3.96 v -3.84 h -1.48 v 11.36 h -10 v -31.36 z"
         style="font-family:Minecrafter;-inkscape-font-specification:Minecrafter;text-align:center;text-anchor:middle;fill:#ffffff"
         id="path1991" /><path
         d="m 324.97171,802.95859 v -23.68 h 3.84 v -3.84 h 22.84 v 8.28 h -16.32 v 14.68 h 8.04 v -5.68 h 8.28 v 14.08 h -22.84 v -3.84 z"
         style="font-family:Minecrafter;-inkscape-font-specification:Minecrafter;text-align:center;text-anchor:middle;fill:#ffffff"
         id="path1993" /><path
         d="m 384.37172,775.19859 v 3.84 h 3.96 v 3.56 h 1.48 v -3.56 h 3.96 v -3.84 h 9.72 v 31.36 h -9.72 v -13.32 h -1.76 v 3.44 h -6.16 v -3.44 h -1.48 v 13.32 h -10 v -31.36 z"
         style="font-family:Minecrafter;-inkscape-font-specification:Minecrafter;text-align:center;text-anchor:middle;fill:#ffffff"
         id="path1995" /><path
         d="m 413.05173,795.31859 v -2.96 h -2.96 v -2.96 h -3.6 v -13.96 h 10.24 v 7.52 h 2.96 v 2.84 h 3.2 v -2.84 h 3 v -7.52 h 10.24 v 13.96 h -3.6 v 2.96 h -2.96 v 2.96 h -2.96 v 11.48 h -10.6 v -11.48 z"
         style="font-family:Minecrafter;-inkscape-font-specification:Minecrafter;text-align:center;text-anchor:middle;fill:#ffffff"
         id="path1997" /><path
         d="m 469.05172,775.19859 v 3.84 h 3.72 v 3.68 h 3.96 v 3.84 h 1.48 v -11.36 h 9.72 v 31.36 h -9.72 v -3.84 h -3.96 v -3.68 h -3.96 v -3.84 h -1.48 v 11.36 h -10 v -31.36 z"
         style="font-family:Minecrafter;-inkscape-font-specification:Minecrafter;text-align:center;text-anchor:middle;fill:#ffffff"
         id="path1999" /><path
         d="m 491.17173,802.71859 v -23.68 h 3.6 v -3.84 h 21.72 v 3.84 h 3.8 v 23.68 h -3.8 v 3.84 h -21.72 v -3.84 z m 9.88,-4.32 h 9.12 v -14.8 h -9.12 z"
         style="font-family:Minecrafter;-inkscape-font-specification:Minecrafter;text-align:center;text-anchor:middle;fill:#ffffff"
         id="path2001" /><path
         d="m 537.81172,798.27859 v -3.2 h -14.56 v -19.88 h 24.68 v 8.28 h -14.56 v 3.2 h 14.56 v 19.88 h -24.68 v -8.28 z"
         style="font-family:Minecrafter;-inkscape-font-specification:Minecrafter;text-align:center;text-anchor:middle;fill:#ffffff"
         id="path2003" /><path
         d="m 574.61174,775.19859 v 8.28 h -13.36 v 3.2 h 13.36 v 8.4 h -13.36 v 3.2 h 13.36 v 8.28 h -23.72 v -31.36 z"
         style="font-family:Minecrafter;-inkscape-font-specification:Minecrafter;text-align:center;text-anchor:middle;fill:#ffffff"
         id="path2005" /><path
         d="m 621.53173,775.19859 v 31.36 h -10.24 v -8.4 h -3.48 v 8.4 h -10.24 v -31.36 z m -13.6,15.32 h 3.24 v -7.92 h -3.24 z"
         style="font-family:Minecrafter;-inkscape-font-specification:Minecrafter;text-align:center;text-anchor:middle;fill:#ffffff"
         id="path2007" /><path
         d="m 639.29176,798.27859 v -3.2 h -14.56 v -19.88 h 24.68 v 8.28 h -14.56 v 3.2 h 14.56 v 19.88 h -24.68 v -8.28 z"
         style="font-family:Minecrafter;-inkscape-font-specification:Minecrafter;text-align:center;text-anchor:middle;fill:#ffffff"
         id="path2009" /><path
         d="m 682.25178,775.19859 v 31.36 h -9.88 v -31.36 z"
         style="font-family:Minecrafter;-inkscape-font-specification:Minecrafter;text-align:center;text-anchor:middle;fill:#ffffff"
         id="path2011" /><path
         d="m 260.27172,848.96316 v -3.2 h -14.56 v -19.88 h 24.68 v 8.28 h -14.56 v 3.2 h 14.56 v 19.88 h -24.68 v -8.28 z"
         style="font-family:Minecrafter;-inkscape-font-specification:Minecrafter;text-align:center;text-anchor:middle;fill:#ffffff"
         id="path2013" /><path
         d="m 273.35172,853.40316 v -23.68 h 3.6 v -3.84 h 21.72 v 3.84 h 3.8 v 23.68 h -3.8 v 3.84 h -21.72 v -3.84 z m 9.88,-4.32 h 9.12 v -14.8 h -9.12 z"
         style="font-family:Minecrafter;-inkscape-font-specification:Minecrafter;text-align:center;text-anchor:middle;fill:#ffffff"
         id="path2015" /><path
         d="m 329.15172,825.88316 v 8.28 h -13.36 v 3.2 h 13.36 v 8.4 h -13.48 v 11.48 h -10.24 v -31.36 z"
         style="font-family:Minecrafter;-inkscape-font-specification:Minecrafter;text-align:center;text-anchor:middle;fill:#ffffff"
         id="path2017" /><path
         d="m 331.59172,834.16316 v -8.28 h 23.96 v 8.28 h -6.8 v 23.08 h -10.36 v -23.08 z"
         style="font-family:Minecrafter;-inkscape-font-specification:Minecrafter;text-align:center;text-anchor:middle;fill:#ffffff"
         id="path2019" /><path
         d="m 368.23171,825.88316 v 23.08 h 13.44 v 8.28 h -23.44 v -31.36 z"
         style="font-family:Minecrafter;-inkscape-font-specification:Minecrafter;text-align:center;text-anchor:middle;fill:#ffffff"
         id="path2021" /><path
         d="m 390.47174,846.00316 v -2.96 h -2.96 v -2.96 h -3.6 v -13.96 h 10.24 v 7.52 h 2.96 v 2.84 h 3.2 v -2.84 h 3 v -7.52 h 10.24 v 13.96 h -3.6 v 2.96 h -2.96 v 2.96 h -2.96 v 11.48 h -10.6 v -11.48 z"
         style="font-family:Minecrafter;-inkscape-font-specification:Minecrafter;text-align:center;text-anchor:middle;fill:#ffffff"
         id="path2023" /><path
         d="m 460.19174,825.88316 v 22.36 h -13.72 v 9 h -10.24 v -31.36 z m -13.6,14.8 h 3.24 v -7.4 h -3.24 z"
         style="font-family:Minecrafter;-inkscape-font-specification:Minecrafter;text-align:center;text-anchor:middle;fill:#ffffff"
         id="path2025" /><path
         d="m 486.63173,825.88316 v 8.28 h -13.36 v 3.2 h 13.36 v 8.4 h -13.36 v 3.2 h 13.36 v 8.28 h -23.72 v -31.36 z"
         style="font-family:Minecrafter;-inkscape-font-specification:Minecrafter;text-align:center;text-anchor:middle;fill:#ffffff"
         id="path2027" /><path
         d="m 513.31172,825.88316 v 8.28 h -13.36 v 3.2 h 13.36 v 8.4 h -13.36 v 3.2 h 13.36 v 8.28 h -23.72 v -31.36 z"
         style="font-family:Minecrafter;-inkscape-font-specification:Minecrafter;text-align:center;text-anchor:middle;fill:#ffffff"
         id="path2029" /></g><g
       id="layer4"
       inkscape:label="Outline"
       transform="matrix(0.55231403,0,0,0.55231403,48.987454,54.424884)"
       style="stroke:#ffffff;stroke-width:6.69909;stroke-linejoin:round;stroke-dasharray:none;stroke-opacity:1"><g
         id="g5881"
         inkscape:label="Right Arm"
         style="stroke:#ffffff;stroke-width:6.69909;stroke-linejoin:round;stroke-dasharray:none;stroke-opacity:1"><path
           style="fill:#ff2a2a;stroke:#ffffff;stroke-width:6.69909;stroke-linecap:butt;stroke-linejoin:round;stroke-dasharray:none;stroke-opacity:1"
           d="m 85.593697,93.540751 0.260559,27.228439 -66.051757,-5.60202 0.911957,-33.351583 z"
           id="path5832" /><path
           style="fill:#d38d5f;stroke:#ffffff;stroke-width:6.69909;stroke-linecap:butt;stroke-linejoin:round;stroke-dasharray:none;stroke-opacity:1"
           d="M 20.323617,82.076146 9.380131,87.287332 V 116.8608 l 10.292088,-1.95419 z"
           id="path5834" /><path
           style="fill:#aa0000;stroke:#ffffff;stroke-width:6.69909;stroke-linecap:butt;stroke-linejoin:round;stroke-dasharray:none;stroke-opacity:1"
           d="m 9.2498515,116.8608 76.6044045,7.16538 -0.130281,-3.51755 -65.530637,-5.47175 z"
           id="path5836" /></g><g
         id="g5876"
         inkscape:label="Head"
         style="stroke:#ffffff;stroke-width:6.69909;stroke-linejoin:round;stroke-dasharray:none;stroke-opacity:1"><ellipse
           style="fill:#ececec;stroke:#ffffff;stroke-width:6.69909;stroke-linecap:round;stroke-linejoin:round;stroke-dasharray:none;stroke-opacity:1;paint-order:markers stroke fill"
           id="path6810-3"
           cx="74.258888"
           cy="65.791199"
           rx="11.855443"
           ry="19.8025" /><path
           style="fill:#deaa87;stroke:#ffffff;stroke-width:6.69909;stroke-linecap:butt;stroke-linejoin:round;stroke-dasharray:none;stroke-opacity:1"
           d="m 131.45211,16.675789 0.52112,67.354551 10.55265,5.862582 2.73587,-4.559784 8.46818,-1.433076 -0.52112,-44.946461 z"
           id="path5838" /><path
           style="fill:#deaa87;stroke:#ffffff;stroke-width:6.69909;stroke-linecap:butt;stroke-linejoin:round;stroke-dasharray:none;stroke-opacity:1"
           d="M 131.19155,16.806068 75.692446,30.745985 77.125522,91.19572 132.23379,84.290899 Z"
           id="path5840"
           inkscape:label="path5840" /><path
           style="display:inline;fill:#aa4400;stroke:#ffffff;stroke-width:6.69909;stroke-linecap:butt;stroke-linejoin:round;stroke-dasharray:none;stroke-opacity:1"
           d="m 77.64664,91.19572 8.859012,1.954194 51.199878,-5.732304 -5.7323,-3.126711 z"
           id="path5842" /><path
           style="fill:#552200;stroke:#ffffff;stroke-width:6.69909;stroke-linecap:butt;stroke-linejoin:round;stroke-dasharray:none;stroke-opacity:1"
           d="M 72.174898,39.604997 63.837002,18.499703 81.815587,-4.4295062 79.470553,17.457466 101.35753,-4.6900655 98.491375,15.633552 127.15289,-9.6406903 124.80785,11.464605 152.42713,-3.6478286 147.4765,16.415229 162.8495,49.766807 120.11779,32.309339 119.59667,44.555621 90.41404,33.091019 77.907199,41.950031 Z"
           id="path5949"
           inkscape:label="Hair" /><g
           id="g5962"
           inkscape:label="Glass"
           style="stroke:#ffffff;stroke-width:6.69909;stroke-linejoin:round;stroke-dasharray:none;stroke-opacity:1"><path
             style="fill:#ffffff;stroke:#ffffff;stroke-width:6.69909;stroke-linecap:butt;stroke-linejoin:round;stroke-dasharray:none;stroke-opacity:1"
             d="m 82.336705,48.724571 13.288521,-2.084475 0.260559,10.682928 -16.93635,0.260559 z"
             id="path5952" /><ellipse
             style="fill:#000000;stroke:#ffffff;stroke-width:6.69909;stroke-linecap:round;stroke-linejoin:round;stroke-dasharray:none;stroke-opacity:1;paint-order:markers stroke fill"
             id="path5956"
             cx="87.873589"
             cy="52.632957"
             rx="1.3679358"
             ry="1.595925" /></g><g
           id="g5968"
           inkscape:label="Glass 2"
           transform="translate(27.452233,-1.2897022)"
           style="stroke:#ffffff;stroke-width:6.69909;stroke-linejoin:round;stroke-dasharray:none;stroke-opacity:1"><path
             style="fill:#ffffff;stroke:#ffffff;stroke-width:6.69909;stroke-linecap:butt;stroke-linejoin:round;stroke-dasharray:none;stroke-opacity:1"
             d="m 82.336705,48.724571 13.288521,-2.084475 0.260559,10.682928 -16.93635,0.260559 z"
             id="path5964" /><ellipse
             style="fill:#000000;stroke:#ffffff;stroke-width:6.69909;stroke-linecap:round;stroke-linejoin:round;stroke-dasharray:none;stroke-opacity:1;paint-order:markers stroke fill"
             id="ellipse5966"
             cx="87.873589"
             cy="52.632957"
             rx="1.3679358"
             ry="1.595925" /></g><path
           style="fill:none;stroke:#ffffff;stroke-width:6.69909;stroke-linecap:butt;stroke-linejoin:round;stroke-dasharray:none;stroke-opacity:1"
           d="m 95.437964,53.062033 13.449756,-1.2897"
           id="path5970" /><path
           style="fill:none;stroke:#ffffff;stroke-width:6.69909;stroke-linecap:butt;stroke-linejoin:round;stroke-dasharray:none;stroke-opacity:1"
           d="m 123.25868,51.219602 23.95162,4.421836 -0.55273,6.816997"
           id="path5972" /><path
           style="fill:none;stroke:#ffffff;stroke-width:6.69909;stroke-linecap:butt;stroke-linejoin:round;stroke-dasharray:none;stroke-opacity:1"
           d="m 101.1495,58.773573 -2.395158,4.05335 -18.240076,0.184243 19.345534,5.711539"
           id="path6700" /><path
           style="fill:#000000;stroke:#ffffff;stroke-width:6.69909;stroke-linecap:butt;stroke-linejoin:round;stroke-dasharray:none;stroke-opacity:1"
           d="M 85.212469,83.185793 C 92.006359,64.730925 113.20203,70.771662 117.3629,81.896092 105.48997,78.094794 96.755979,80.180568 85.212469,83.185793 Z"
           id="path6704"
           sodipodi:nodetypes="ccc" /><ellipse
           style="fill:#ececec;stroke:#ffffff;stroke-width:6.69909;stroke-linecap:round;stroke-linejoin:round;stroke-dasharray:none;stroke-opacity:1;paint-order:markers stroke fill"
           id="path6810"
           cx="149.17014"
           cy="62.013088"
           rx="11.855443"
           ry="19.8025" /><path
           style="color:#000000;fill:#e6e6e6;stroke:#ffffff;stroke-width:6.69909;stroke-linejoin:round;stroke-dasharray:none;stroke-opacity:1;paint-order:stroke fill markers"
           d="m 74.955078,23.310547 -3.433594,25.361328 0.78711,0.105469 3.339843,-24.666016 68.429683,0.775391 6.9375,17.728515 0.73829,-0.289062 -7.13282,-18.226563 z"
           id="path6812" /><path
           style="fill:#00ffff;stroke:#ffffff;stroke-width:6.69909;stroke-linecap:butt;stroke-linejoin:round;stroke-dasharray:none;stroke-opacity:1"
           d="m 117.12135,58.234979 c -2.74802,4.418563 -3.86203,8.539456 -0.13027,8.663593 4.22104,0.140412 3.8527,-3.982364 0.13027,-8.663593 z"
           id="path9194"
           sodipodi:nodetypes="csc" /></g><g
         id="g5894"
         inkscape:label="Right Leg (bad)"
         transform="matrix(-0.69409028,-0.05273047,-0.12307926,0.58293966,211.49416,78.075009)"
         style="display:inline;stroke:#ffffff;stroke-width:10.4482;stroke-linejoin:round;stroke-dasharray:none;stroke-opacity:1"><path
           style="fill:#333333;stroke:#ffffff;stroke-width:10.4482;stroke-linecap:butt;stroke-linejoin:round;stroke-dasharray:none;stroke-opacity:1"
           d="m 101.09697,177.96193 -44.425345,42.73171 31.397384,9.11957 42.340871,-48.59429 z"
           id="path5888" /><path
           style="fill:#000000;stroke:#ffffff;stroke-width:10.4482;stroke-linecap:butt;stroke-linejoin:round;stroke-dasharray:none;stroke-opacity:1"
           d="m 56.801906,220.56336 6.717422,33.78778 33.408693,7.51085 -8.598453,-32.04878 z"
           id="path5890"
           sodipodi:nodetypes="ccccc" /><path
           style="fill:#000000;stroke:#ffffff;stroke-width:10.4482;stroke-linecap:butt;stroke-linejoin:round;stroke-dasharray:none;stroke-opacity:1"
           d="m 88.329568,229.68293 9.119571,32.5699 49.115411,-70.35098 -2.34503,-12.37657 -4.55979,2.34504 -9.38013,-0.6514 z"
           id="path5892" /></g><g
         id="g5871"
         inkscape:label="Body"
         style="display:inline;stroke:#ffffff;stroke-width:6.69909;stroke-linejoin:round;stroke-dasharray:none;stroke-opacity:1"><path
           style="fill:#ff2a2a;stroke:#ffffff;stroke-width:6.69909;stroke-linecap:butt;stroke-linejoin:round;stroke-dasharray:none;stroke-opacity:1"
           d="m 85.723975,93.149914 1.433076,83.639496 51.720999,4.95063 0.25592,-71.40718 -3.19418,-9.90171 6.92427,-10.669362 -5.02825,-2.474458 z"
           id="path5844"
           sodipodi:nodetypes="cccccccc" /><path
           style="fill:#aa0000;stroke:#ffffff;stroke-width:6.69909;stroke-linecap:butt;stroke-linejoin:round;stroke-dasharray:none;stroke-opacity:1"
           d="m 139.00833,109.43486 10.68293,26.96788 0.13028,40.38667 -10.68293,5.08091 z"
           id="path5846"
           inkscape:label="path5846" /><ellipse
           style="fill:#ffffff;stroke:#ffffff;stroke-width:6.69909;stroke-linecap:round;stroke-linejoin:round;stroke-dasharray:none;stroke-opacity:1;paint-order:stroke fill markers"
           id="path7010"
           cx="125.52439"
           cy="115.42773"
           rx="10.096668"
           ry="10.031528" /><path
           style="fill:#782121;stroke:#ffffff;stroke-width:6.69909;stroke-linecap:butt;stroke-linejoin:round;stroke-dasharray:none;stroke-opacity:1"
           d="m 99.663892,91.716838 0.260559,16.675792"
           id="path7012" /><path
           style="fill:#782121;stroke:#ffffff;stroke-width:6.69909;stroke-linecap:butt;stroke-linejoin:round;stroke-dasharray:none;stroke-opacity:1"
           d="m 116.33968,89.632363 -2.21475,18.239147"
           id="path7014" /><g
           aria-label="michael"
           id="text9298"
           style="font-size:40px;line-height:1.25;font-family:'Comic Sans MS';-inkscape-font-specification:'Comic Sans MS';white-space:pre;shape-inside:url(#rect9300);stroke:#ffffff;stroke-width:25.3194;stroke-linejoin:round;stroke-dasharray:none;stroke-opacity:1"
           inkscape:label="michael text"
           transform="scale(0.26458333)"><path
             d="m 375.15039,541.62598 q -1.60156,0 -1.875,-1.69922 -0.35156,-2.14843 -0.70312,-6.05468 l -0.66407,-6.05469 q -0.19531,-1.34766 -0.66406,-2.63672 -0.66406,-1.75781 -1.44531,-1.75781 -0.72266,0 -2.69531,1.23047 -1.875,1.13281 -2.46094,1.8164 -0.0195,1.83594 0.0976,3.67188 l 0.58594,5.21484 q 0.3711,3.08594 0.3711,5.09766 0,0.85937 -0.54688,1.40625 -0.52734,0.5664 -1.36719,0.5664 -0.83984,0 -1.38672,-0.5664 -0.52734,-0.54688 -0.52734,-1.40625 0,-2.36328 -0.48828,-6.97266 -0.46875,-4.6289 -0.46875,-6.99219 0,-2.07031 -0.58594,-3.22265 -1.36719,0.625 -2.77344,2.03125 l -2.30468,2.57812 q -0.3125,0.46875 -0.9961,1.23047 0,1.17188 -0.21484,3.45703 -0.21484,2.28516 -0.21484,3.37891 0,0.58594 0.17578,1.64062 0.19531,1.05469 0.19531,1.52344 0,0.80078 -0.60547,1.34766 -0.58594,0.54687 -1.38672,0.54687 -2.20703,0 -2.20703,-5.01953 0,-1.17187 0.21484,-3.49609 0.21485,-2.32422 0.21485,-3.4961 0,-1.03515 -0.19531,-3.10546 -0.17579,-2.07032 -0.17579,-3.125 0,-4.4336 1.99219,-4.4336 0.76172,0 1.38672,0.66406 0.64453,0.66407 0.64453,1.44532 0,0.37109 -0.0976,1.15234 -0.0977,0.78125 -0.0977,1.19141 l 0.0391,2.05078 q 1.01563,-2.08985 2.98828,-3.76953 1.97266,-1.69922 3.35938,-1.69922 3.0664,0 4.21875,3.04687 1.07422,-1.42578 2.55859,-2.1289 1.48438,-0.72266 3.39844,-0.72266 3.26172,0 4.45312,3.51563 0.23438,0.70312 0.80079,5.48828 0.54687,3.35937 1.40625,11.1914 0.0586,0.78125 -0.52735,1.32813 -0.58594,0.54687 -1.42578,0.54687 z"
             id="path9304"
             style="stroke:#ffffff;stroke-width:25.3194;stroke-linejoin:round;stroke-dasharray:none;stroke-opacity:1" /><path
             d="m 385.15039,515.27833 q -0.9375,0 -1.62109,-0.66407 -0.6836,-0.66406 -0.6836,-1.60156 0,-0.9375 0.6836,-1.60156 0.68359,-0.66406 1.62109,-0.66406 0.9375,0 1.60156,0.66406 0.6836,0.66406 0.6836,1.60156 0,0.9375 -0.6836,1.60156 -0.66406,0.66407 -1.60156,0.66407 z m 0.87891,15.85937 q 0,1.17188 0.0586,3.51563 0.0781,2.32422 0.0781,3.49609 0,0.85938 -0.52735,1.40625 -0.52734,0.54688 -1.38672,0.54688 -0.83984,0 -1.38672,-0.54688 -0.52734,-0.54687 -0.52734,-1.40625 0,-1.17187 -0.0781,-3.49609 -0.0586,-2.34375 -0.0586,-3.51563 0,-1.83594 0.19531,-4.57031 0.19532,-2.75391 0.19532,-4.58984 0,-0.87891 0.52734,-1.42579 0.54688,-0.54687 1.38672,-0.54687 0.83984,0 1.36719,0.54687 0.54687,0.54688 0.54687,1.42579 0,1.83593 -0.19531,4.58984 -0.19531,2.73437 -0.19531,4.57031 z"
             id="path9306"
             style="stroke:#ffffff;stroke-width:25.3194;stroke-linejoin:round;stroke-dasharray:none;stroke-opacity:1" /><path
             d="m 401.45898,541.23536 q -4.0039,0 -6.67968,-2.42188 -2.8125,-2.53906 -2.8125,-6.69922 0,-3.96484 2.63672,-8.18359 2.92968,-4.6875 6.60156,-4.6875 1.91406,0 4.27734,0.89844 2.98828,1.15234 2.98828,2.8125 0,0.74219 -0.48828,1.32812 -0.48828,0.56641 -1.21094,0.56641 -0.5664,0 -0.99609,-0.33203 -0.41016,-0.35156 -0.80078,-0.6836 -1.15234,-0.91796 -3.76953,-0.91796 -1.99219,0 -3.94531,3.55468 -1.77735,3.26172 -1.77735,5.64453 0,2.57813 1.75781,4.0625 1.64063,1.38672 4.21875,1.38672 1.17188,0 2.5,-0.625 l 2.26563,-1.21093 q 0.58594,-0.3125 0.83984,-0.3125 0.72266,0 1.25,0.58593 0.52735,0.56641 0.52735,1.3086 0,1.42578 -3.00782,2.7539 -2.63671,1.17188 -4.375,1.17188 z"
             id="path9308"
             style="stroke:#ffffff;stroke-width:25.3194;stroke-linejoin:round;stroke-dasharray:none;stroke-opacity:1" /><path
             d="m 429.52539,541.21583 q -1.38672,0 -1.81641,-1.48438 -0.44921,-1.60156 -0.82031,-4.55078 -0.35156,-2.83203 -0.35156,-4.64844 0,-0.50781 0.0391,-1.54297 0.0586,-1.03515 0.0586,-1.54296 0,-3.67188 -1.83594,-3.67188 -2.48047,0 -4.4336,2.24609 -0.99609,1.15235 -2.73437,4.39454 0,7.4414 -0.625,8.80859 -0.54688,1.21094 -1.69922,1.21094 -0.80078,0 -1.40625,-0.54688 -0.60547,-0.54687 -0.60547,-1.32812 0,-0.27344 0.17578,-0.85938 0.15625,-0.48828 0.21485,-2.85156 l 0.0586,-2.89063 0.0586,-14.35546 q 0.13672,-2.42188 0.13672,-3.26172 0,-0.9961 -0.19531,-1.875 -0.17578,-0.89844 -0.17578,-1.85547 0,-0.82031 0.56641,-1.34766 0.5664,-0.54687 1.38671,-0.54687 1.60157,0 1.875,1.71875 0.3125,1.89453 0.3125,3.41797 0,2.05078 -0.13671,4.27734 -0.11719,2.12891 -0.0977,4.27734 l 0.0195,1.71875 q 1.60156,-2.14843 3.41797,-3.20312 1.83594,-1.07422 3.88672,-1.07422 3.24219,0 4.45312,2.10937 0.85938,1.48438 0.97657,5 l 0.15625,3.73047 0.39062,4.0625 q 0.27344,2.28516 0.66406,4.02344 0.0781,0.33203 0.0781,0.56641 0,0.80078 -0.58594,1.32812 -0.58594,0.54688 -1.40625,0.54688 z"
             id="path9310"
             style="stroke:#ffffff;stroke-width:25.3194;stroke-linejoin:round;stroke-dasharray:none;stroke-opacity:1" /><path
             d="m 451.53711,541.29395 q -0.37109,0 -1.34766,-0.85937 -0.8789,-0.80078 -1.30859,-1.42578 -1.875,1.01562 -3.30078,1.52343 -1.42578,0.52735 -2.38281,0.52735 -4.57032,0 -6.66016,-2.57813 -1.97266,-2.42187 -1.97266,-7.42187 0,-4.72657 3.24219,-8.08594 3.26172,-3.35938 7.77344,-3.35938 1.69922,0 3.80859,0.87891 2.65625,1.09375 2.65625,2.63672 0,0.52734 -0.39062,0.9375 -0.19532,0.74219 -0.3125,2.44141 -0.0977,1.69921 -0.11719,4.35546 -0.0195,2.42188 0.33203,3.82813 0.19531,0.85937 1.23047,3.4375 0.13672,0.35156 0.44922,1.03516 l 0.11719,0.33203 q 0,0.78125 -0.54688,1.28906 -0.54687,0.50781 -1.26953,0.50781 z m -4.0625,-13.57422 q 0,-0.83984 0.0977,-1.8164 0.11718,-0.9961 0.33203,-2.10938 -0.72266,-0.37109 -1.25,-0.54687 -0.50782,-0.17578 -0.82032,-0.17578 -3.02734,0 -5.23437,2.48046 -2.1875,2.46094 -2.1875,5.6836 0,3.20312 1.13281,4.80469 1.13281,1.60156 3.39844,1.60156 1.875,0 3.18359,-0.6836 0.70313,-0.37109 1.97266,-1.48437 -0.625,-5.17578 -0.625,-7.75391 z"
             id="path9312"
             style="stroke:#ffffff;stroke-width:25.3194;stroke-linejoin:round;stroke-dasharray:none;stroke-opacity:1" /><path
             d="m 465.87305,540.90333 q -4.41407,0 -7.14844,-2.20703 -2.98828,-2.44141 -2.98828,-6.83594 0,-5.07813 2.46094,-8.51563 2.67578,-3.75 7.14843,-3.75 3.24219,0 5.29297,1.09375 2.51953,1.34766 2.51953,4.14063 0,1.95312 -2.20703,3.55469 -0.97656,0.70312 -4.14062,2.1875 l -7.46094,3.53515 q 1.09375,1.6211 2.71484,2.44141 1.64063,0.82031 3.8086,0.82031 1.34765,0 3.16406,-0.50781 2.30469,-0.64453 2.96875,-1.67969 0.66406,-1.05469 1.42578,-1.05469 0.68359,0 1.21094,0.52735 0.54687,0.50781 0.54687,1.1914 0,2.16797 -3.49609,3.73047 -2.98828,1.32813 -5.82031,1.32813 z m -0.52735,-17.79297 q -2.38281,0 -3.96484,1.85547 -1.58203,1.83593 -2.36328,5.54687 l 5.99609,-2.85156 q 3.53516,-1.71875 5.03906,-2.98828 -1.67968,-1.5625 -4.70703,-1.5625 z"
             id="path9314"
             style="stroke:#ffffff;stroke-width:25.3194;stroke-linejoin:round;stroke-dasharray:none;stroke-opacity:1" /><path
             d="m 483.62695,524.65333 -0.29297,9.70703 q 0,1.54297 -0.15625,4.53125 -0.19531,1.95312 -1.91406,1.95312 -1.91406,0 -1.91406,-1.99218 0,-2.36329 0.21484,-7.08985 0.21485,-4.74609 0.21485,-7.10937 0,-3.08594 0.0977,-7.05078 0.0977,-3.98438 0.0977,-7.07032 0,-1.95312 1.91406,-1.95312 1.9336,0 1.9336,1.95312 0,3.08594 -0.0977,7.07032 -0.0977,3.96484 -0.0977,7.05078 z"
             id="path9316"
             style="stroke:#ffffff;stroke-width:25.3194;stroke-linejoin:round;stroke-dasharray:none;stroke-opacity:1" /></g></g><g
         id="g5886"
         inkscape:label="Left Arm"
         style="display:inline;stroke:#ffffff;stroke-width:6.69909;stroke-linejoin:round;stroke-dasharray:none;stroke-opacity:1"><path
           style="fill:#ff5555;stroke:#ffffff;stroke-width:6.69909;stroke-linecap:butt;stroke-linejoin:round;stroke-dasharray:none;stroke-opacity:1"
           d="m 145.39203,85.333138 -9.51041,15.242712 30.87627,-5.862582 5.99286,-14.982153 z"
           id="path5826" /><path
           style="fill:#aa0000;stroke:#ffffff;stroke-width:6.69909;stroke-linecap:butt;stroke-linejoin:round;stroke-dasharray:none;stroke-opacity:1"
           d="m 135.62106,100.96669 27.35872,69.30874 27.48899,-1.43307 -23.97144,-73.868533 z"
           id="path5828" /><path
           style="fill:#ff0000;stroke:#ffffff;stroke-width:6.69909;stroke-linecap:butt;stroke-linejoin:round;stroke-dasharray:none;stroke-opacity:1"
           d="m 172.75075,79.731115 20.71445,71.132655 -2.86615,17.97859 -24.36228,-73.998814 z"
           id="path5830" /></g><g
         id="g5857"
         inkscape:label="Left Leg"
         style="display:inline;stroke:#ffffff;stroke-width:6.69909;stroke-linejoin:round;stroke-dasharray:none;stroke-opacity:1"><path
           style="fill:#333333;stroke:#ffffff;stroke-width:6.69909;stroke-linecap:butt;stroke-linejoin:round;stroke-dasharray:none;stroke-opacity:1"
           d="m 101.09697,177.96193 -44.425345,42.73171 31.397384,9.11957 42.340871,-48.59429 z"
           id="path5848" /><path
           style="fill:#000000;stroke:#ffffff;stroke-width:6.69909;stroke-linecap:butt;stroke-linejoin:round;stroke-dasharray:none;stroke-opacity:1"
           d="m 56.801906,220.56336 10.161806,29.18263 29.964309,12.116 -8.598453,-32.04878 z"
           id="path5850" /><path
           style="fill:#000000;stroke:#ffffff;stroke-width:6.69909;stroke-linecap:butt;stroke-linejoin:round;stroke-dasharray:none;stroke-opacity:1"
           d="m 88.329568,229.68293 9.119571,32.5699 49.115411,-70.35098 -2.34503,-12.37657 -4.55979,2.34504 -9.38013,-0.6514 z"
           id="path5852" /></g></g><g
       id="g1973"
       inkscape:label="Michael"
       transform="matrix(0.55231403,0,0,0.55231403,48.987454,54.424884)"><g
         id="g1881"
         inkscape:label="Right Arm"><path
           style="fill:#ff2a2a;stroke:#000000;stroke-width:0.264583px;stroke-linecap:butt;stroke-linejoin:miter;stroke-opacity:1"
           d="m 85.593697,93.540751 0.260559,27.228439 -66.051757,-5.60202 0.911957,-33.351583 z"
           id="path1875" /><path
           style="fill:#d38d5f;stroke:#000000;stroke-width:0.264583px;stroke-linecap:butt;stroke-linejoin:miter;stroke-opacity:1"
           d="M 20.323617,82.076146 9.380131,87.287332 V 116.8608 l 10.292088,-1.95419 z"
           id="path1877" /><path
           style="fill:#aa0000;stroke:#000000;stroke-width:0.264583px;stroke-linecap:butt;stroke-linejoin:miter;stroke-opacity:1"
           d="m 9.2498515,116.8608 76.6044045,7.16538 -0.130281,-3.51755 -65.530637,-5.47175 z"
           id="path1879" /></g><g
         id="g1919"
         inkscape:label="Head"><ellipse
           style="fill:#ececec;stroke:#000000;stroke-width:0.79375;stroke-linecap:round;stroke-linejoin:round;stroke-dasharray:none;paint-order:markers stroke fill"
           id="ellipse1883"
           cx="74.258888"
           cy="65.791199"
           rx="11.855443"
           ry="19.8025" /><path
           style="fill:#deaa87;stroke:#000000;stroke-width:0.264583px;stroke-linecap:butt;stroke-linejoin:miter;stroke-opacity:1"
           d="m 131.45211,16.675789 0.52112,67.354551 10.55265,5.862582 2.73587,-4.559784 8.46818,-1.433076 -0.52112,-44.946461 z"
           id="path1885" /><path
           style="fill:#deaa87;stroke:#000000;stroke-width:0.264583px;stroke-linecap:butt;stroke-linejoin:miter;stroke-opacity:1"
           d="M 131.19155,16.806068 75.692446,30.745985 77.125522,91.19572 132.23379,84.290899 Z"
           id="path1887"
           inkscape:label="path5840" /><path
           style="display:inline;fill:#aa4400;stroke:#000000;stroke-width:0.264583px;stroke-linecap:butt;stroke-linejoin:miter;stroke-opacity:1"
           d="m 77.64664,91.19572 8.859012,1.954194 51.199878,-5.732304 -5.7323,-3.126711 z"
           id="path1889" /><path
           style="fill:#552200;stroke:#000000;stroke-width:0.264583px;stroke-linecap:butt;stroke-linejoin:miter;stroke-opacity:1"
           d="M 72.174898,39.604997 63.837002,18.499703 81.815587,-4.4295062 79.470553,17.457466 101.35753,-4.6900655 98.491375,15.633552 127.15289,-9.6406903 124.80785,11.464605 152.42713,-3.6478286 147.4765,16.415229 162.8495,49.766807 120.11779,32.309339 119.59667,44.555621 90.41404,33.091019 77.907199,41.950031 Z"
           id="path1891"
           inkscape:label="Hair" /><g
           id="g1897"
           inkscape:label="Glass"><path
             style="fill:#ffffff;stroke:#000000;stroke-width:2.64583;stroke-linecap:butt;stroke-linejoin:miter;stroke-dasharray:none;stroke-opacity:1"
             d="m 82.336705,48.724571 13.288521,-2.084475 0.260559,10.682928 -16.93635,0.260559 z"
             id="path1893" /><ellipse
             style="fill:#000000;stroke-width:2.64583;stroke-linecap:round;stroke-linejoin:round;stroke-dasharray:none;paint-order:markers stroke fill"
             id="ellipse1895"
             cx="87.873589"
             cy="52.632957"
             rx="1.3679358"
             ry="1.595925" /></g><g
           id="g1903"
           inkscape:label="Glass 2"
           transform="translate(27.452233,-1.2897022)"><path
             style="fill:#ffffff;stroke:#000000;stroke-width:2.64583;stroke-linecap:butt;stroke-linejoin:miter;stroke-dasharray:none;stroke-opacity:1"
             d="m 82.336705,48.724571 13.288521,-2.084475 0.260559,10.682928 -16.93635,0.260559 z"
             id="path1899" /><ellipse
             style="fill:#000000;stroke-width:2.64583;stroke-linecap:round;stroke-linejoin:round;stroke-dasharray:none;paint-order:markers stroke fill"
             id="ellipse1901"
             cx="87.873589"
             cy="52.632957"
             rx="1.3679358"
             ry="1.595925" /></g><path
           style="fill:none;stroke:#000000;stroke-width:1.5875;stroke-linecap:butt;stroke-linejoin:miter;stroke-dasharray:none;stroke-opacity:1"
           d="m 95.437964,53.062033 13.449756,-1.2897"
           id="path1905" /><path
           style="fill:none;stroke:#000000;stroke-width:1.5875;stroke-linecap:butt;stroke-linejoin:miter;stroke-dasharray:none;stroke-opacity:1"
           d="m 123.25868,51.219602 23.95162,4.421836 -0.55273,6.816997"
           id="path1907" /><path
           style="fill:none;stroke:#000000;stroke-width:0.79375;stroke-linecap:butt;stroke-linejoin:miter;stroke-dasharray:none;stroke-opacity:1"
           d="m 101.1495,58.773573 -2.395158,4.05335 -18.240076,0.184243 19.345534,5.711539"
           id="path1909" /><path
           style="fill:#000000;stroke:#000000;stroke-width:0.264583px;stroke-linecap:butt;stroke-linejoin:miter;stroke-opacity:1"
           d="M 85.212469,83.185793 C 92.006359,64.730925 113.20203,70.771662 117.3629,81.896092 105.48997,78.094794 96.755979,80.180568 85.212469,83.185793 Z"
           id="path1911"
           sodipodi:nodetypes="ccc" /><ellipse
           style="fill:#ececec;stroke:#000000;stroke-width:0.79375;stroke-linecap:round;stroke-linejoin:round;stroke-dasharray:none;paint-order:markers stroke fill"
           id="ellipse1913"
           cx="149.17014"
           cy="62.013088"
           rx="11.855443"
           ry="19.8025" /><path
           style="color:#000000;fill:#e6e6e6;stroke:#000000;-inkscape-stroke:none;paint-order:stroke fill markers"
           d="m 74.955078,23.310547 -3.433594,25.361328 0.78711,0.105469 3.339843,-24.666016 68.429683,0.775391 6.9375,17.728515 0.73829,-0.289062 -7.13282,-18.226563 z"
           id="path1915" /><path
           style="fill:#00ffff;stroke:#000000;stroke-width:0.264583px;stroke-linecap:butt;stroke-linejoin:miter;stroke-opacity:1"
           d="m 117.12135,58.234979 c -2.74802,4.418563 -3.86203,8.539456 -0.13027,8.663593 4.22104,0.140412 3.8527,-3.982364 0.13027,-8.663593 z"
           id="path1917"
           sodipodi:nodetypes="csc" /></g><g
         id="g1927"
         inkscape:label="Right Leg (bad)"
         transform="matrix(-0.69409028,-0.05273047,-0.12307926,0.58293966,211.49416,78.075009)"
         style="display:inline"><path
           style="fill:#333333;stroke:#000000;stroke-width:0.264583px;stroke-linecap:butt;stroke-linejoin:miter;stroke-opacity:1"
           d="m 101.09697,177.96193 -44.425345,42.73171 31.397384,9.11957 42.340871,-48.59429 z"
           id="path1921" /><path
           style="fill:#000000;stroke:#000000;stroke-width:0.264583px;stroke-linecap:butt;stroke-linejoin:miter;stroke-opacity:1"
           d="m 56.801906,220.56336 6.717422,33.78778 33.408693,7.51085 -8.598453,-32.04878 z"
           id="path1923"
           sodipodi:nodetypes="ccccc" /><path
           style="fill:#000000;stroke:#000000;stroke-width:0.264583px;stroke-linecap:butt;stroke-linejoin:miter;stroke-opacity:1"
           d="m 88.329568,229.68293 9.119571,32.5699 49.115411,-70.35098 -2.34503,-12.37657 -4.55979,2.34504 -9.38013,-0.6514 z"
           id="path1925" /></g><g
         id="g1955"
         inkscape:label="Body"
         style="display:inline"><path
           style="fill:#ff2a2a;stroke:#000000;stroke-width:0.264583px;stroke-linecap:butt;stroke-linejoin:miter;stroke-opacity:1"
           d="m 85.723975,93.149914 1.433076,83.639496 51.720999,4.95063 0.25592,-71.40718 -3.19418,-9.90171 6.92427,-10.669362 -5.02825,-2.474458 z"
           id="path1929"
           sodipodi:nodetypes="cccccccc" /><path
           style="fill:#aa0000;stroke:#000000;stroke-width:0.264583px;stroke-linecap:butt;stroke-linejoin:miter;stroke-opacity:1"
           d="m 139.00833,109.43486 10.68293,26.96788 0.13028,40.38667 -10.68293,5.08091 z"
           id="path1931"
           inkscape:label="path5846" /><ellipse
           style="fill:#ffffff;stroke:#cccccc;stroke-width:4.36562;stroke-linecap:round;stroke-linejoin:round;stroke-dasharray:none;paint-order:stroke fill markers"
           id="ellipse1933"
           cx="125.52439"
           cy="115.42773"
           rx="10.096668"
           ry="10.031528" /><path
           style="fill:#782121;stroke:#782121;stroke-width:1.05833;stroke-linecap:butt;stroke-linejoin:miter;stroke-dasharray:none;stroke-opacity:1"
           d="m 99.663892,91.716838 0.260559,16.675792"
           id="path1935" /><path
           style="fill:#782121;stroke:#782121;stroke-width:1.05833;stroke-linecap:butt;stroke-linejoin:miter;stroke-dasharray:none;stroke-opacity:1"
           d="m 116.33968,89.632363 -2.21475,18.239147"
           id="path1937" /><g
           aria-label="michael"
           id="g1953"
           style="font-size:40px;line-height:1.25;font-family:'Comic Sans MS';-inkscape-font-specification:'Comic Sans MS';white-space:pre;shape-inside:url(#rect9300)"
           inkscape:label="michael text"
           transform="scale(0.26458333)"><path
             d="m 375.15039,541.62598 q -1.60156,0 -1.875,-1.69922 -0.35156,-2.14843 -0.70312,-6.05468 l -0.66407,-6.05469 q -0.19531,-1.34766 -0.66406,-2.63672 -0.66406,-1.75781 -1.44531,-1.75781 -0.72266,0 -2.69531,1.23047 -1.875,1.13281 -2.46094,1.8164 -0.0195,1.83594 0.0976,3.67188 l 0.58594,5.21484 q 0.3711,3.08594 0.3711,5.09766 0,0.85937 -0.54688,1.40625 -0.52734,0.5664 -1.36719,0.5664 -0.83984,0 -1.38672,-0.5664 -0.52734,-0.54688 -0.52734,-1.40625 0,-2.36328 -0.48828,-6.97266 -0.46875,-4.6289 -0.46875,-6.99219 0,-2.07031 -0.58594,-3.22265 -1.36719,0.625 -2.77344,2.03125 l -2.30468,2.57812 q -0.3125,0.46875 -0.9961,1.23047 0,1.17188 -0.21484,3.45703 -0.21484,2.28516 -0.21484,3.37891 0,0.58594 0.17578,1.64062 0.19531,1.05469 0.19531,1.52344 0,0.80078 -0.60547,1.34766 -0.58594,0.54687 -1.38672,0.54687 -2.20703,0 -2.20703,-5.01953 0,-1.17187 0.21484,-3.49609 0.21485,-2.32422 0.21485,-3.4961 0,-1.03515 -0.19531,-3.10546 -0.17579,-2.07032 -0.17579,-3.125 0,-4.4336 1.99219,-4.4336 0.76172,0 1.38672,0.66406 0.64453,0.66407 0.64453,1.44532 0,0.37109 -0.0976,1.15234 -0.0977,0.78125 -0.0977,1.19141 l 0.0391,2.05078 q 1.01563,-2.08985 2.98828,-3.76953 1.97266,-1.69922 3.35938,-1.69922 3.0664,0 4.21875,3.04687 1.07422,-1.42578 2.55859,-2.1289 1.48438,-0.72266 3.39844,-0.72266 3.26172,0 4.45312,3.51563 0.23438,0.70312 0.80079,5.48828 0.54687,3.35937 1.40625,11.1914 0.0586,0.78125 -0.52735,1.32813 -0.58594,0.54687 -1.42578,0.54687 z"
             id="path1939" /><path
             d="m 385.15039,515.27833 q -0.9375,0 -1.62109,-0.66407 -0.6836,-0.66406 -0.6836,-1.60156 0,-0.9375 0.6836,-1.60156 0.68359,-0.66406 1.62109,-0.66406 0.9375,0 1.60156,0.66406 0.6836,0.66406 0.6836,1.60156 0,0.9375 -0.6836,1.60156 -0.66406,0.66407 -1.60156,0.66407 z m 0.87891,15.85937 q 0,1.17188 0.0586,3.51563 0.0781,2.32422 0.0781,3.49609 0,0.85938 -0.52735,1.40625 -0.52734,0.54688 -1.38672,0.54688 -0.83984,0 -1.38672,-0.54688 -0.52734,-0.54687 -0.52734,-1.40625 0,-1.17187 -0.0781,-3.49609 -0.0586,-2.34375 -0.0586,-3.51563 0,-1.83594 0.19531,-4.57031 0.19532,-2.75391 0.19532,-4.58984 0,-0.87891 0.52734,-1.42579 0.54688,-0.54687 1.38672,-0.54687 0.83984,0 1.36719,0.54687 0.54687,0.54688 0.54687,1.42579 0,1.83593 -0.19531,4.58984 -0.19531,2.73437 -0.19531,4.57031 z"
             id="path1941" /><path
             d="m 401.45898,541.23536 q -4.0039,0 -6.67968,-2.42188 -2.8125,-2.53906 -2.8125,-6.69922 0,-3.96484 2.63672,-8.18359 2.92968,-4.6875 6.60156,-4.6875 1.91406,0 4.27734,0.89844 2.98828,1.15234 2.98828,2.8125 0,0.74219 -0.48828,1.32812 -0.48828,0.56641 -1.21094,0.56641 -0.5664,0 -0.99609,-0.33203 -0.41016,-0.35156 -0.80078,-0.6836 -1.15234,-0.91796 -3.76953,-0.91796 -1.99219,0 -3.94531,3.55468 -1.77735,3.26172 -1.77735,5.64453 0,2.57813 1.75781,4.0625 1.64063,1.38672 4.21875,1.38672 1.17188,0 2.5,-0.625 l 2.26563,-1.21093 q 0.58594,-0.3125 0.83984,-0.3125 0.72266,0 1.25,0.58593 0.52735,0.56641 0.52735,1.3086 0,1.42578 -3.00782,2.7539 -2.63671,1.17188 -4.375,1.17188 z"
             id="path1943" /><path
             d="m 429.52539,541.21583 q -1.38672,0 -1.81641,-1.48438 -0.44921,-1.60156 -0.82031,-4.55078 -0.35156,-2.83203 -0.35156,-4.64844 0,-0.50781 0.0391,-1.54297 0.0586,-1.03515 0.0586,-1.54296 0,-3.67188 -1.83594,-3.67188 -2.48047,0 -4.4336,2.24609 -0.99609,1.15235 -2.73437,4.39454 0,7.4414 -0.625,8.80859 -0.54688,1.21094 -1.69922,1.21094 -0.80078,0 -1.40625,-0.54688 -0.60547,-0.54687 -0.60547,-1.32812 0,-0.27344 0.17578,-0.85938 0.15625,-0.48828 0.21485,-2.85156 l 0.0586,-2.89063 0.0586,-14.35546 q 0.13672,-2.42188 0.13672,-3.26172 0,-0.9961 -0.19531,-1.875 -0.17578,-0.89844 -0.17578,-1.85547 0,-0.82031 0.56641,-1.34766 0.5664,-0.54687 1.38671,-0.54687 1.60157,0 1.875,1.71875 0.3125,1.89453 0.3125,3.41797 0,2.05078 -0.13671,4.27734 -0.11719,2.12891 -0.0977,4.27734 l 0.0195,1.71875 q 1.60156,-2.14843 3.41797,-3.20312 1.83594,-1.07422 3.88672,-1.07422 3.24219,0 4.45312,2.10937 0.85938,1.48438 0.97657,5 l 0.15625,3.73047 0.39062,4.0625 q 0.27344,2.28516 0.66406,4.02344 0.0781,0.33203 0.0781,0.56641 0,0.80078 -0.58594,1.32812 -0.58594,0.54688 -1.40625,0.54688 z"
             id="path1945" /><path
             d="m 451.53711,541.29395 q -0.37109,0 -1.34766,-0.85937 -0.8789,-0.80078 -1.30859,-1.42578 -1.875,1.01562 -3.30078,1.52343 -1.42578,0.52735 -2.38281,0.52735 -4.57032,0 -6.66016,-2.57813 -1.97266,-2.42187 -1.97266,-7.42187 0,-4.72657 3.24219,-8.08594 3.26172,-3.35938 7.77344,-3.35938 1.69922,0 3.80859,0.87891 2.65625,1.09375 2.65625,2.63672 0,0.52734 -0.39062,0.9375 -0.19532,0.74219 -0.3125,2.44141 -0.0977,1.69921 -0.11719,4.35546 -0.0195,2.42188 0.33203,3.82813 0.19531,0.85937 1.23047,3.4375 0.13672,0.35156 0.44922,1.03516 l 0.11719,0.33203 q 0,0.78125 -0.54688,1.28906 -0.54687,0.50781 -1.26953,0.50781 z m -4.0625,-13.57422 q 0,-0.83984 0.0977,-1.8164 0.11718,-0.9961 0.33203,-2.10938 -0.72266,-0.37109 -1.25,-0.54687 -0.50782,-0.17578 -0.82032,-0.17578 -3.02734,0 -5.23437,2.48046 -2.1875,2.46094 -2.1875,5.6836 0,3.20312 1.13281,4.80469 1.13281,1.60156 3.39844,1.60156 1.875,0 3.18359,-0.6836 0.70313,-0.37109 1.97266,-1.48437 -0.625,-5.17578 -0.625,-7.75391 z"
             id="path1947" /><path
             d="m 465.87305,540.90333 q -4.41407,0 -7.14844,-2.20703 -2.98828,-2.44141 -2.98828,-6.83594 0,-5.07813 2.46094,-8.51563 2.67578,-3.75 7.14843,-3.75 3.24219,0 5.29297,1.09375 2.51953,1.34766 2.51953,4.14063 0,1.95312 -2.20703,3.55469 -0.97656,0.70312 -4.14062,2.1875 l -7.46094,3.53515 q 1.09375,1.6211 2.71484,2.44141 1.64063,0.82031 3.8086,0.82031 1.34765,0 3.16406,-0.50781 2.30469,-0.64453 2.96875,-1.67969 0.66406,-1.05469 1.42578,-1.05469 0.68359,0 1.21094,0.52735 0.54687,0.50781 0.54687,1.1914 0,2.16797 -3.49609,3.73047 -2.98828,1.32813 -5.82031,1.32813 z m -0.52735,-17.79297 q -2.38281,0 -3.96484,1.85547 -1.58203,1.83593 -2.36328,5.54687 l 5.99609,-2.85156 q 3.53516,-1.71875 5.03906,-2.98828 -1.67968,-1.5625 -4.70703,-1.5625 z"
             id="path1949" /><path
             d="m 483.62695,524.65333 -0.29297,9.70703 q 0,1.54297 -0.15625,4.53125 -0.19531,1.95312 -1.91406,1.95312 -1.91406,0 -1.91406,-1.99218 0,-2.36329 0.21484,-7.08985 0.21485,-4.74609 0.21485,-7.10937 0,-3.08594 0.0977,-7.05078 0.0977,-3.98438 0.0977,-7.07032 0,-1.95312 1.91406,-1.95312 1.9336,0 1.9336,1.95312 0,3.08594 -0.0977,7.07032 -0.0977,3.96484 -0.0977,7.05078 z"
             id="path1951" /></g></g><g
         id="g1963"
         inkscape:label="Left Arm"
         style="display:inline"><path
           style="fill:#ff5555;stroke:#000000;stroke-width:0.264583px;stroke-linecap:butt;stroke-linejoin:miter;stroke-opacity:1"
           d="m 145.39203,85.333138 -9.51041,15.242712 30.87627,-5.862582 5.99286,-14.982153 z"
           id="path1957" /><path
           style="fill:#aa0000;stroke:#000000;stroke-width:0.264583px;stroke-linecap:butt;stroke-linejoin:miter;stroke-opacity:1"
           d="m 135.62106,100.96669 27.35872,69.30874 27.48899,-1.43307 -23.97144,-73.868533 z"
           id="path1959" /><path
           style="fill:#ff0000;stroke:#000000;stroke-width:0.264583px;stroke-linecap:butt;stroke-linejoin:miter;stroke-opacity:1"
           d="m 172.75075,79.731115 20.71445,71.132655 -2.86615,17.97859 -24.36228,-73.998814 z"
           id="path1961" /></g><g
         id="g1971"
         inkscape:label="Left Leg"
         style="display:inline"><path
           style="fill:#333333;stroke:#000000;stroke-width:0.264583px;stroke-linecap:butt;stroke-linejoin:miter;stroke-opacity:1"
           d="m 101.09697,177.96193 -44.425345,42.73171 31.397384,9.11957 42.340871,-48.59429 z"
           id="path1965" /><path
           style="fill:#000000;stroke:#000000;stroke-width:0.264583px;stroke-linecap:butt;stroke-linejoin:miter;stroke-opacity:1"
           d="m 56.801906,220.56336 10.161806,29.18263 29.964309,12.116 -8.598453,-32.04878 z"
           id="path1967" /><path
           style="fill:#000000;stroke:#000000;stroke-width:0.264583px;stroke-linecap:butt;stroke-linejoin:miter;stroke-opacity:1"
           d="m 88.329568,229.68293 9.119571,32.5699 49.115411,-70.35098 -2.34503,-12.37657 -4.55979,2.34504 -9.38013,-0.6514 z"
           id="path1969" /></g></g></g></svg>
