<?xml version="1.0" encoding="UTF-8" standalone="no"?>
<svg
   width="2131.4285"
   height="1459.7911"
   viewBox="0 0 563.94044 386.23641"
   version="1.1"
   id="svg8"
   xmlns="http://www.w3.org/2000/svg"
   xmlns:svg="http://www.w3.org/2000/svg"
   xmlns:rdf="http://www.w3.org/1999/02/22-rdf-syntax-ns#"
   xmlns:cc="http://creativecommons.org/ns#"
   xmlns:dc="http://purl.org/dc/elements/1.1/">
  <defs
     id="defs2">
    <rect
       x="8.3761454"
       y="1294.1145"
       width="2131.729"
       height="314.10544"
       id="rect1123" />
    <rect
       x="8.3761454"
       y="-293.1651"
       width="2303.4399"
       height="305.72931"
       id="rect320" />
    <rect
       x="190.2959"
       y="124.01306"
       width="491.77594"
       height="121.8749"
       id="rect870" />
    <rect
       x="190.2959"
       y="124.01306"
       width="491.77594"
       height="121.8749"
       id="rect870-0" />
    <rect
       x="190.2959"
       y="124.01306"
       width="491.77594"
       height="121.8749"
       id="rect870-0-5" />
    <rect
       x="190.2959"
       y="124.01306"
       width="491.77594"
       height="121.8749"
       id="rect1750" />
    <rect
       x="190.2959"
       y="124.01306"
       width="491.77594"
       height="121.8749"
       id="rect870-3" />
    <rect
       x="190.2959"
       y="124.01306"
       width="491.77594"
       height="121.8749"
       id="rect1753" />
  </defs>
  <metadata
     id="metadata5">
    <rdf:RDF>
      <cc:Work
         rdf:about="">
        <dc:format>image/svg+xml</dc:format>
        <dc:type
           rdf:resource="http://purl.org/dc/dcmitype/StillImage" />
      </cc:Work>
    </rdf:RDF>
  </metadata>
  <g
     id="layer5"
     style="display:none"
     transform="matrix(1,0,0,1.1676601,0,89.277546)">
    <rect
       style="fill:#1a1a1a;stroke-width:2.47059;stroke-linecap:round"
       id="rect9585"
       width="563.94043"
       height="330.4585"
       x="0"
       y="-76.458504" />
  </g>
  <g
     id="layer4"
     style="display:inline;opacity:0.999"
     transform="translate(6.6149196,83.072874)">
    <path
       id="path833-3-6"
       style="color:#000000;font-style:normal;font-variant:normal;font-weight:normal;font-stretch:normal;font-size:medium;line-height:normal;font-family:sans-serif;font-variant-ligatures:normal;font-variant-position:normal;font-variant-caps:normal;font-variant-numeric:normal;font-variant-alternates:normal;font-variant-east-asian:normal;font-feature-settings:normal;font-variation-settings:normal;text-indent:0;text-align:start;text-decoration:none;text-decoration-line:none;text-decoration-style:solid;text-decoration-color:#000000;letter-spacing:normal;word-spacing:normal;text-transform:none;writing-mode:lr-tb;direction:ltr;text-orientation:mixed;dominant-baseline:auto;baseline-shift:baseline;text-anchor:start;white-space:normal;shape-padding:0;shape-margin:0;inline-size:0;clip-rule:nonzero;display:inline;overflow:visible;visibility:visible;isolation:auto;mix-blend-mode:normal;color-interpolation:sRGB;color-interpolation-filters:linearRGB;solid-color:#000000;solid-opacity:1;fill:#ffffff;fill-opacity:1;fill-rule:nonzero;stroke:#fefefe;stroke-width:37.7953;stroke-linecap:square;stroke-linejoin:round;stroke-miterlimit:4;stroke-dasharray:none;stroke-dashoffset:0;stroke-opacity:1;color-rendering:auto;image-rendering:auto;shape-rendering:auto;text-rendering:auto;enable-background:accumulate;stop-color:#000000"
       d="M 364.89648,0.00390625 C 338.94971,-0.12386705 311.94891,3.6950137 284.19727,12.601562 95.257058,72.402824 4.0183927,258.7844 0.13476562,435.00781 -1.8075411,523.14205 17.127039,610.68974 58.490234,684.05664 c 18.19992,32.28164 41.142203,61.8618 68.499996,86.83984 40.72788,53.66218 96.6622,95.57014 165.9336,114.17383 138.69702,40.81202 246.60108,21.76178 319.51172,-41.64062 73.04609,-63.52025 68.87708,-132.99106 101.3125,-234.35157 2.22092,-23.72948 40.62266,-48.39435 77.60937,-60.85937 v 207.70898 h 31.5586 v 39.625 h 34.76367 V 634.73828 c 0,-21.98206 1.93027,-42.22903 5.79297,-60.74023 2.57513,-12.14798 6.88985,-21.59683 12.9414,-28.34571 6.05156,-6.9417 12.87603,-10.41211 20.47266,-10.41211 6.78337,0 13.56624,2.40163 20.34961,7.19336 -3.57016,18.51498 -5.36133,39.34749 -5.36133,62.51172 0,49.9417 8.75474,88.79569 26.26562,116.5625 7.1287,11.14346 15.26858,20.03182 24.41602,26.67188 2.19351,4.55481 4.56963,8.87828 7.14063,12.95508 17.63963,27.57398 41.46063,41.36132 71.46093,41.36132 23.82,0 43.3909,-8.67894 58.7129,-26.0332 15.322,-17.35426 25.8152,-41.74529 31.4805,-73.17578 l -35.9239,-6.65234 c -5.279,21.98205 -12.4245,37.98676 -21.4375,48.01367 -9.0129,10.0269 -19.8937,15.03906 -32.6406,15.03906 -2.2914,0 -4.5288,-0.16525 -6.7187,-0.48633 12.8851,-4.06918 24.1136,-11.52398 33.6836,-22.36328 15.322,-17.35426 25.8151,-41.74725 31.4804,-73.17773 l -35.9238,-6.65235 c -5.279,21.98206 -12.4246,37.98677 -21.4375,48.01367 -9.013,10.02691 -19.8937,15.04102 -32.6406,15.04102 -7.1263,0 -13.75917,-1.55861 -19.90433,-4.66406 -6.0951,-16.02588 -9.61663,-36.05232 -10.53515,-60.125 h 152.96288 c 0.1288,-6.1704 0.1934,-10.79761 0.1934,-13.88282 0,-50.71299 -8.6902,-90.05013 -26.0723,-118.00976 -7.5127,-12.08433 -15.9648,-21.55266 -25.3535,-28.41406 -1.9281,-3.92035 -3.9943,-7.65996 -6.2031,-11.21289 -17.3822,-27.95964 -39.7858,-41.93946 -67.211,-41.93946 -1.7965,0 -3.5721,0.059 -5.3261,0.17383 -0.018,-8.5649 1.3219,-15.0958 4.0488,-19.55078 2.7039,-4.6278 6.2453,-6.94141 10.623,-6.94141 3.9915,0 10.3011,3.47041 18.9278,10.41211 13.2619,10.79821 23.9488,16.19727 32.0605,16.19727 10.8156,0 19.6995,-5.4953 26.6523,-16.48633 7.0817,-10.99103 10.815,-27.47888 11.2012,-49.46094 H 1080.75 c -0.9013,10.02691 -2.4459,16.7772 -4.6348,20.24805 -2.1888,3.27803 -5.3446,4.91602 -9.4648,4.91602 -3.3758,0 -7.6188,-1.62311 -12.7285,-4.86915 3.3605,-2.62921 6.4233,-6.10685 9.1777,-10.46093 7.0816,-10.99103 10.8149,-27.47693 11.2012,-49.45899 h -25.1074 c -0.9013,10.02691 -2.4459,16.77525 -4.6348,20.2461 -2.1889,3.27802 -5.3446,4.91797 -9.4648,4.91797 -4.5065,0 -10.5577,-2.89299 -18.1543,-8.67774 -13.777,-10.41255 -24.65582,-15.61914 -32.63872,-15.61914 -11.45933,0 -20.8601,5.97844 -28.19922,17.93359 -7.46787,11.95516 -11.13657,27.95791 -11.00781,48.01172 h 25.6875 c -0.12876,-9.06278 1.22204,-15.90735 4.05469,-20.53515 2.70388,-4.62781 6.24532,-6.94141 10.62304,-6.94141 3.12216,0 7.68239,2.15504 13.64063,6.40234 -4.24776,2.96966 -8.06546,7.18821 -11.44141,12.6875 -7.46787,11.95516 -11.13657,27.95987 -11.00781,48.01368 h 17.51563 c -22.2355,3.91152 -40.78322,17.79079 -55.63868,41.65039 -2.28503,3.67002 -4.42093,7.53519 -6.41211,11.58789 -11.33393,-9.84626 -22.49832,-14.76953 -33.49218,-14.76953 -0.50305,0 -1.0019,0.0143 -1.5,0.041 l 5.67383,-22.89062 c -12.10311,-11.18386 -24.01363,-16.77735 -35.73047,-16.77735 -8.11166,0 -15.57825,3.47236 -22.40235,10.41407 -5.95267,6.17171 -12.41823,18.2462 -19.38867,36.15429 h -2.35937 v 6.23047 c -0.0905,0.24566 -0.17883,0.46337 -0.26954,0.71094 V 448.7578 h -31.28906 v 69.94141 c -10.18607,-0.27756 -35.89786,-0.97903 -73.20117,-1.9707 10.63263,-5.68833 22.16865,-10.59106 33.52734,-14.31836 20.05675,-6.58152 11.41407,-28.64649 11.41407,-28.64649 0,0 -155.44584,-4.24561 -180.90039,-4.71484 -106.51495,-3.58908 -173.29102,2.13281 -173.29102,2.13281 0,0 -10.78496,2.91465 12.6582,25.44336 0,0 17.75473,7.01246 40.76563,18.99805 -7.98478,0.48306 -12.20117,0.84375 -12.20117,0.84375 0,0 -10.78496,2.91465 12.6582,25.44336 0,0 33.4658,13.21947 68.05859,34.38086 -17.96478,62.03002 8.24834,117.26662 -25.25,146.39648 -46.3793,40.331 -110.35301,67.48971 -226.29882,21.02344 -10.10278,-4.04877 -19.3274,-9.18404 -27.75586,-15.22656 -46.10394,-74.61653 -47.36992,-189.06336 -46.57227,-246.9961 3.17613,-144.11945 10.07564,-283.84416 150.73047,-328.30273 0.0763,-0.0246 0.15412,-0.0494 0.23047,-0.0742 76.21996,-24.48804 141.38074,9.25287 195.14648,55.43945 6.12318,5.26001 11.96216,10.61883 17.5293,15.98633 17.98078,22.3834 28.04492,38.74609 28.04492,38.74609 56.42236,72.27997 75.164,121.55179 83.22461,103.94922 48.08137,72.48027 43.34233,79.52381 50.75977,-84.57617 V 125.51172 75.513672 H 689.41211 V 30.228516 H 589.41016 c 0,0 39.65945,48.854992 32.85546,98.935544 -4.7433,-4.40715 -42.18206,-37.407359 -47.24414,-41.755857 C 524.36009,43.888255 452.72426,2.1584857 370.07227,0.08007812 368.35193,0.03681789 366.62627,0.01242447 364.89648,0.00390625 Z M 1363.6172,331.9043 v 59.87304 h 31.5566 v 39.625 h 34.7637 v -59.87109 h -31.5566 V 331.9043 Z m -123.6074,109.91015 c -27.29,0 -48.4171,15.53092 -63.3907,46.56836 H 1175 v 3.46289 c -0.089,0.19731 -0.1809,0.38746 -0.2695,0.58594 v -43.67383 h -31.2871 V 755.92773 H 1175 v 39.625 h 34.7637 V 627.79492 c 0,-39.33631 5.3444,-66.04096 16.0312,-80.11719 10.8156,-14.07623 23.6266,-21.11523 38.4336,-21.11523 2.8999,0 5.6794,0.31096 8.3399,0.93359 1.8551,10.16051 2.7851,24.01464 2.7851,41.58399 v 186.84765 h 31.5567 v 39.625 h 34.7656 V 606.68164 c 0,-24.10313 -0.6441,-40.97593 -1.9317,-50.61719 -2.0601,-14.84753 -5.6661,-27.67054 -10.8164,-38.46875 -5.1502,-10.7982 -12.9398,-19.47519 -23.3691,-26.03125 -1.1861,-0.77713 -2.3862,-1.50571 -3.5996,-2.19336 -1.3655,-4.01476 -2.8844,-7.82866 -4.5879,-11.40039 -5.1503,-10.7982 -12.9399,-19.47519 -23.3691,-26.03125 -10.3006,-6.74887 -21.6316,-10.125 -33.9922,-10.125 z m 294.5312,0 c -25.365,0 -46.8682,11.3775 -64.5078,34.13086 -21.1161,27.38116 -31.6738,69.51309 -31.6738,126.39649 0,51.86994 8.8193,91.59203 26.459,119.16601 7.2359,11.22911 15.3807,20.16996 24.4316,26.82617 2.191,4.52047 4.5614,8.79346 7.125,12.80079 17.7684,27.57398 41.01,41.36132 69.7227,41.36132 17.8971,0 34.3788,-6.26715 49.4433,-18.80078 15.1933,-12.53363 26.7162,-30.08204 34.5703,-52.64258 7.9829,-22.75335 11.9746,-53.89468 11.9746,-93.42382 0,-48.78475 -8.9485,-86.96313 -26.8457,-114.53711 -7.2644,-11.27048 -15.3784,-20.2534 -24.3398,-26.94922 -2.2197,-4.44646 -4.6205,-8.67765 -7.2168,-12.67774 -17.8972,-27.76681 -40.9449,-41.65039 -69.1426,-41.65039 z m 424.1231,0 c -10.6868,0 -20.7297,2.12113 -30.1289,6.36328 -9.2705,4.04933 -16.6098,9.06344 -22.0176,15.04102 -7.2104,7.713 -12.9386,17.45056 -17.1875,29.21289 -4.1202,11.56951 -6.1817,24.20005 -6.1817,37.89063 0,15.04035 2.5117,28.82769 7.5332,41.36132 5.1503,12.34081 12.6169,22.07837 22.4024,29.21289 2,1.40036 4.3328,2.85893 6.9668,4.36914 0.6685,2.04478 1.3934,4.06089 2.1875,6.04297 5.1502,12.34081 12.6188,22.07837 22.4043,29.21289 9.9142,6.94171 27.6175,15.23375 53.1113,24.875 5.3181,2.00462 10.0149,3.89836 14.2149,5.70508 0,0.0264 0,0.0517 0,0.0781 0,13.1121 -3.8645,24.58584 -11.5898,34.41992 -7.7254,9.64125 -19.5694,14.46289 -35.5352,14.46289 -6.553,0 -12.5026,-0.95609 -17.8652,-2.83789 -1.7236,-6.45609 -2.9564,-13.60628 -3.6914,-21.45899 l -18.1016,4.26563 c -7.2302,-10.75138 -11.7217,-25.3732 -13.4551,-43.89063 l -34.3769,8.09766 c 3.8627,32.58744 12.7466,57.1729 26.6523,73.75586 4.7761,5.64331 10.2842,10.32403 16.5215,14.04688 4.1025,9.97556 9.1082,18.512 15.0352,25.58007 14.0344,16.58296 34.3786,24.875 61.0312,24.875 16.0946,0 30.5148,-4.14602 43.2617,-12.4375 12.7469,-8.4843 22.4668,-20.34299 29.1621,-35.57617 6.8241,-15.426 10.2364,-31.81762 10.2364,-49.17187 0,-17.73991 -2.7682,-32.58586 -8.3047,-44.54102 -5.5366,-11.95515 -13.197,-21.01905 -22.9824,-27.18945 -1.4783,-0.97407 -3.1523,-1.99343 -4.9805,-3.04883 -1.0297,-3.30577 -2.2263,-6.43581 -3.5938,-9.38867 -5.5365,-11.95516 -13.1969,-21.0171 -22.9824,-27.1875 -9.6567,-6.36323 -26.7825,-14.4628 -51.375,-24.29688 -6.7305,-2.74896 -12.0928,-4.99038 -16.7031,-6.95312 0.2436,-10.11593 3.6417,-18.98487 10.2129,-26.59766 6.8241,-7.90583 18.2197,-11.85937 34.1855,-11.85937 4.2773,0 8.2437,0.44807 11.9024,1.33593 0.5737,2.97608 1.0277,6.0916 1.3476,9.36524 l 12.7285,-2.59961 c 1.9167,1.52353 3.6919,3.24916 5.3086,5.20312 7.4679,8.86996 11.9745,21.21179 13.5196,37.02344 l 33.9921,-6.9414 c -2.1888,-19.86099 -6.1805,-35.67322 -11.9746,-47.43555 -5.7802,-11.92669 -14.7656,-21.35784 -26.9531,-28.29492 -1.3828,-4.11757 -2.9143,-7.90282 -4.6035,-11.33203 -5.794,-11.95516 -14.8072,-21.40205 -27.0391,-28.34375 -12.1031,-6.94171 -26.2023,-10.41407 -42.2968,-10.41407 z m -595.0469,6.94336 v 307.16992 h 31.5566 v 39.625 h 34.7637 V 488.38281 h -31.5566 v -39.625 z m 306.8906,0 v 190.31836 c 0,22.17489 0.7087,38.37207 2.125,48.5918 2.0601,15.23318 5.5996,28.15243 10.6211,38.75781 5.1503,10.41256 12.9399,19.08955 23.3691,26.03125 1.215,0.79883 2.4423,1.54505 3.6778,2.25195 1.3414,4.03441 2.8414,7.81824 4.5097,11.3418 5.1503,10.41256 12.9399,19.08955 23.3692,26.03125 10.558,6.9417 21.8891,10.41406 33.9922,10.41406 25.9344,0 46.7407,-15.53057 62.4277,-46.56836 h 2.1973 v -4.52148 c 0.1528,-0.32693 0.3091,-0.64454 0.4609,-0.97461 v 45.12109 h 31.0957 V 488.38281 h -31.5566 v -39.625 h -34.7637 v 164.57617 c 0,26.22422 -1.9322,46.27675 -5.7949,60.16016 -3.734,13.69058 -10.1728,24.58494 -19.3145,32.68359 -9.1417,7.90583 -18.9262,11.85938 -29.3554,11.85938 -2.7805,0 -5.438,-0.28188 -7.9805,-0.83008 -0.2281,-1.14994 -0.4439,-2.31387 -0.6348,-3.50781 -1.4163,-9.44843 -2.125,-27.76674 -2.125,-54.95508 V 488.38281 h -31.5566 v -39.625 z m -662.4531,35.86524 c 2.5036,0 4.9392,0.20931 7.3105,0.61328 -17.69907,5.96203 -32.79546,18.95813 -45.28122,39.01172 -8.45317,13.57677 -14.89062,29.77796 -19.32226,48.59179 h -1.0332 c 1.1588,-26.80268 7.14539,-48.20645 17.96093,-64.21093 10.9443,-16.00449 24.39943,-24.00586 40.36525,-24.00586 z m 953.1211,0 c 2.1604,0 4.2317,0.12505 6.2344,0.35156 -2.4813,0.80605 -4.921,1.74804 -7.3184,2.83008 -9.2705,4.04932 -16.6098,9.06344 -22.0176,15.04101 -7.2103,7.71301 -12.9385,17.45056 -17.1875,29.21289 -0.6829,1.91755 -1.3053,3.86599 -1.875,5.8418 -1.4988,-4.19496 -2.2578,-8.7432 -2.2578,-13.65234 0,-10.60538 3.4122,-19.86175 10.2363,-27.76758 6.8241,-7.90583 18.2198,-11.85742 34.1856,-11.85742 z m -426.6348,0.28906 c 2.3221,0 4.5907,0.18717 6.8086,0.54883 -14.9197,5.12856 -28.1732,15.16578 -39.7598,30.11133 -12.9898,16.84396 -21.9756,39.27863 -26.9746,67.28711 1.6382,-29.69909 7.1852,-52.62475 16.6641,-68.73438 11.4593,-19.47533 25.8796,-29.21289 43.2617,-29.21289 z m -301.8691,2.02344 c 3.5552,0 6.9276,0.47431 10.123,1.41015 -14.8329,7.85823 -27.0042,22.42484 -36.5078,43.71289 v -36.14843 c 7.9499,-5.9696 16.7421,-8.97461 26.3848,-8.97461 z m -367.34378,8.67773 c 2.36359,0 4.72822,0.30105 7.0918,0.88281 -5.64561,7.89826 -11.71781,20.71619 -18.2168,38.45508 v -36.5664 c 3.50396,-1.84288 7.21087,-2.77149 11.125,-2.77149 z m 174.28518,28.63477 c 6.1138,0 11.8313,1.20623 17.1562,3.61523 3.9002,11.79106 6.3998,26.77368 7.4883,44.97656 h -76.57616 c 2.9008,-9.26213 6.75272,-17.46084 11.56641,-24.58398 10.94425,-16.00448 24.39945,-24.00781 40.36525,-24.00781 z m 526.4844,0.28906 c 6.4606,0 12.5175,1.40364 18.1718,4.20312 7.0181,18.351 10.5293,42.30536 10.5293,71.86719 0,40.30044 -5.7301,70.28302 -17.1894,89.95117 -11.4594,19.66816 -25.815,29.50391 -43.0684,29.50391 -6.5981,0 -12.769,-1.40867 -18.5137,-4.21484 -6.9185,-18.6902 -10.3808,-43.31405 -10.3808,-73.87891 0,-39.33631 5.7301,-68.74342 17.1894,-88.21875 11.4594,-19.47533 25.8796,-29.21289 43.2618,-29.21289 z m 59.539,138.92578 c -1.853,28.78888 -7.336,51.04431 -16.4707,66.72266 -11.4593,19.66815 -25.815,29.50195 -43.0683,29.50195 -2.7423,0 -5.411,-0.24378 -8.0059,-0.72852 9.0497,-3.10814 17.682,-8.06106 25.8906,-14.89062 15.1933,-12.53363 26.7181,-30.08009 34.5723,-52.64063 2.8842,-8.22089 5.2399,-17.55401 7.082,-27.96484 z m 416.9688,37.47852 c 0.609,3.06641 0.9218,6.3514 0.9218,9.86523 0,13.11211 -3.8625,24.58584 -11.5878,34.41992 -7.7254,9.64126 -19.5714,14.46094 -35.5372,14.46094 -2.4025,0 -4.7164,-0.14159 -6.9589,-0.39453 6.6454,-2.0625 12.9347,-5.00877 18.8574,-8.86133 12.7469,-8.4843 22.4668,-20.34299 29.1621,-35.57617 2.0142,-4.55327 3.7229,-9.1928 5.1426,-13.91406 z m -236.9043,9.86523 v 37.25195 c -8.3387,6.39534 -17.196,9.60547 -26.5762,9.60547 -3.9014,0 -7.569,-0.5398 -11.002,-1.61914 14.8593,-8.01342 27.3875,-23.08443 37.5782,-45.23828 z"
       transform="scale(0.26458333)" />
  </g>
  <g
     id="layer1"
     style="display:inline"
     transform="translate(-22.201963,67.541544)">
    <g
       id="g1739"
       style="display:inline">
      <g
         id="g9591">
        <path
           style="color:#000000;font-style:normal;font-variant:normal;font-weight:normal;font-stretch:normal;font-size:medium;line-height:normal;font-family:sans-serif;font-variant-ligatures:normal;font-variant-position:normal;font-variant-caps:normal;font-variant-numeric:normal;font-variant-alternates:normal;font-variant-east-asian:normal;font-feature-settings:normal;font-variation-settings:normal;text-indent:0;text-align:start;text-decoration:none;text-decoration-line:none;text-decoration-style:solid;text-decoration-color:#000000;letter-spacing:normal;word-spacing:normal;text-transform:none;writing-mode:lr-tb;direction:ltr;text-orientation:mixed;dominant-baseline:auto;baseline-shift:baseline;text-anchor:start;white-space:normal;shape-padding:0;shape-margin:0;inline-size:0;clip-rule:nonzero;display:inline;overflow:visible;visibility:visible;isolation:auto;mix-blend-mode:normal;color-interpolation:sRGB;color-interpolation-filters:linearRGB;solid-color:#000000;solid-opacity:1;vector-effect:none;fill:#00ff00;fill-opacity:1;fill-rule:nonzero;stroke:none;stroke-linecap:square;stroke-linejoin:round;stroke-miterlimit:4;stroke-dasharray:none;stroke-dashoffset:0;stroke-opacity:1;color-rendering:auto;image-rendering:auto;shape-rendering:auto;text-rendering:auto;enable-background:accumulate;stop-color:#000000"
           d="m 137.63816,27.53442 c -7.28274,-0.183135 -14.88856,0.798874 -22.72069,3.3125 -49.99043,15.822417 -74.130664,65.135936 -75.158207,111.76172 -0.513902,23.31885 4.495441,46.48287 15.439453,65.89453 10.91992,19.36893 28.284501,35.07008 51.121094,41.20313 36.69692,10.79818 65.24617,5.75764 84.53711,-11.01758 19.32678,-16.8064 18.22373,-35.18712 26.8056,-62.00542 0.59582,-6.36606 11.03391,-12.98901 20.944,-16.24096 5.30668,-1.74136 3.01994,-7.57918 3.01994,-7.57918 0,0 -41.12823,-1.12328 -47.86308,-1.24743 -28.18208,-0.94961 -45.84992,0.564 -45.84992,0.564 0,0 -2.85357,0.77106 3.3491,6.73178 0,0 18.82226,7.43399 29.94855,17.97764 -6.71987,17.6571 1.70226,33.6451 -7.71552,41.83472 -12.27118,10.67091 -29.19766,17.8567 -59.875,5.5625 -30.140163,-12.07892 -30.858993,-60.52962 -30.572173,-81.36102 0.84035,-38.13161 2.66585,-75.100589 39.880773,-86.863586 0.0202,-0.0065 0.0404,-0.01297 0.0606,-0.01953 20.16653,-6.479126 37.40729,2.447769 51.63281,14.667969 14.22552,12.220201 22.96484,26.462891 22.96484,26.462891 24.57966,31.487826 22.13199,46.483966 24.54297,-6.855469 V 48.739498 35.510982 h -26.45898 c 0,0 10.49367,12.926232 8.69345,26.176712 -1.25499,-1.16606 -11.16075,-9.897265 -12.50009,-11.047805 C 178.46058,39.125236 159.50656,28.084332 137.63821,27.53442 Z"
           id="path833-3" />
        <g
           aria-label="rẽnious"
           transform="matrix(2.0601037,0,0,3.0852012,-152.28112,-297.98899)"
           id="text868-4"
           style="font-size:50.8px;line-height:1.25;font-family:Georgia;-inkscape-font-specification:Georgia;white-space:pre;shape-inside:url(#rect870-0);display:inline;fill:#00ff00">
          <path
             d="m 193.81914,170.23533 v -20.58789 q 0,-2.82773 -0.14883,-6.25078 h 4.2168 q 0.19844,4.56406 0.19844,5.48183 h 0.0992 q 1.0666,-3.44785 2.45566,-4.71289 1.38906,-1.26503 3.91914,-1.26503 0.89297,0 1.81074,0.24804 v 4.09278 q -0.89297,-0.24805 -2.38125,-0.24805 -2.77812,0 -4.2416,2.40605 -1.46348,2.38125 -1.46348,6.8461 v 13.98984 z"
             style="font-family:Arial;-inkscape-font-specification:Arial"
             id="path9642" />
          <path
             d="m 214.05976,157.75857 q 0,4.61367 1.90997,7.11895 1.90996,2.50527 5.58105,2.50527 2.90215,0 4.63848,-1.16582 1.76113,-1.16582 2.38125,-2.95176 l 3.91914,1.11621 q -2.40606,6.35 -10.93887,6.35 -5.95313,0 -9.07852,-3.54707 -3.10058,-3.54707 -3.10058,-10.54199 0,-6.64765 3.10058,-10.19472 3.12539,-3.54707 8.90489,-3.54707 11.83183,0 11.83183,14.26269 v 0.59531 z m 14.53555,-3.42304 q -0.37207,-4.24161 -2.15801,-6.17637 -1.78593,-1.95957 -5.13457,-1.95957 -3.24941,0 -5.15937,2.18281 -1.88516,2.15801 -2.03399,5.95313 z M 225.3707,140.4449 q -1.0418,0 -2.08359,-0.44648 -1.0418,-0.47129 -2.00918,-1.017 -0.96738,-0.5705 -1.86035,-1.01699 -0.86817,-0.47129 -1.63711,-0.47129 -1.36426,0 -2.03399,0.76895 -0.66972,0.76894 -0.89297,2.18281 h -2.25722 q 0.27285,-2.53008 0.86816,-3.81992 0.59531,-1.31465 1.5875,-2.05879 1.01699,-0.76894 2.57969,-0.76894 1.09141,0 2.1332,0.47128 1.0418,0.44649 2.00918,1.017 0.96738,0.5457 1.81074,1.01699 0.86817,0.44648 1.61231,0.44648 2.48047,0 2.90215,-2.95175 h 2.28203 q -0.42168,3.67109 -1.66192,5.15937 -1.24023,1.48828 -3.34863,1.48828 z"
             style="font-family:Arial;-inkscape-font-specification:Arial"
             id="path9644" />
          <path
             d="m 255.93008,170.23533 v -17.01601 q 0,-2.65411 -0.5209,-4.11758 -0.5209,-1.46348 -1.66192,-2.1084 -1.14101,-0.64492 -3.34863,-0.64492 -3.22461,0 -5.08496,2.20761 -1.86035,2.20762 -1.86035,6.12676 v 15.55254 h -4.46485 v -21.10879 q 0,-4.68808 -0.14882,-5.72988 h 4.21679 q 0.0248,0.12402 0.0496,0.66973 0.0248,0.5457 0.0496,1.26503 0.0496,0.69454 0.0992,2.65411 h 0.0744 q 1.53789,-2.77813 3.54707,-3.91914 2.03398,-1.16582 5.03535,-1.16582 4.41523,0 6.44922,2.20761 2.05878,2.18281 2.05878,7.24297 v 17.88418 z"
             style="font-family:Arial;-inkscape-font-specification:Arial"
             id="path9646" />
          <path
             d="m 267.11699,137.69158 v -4.26641 h 4.46485 v 4.26641 z m 0,32.54375 v -26.83867 h 4.46485 v 26.83867 z"
             style="font-family:Arial;-inkscape-font-specification:Arial"
             id="path9648" />
          <path
             d="m 301.12422,156.79119 q 0,7.04453 -3.10059,10.49238 -3.10058,3.44785 -9.0041,3.44785 -5.87871,0 -8.88008,-3.57187 -3.00136,-3.59668 -3.00136,-10.36836 0,-13.89062 12.03027,-13.89062 6.15156,0 9.05371,3.39824 2.90215,3.37343 2.90215,10.49238 z m -4.68809,0 q 0,-5.55625 -1.66191,-8.06152 -1.63711,-2.53008 -5.53145,-2.53008 -3.91914,0 -5.68027,2.57969 -1.73633,2.55488 -1.73633,8.01191 0,5.3082 1.71153,7.98711 1.73632,2.6541 5.43222,2.6541 4.01836,0 5.72988,-2.57969 1.73633,-2.57968 1.73633,-8.06152 z"
             style="font-family:Arial;-inkscape-font-specification:Arial"
             id="path9650" />
          <path
             d="m 311.04609,143.39666 v 17.01601 q 0,2.65411 0.5209,4.11758 0.52089,1.46348 1.66191,2.1084 1.14102,0.64492 3.34863,0.64492 3.22461,0 5.08496,-2.20761 1.86036,-2.20762 1.86036,-6.12676 v -15.55254 h 4.46484 v 21.10879 q 0,4.68808 0.14883,5.72988 h -4.2168 q -0.0248,-0.12402 -0.0496,-0.66973 -0.0248,-0.5457 -0.0744,-1.24023 -0.0248,-0.71934 -0.0744,-2.67891 h -0.0744 q -1.53789,2.77813 -3.57188,3.94395 -2.00918,1.14101 -5.01054,1.14101 -4.41524,0 -6.47403,-2.18281 -2.03398,-2.20762 -2.03398,-7.26777 v -17.88418 z"
             style="font-family:Arial;-inkscape-font-specification:Arial"
             id="path9652" />
          <path
             d="m 355.07442,162.81873 q 0,3.79512 -2.87735,5.85391 -2.85254,2.05878 -8.01191,2.05878 -5.01055,0 -7.73906,-1.63711 -2.70371,-1.66191 -3.52227,-5.15937 l 3.94395,-0.76895 q 0.5705,2.15801 2.35644,3.175 1.78594,0.99219 4.96094,0.99219 3.39824,0 4.96094,-1.04179 1.5875,-1.0418 1.5875,-3.1254 0,-1.5875 -1.09141,-2.57968 -1.09141,-0.99219 -3.52227,-1.63711 l -3.1998,-0.84336 q -3.84473,-0.99219 -5.48184,-1.93477 -1.6123,-0.96738 -2.53007,-2.33164 -0.91778,-1.36426 -0.91778,-3.34863 0,-3.67109 2.60449,-5.58106 2.6293,-1.93476 7.63985,-1.93476 4.44004,0 7.04453,1.56269 2.6293,1.5627 3.32383,5.01055 l -4.01836,0.4961 q -0.37207,-1.78594 -2.00918,-2.72852 -1.61231,-0.96738 -4.34082,-0.96738 -3.02617,0 -4.46485,0.91777 -1.43867,0.91777 -1.43867,2.77813 0,1.14101 0.59532,1.88515 0.59531,0.74414 1.76113,1.26504 1.16582,0.5209 4.91133,1.43867 3.54707,0.89297 5.10976,1.66192 1.5627,0.74414 2.45567,1.66191 0.91777,0.91777 1.41386,2.1332 0.4961,1.19063 0.4961,2.72852 z"
             style="font-family:Arial;-inkscape-font-specification:Arial"
             id="path9654" />
        </g>
      </g>
      <g
         id="g1640"
         style="display:inline">
        <path
           style="color:#000000;font-style:normal;font-variant:normal;font-weight:normal;font-stretch:normal;font-size:medium;line-height:normal;font-family:sans-serif;font-variant-ligatures:normal;font-variant-position:normal;font-variant-caps:normal;font-variant-numeric:normal;font-variant-alternates:normal;font-variant-east-asian:normal;font-feature-settings:normal;font-variation-settings:normal;text-indent:0;text-align:start;text-decoration:none;text-decoration-line:none;text-decoration-style:solid;text-decoration-color:#000000;letter-spacing:normal;word-spacing:normal;text-transform:none;writing-mode:lr-tb;direction:ltr;text-orientation:mixed;dominant-baseline:auto;baseline-shift:baseline;text-anchor:start;white-space:normal;shape-padding:0;shape-margin:0;inline-size:0;clip-rule:nonzero;display:inline;overflow:visible;visibility:visible;isolation:auto;mix-blend-mode:normal;color-interpolation:sRGB;color-interpolation-filters:linearRGB;solid-color:#000000;solid-opacity:1;vector-effect:none;fill:#000000;fill-opacity:1;fill-rule:nonzero;stroke:none;stroke-linecap:square;stroke-linejoin:round;stroke-miterlimit:4;stroke-dasharray:none;stroke-dashoffset:0;stroke-opacity:1;color-rendering:auto;image-rendering:auto;shape-rendering:auto;text-rendering:auto;enable-background:accumulate;stop-color:#000000"
           d="m 126.73161,15.552742 c -7.28275,-0.183135 -14.88857,0.798874 -22.7207,3.3125 -49.99043,15.822417 -74.130664,65.135936 -75.158207,111.761718 -0.513902,23.31885 4.495441,46.48287 15.439453,65.89453 10.91992,19.36893 28.284501,35.07008 51.121094,41.20313 36.69692,10.79818 65.24617,5.75764 84.5371,-11.01758 19.32679,-16.8064 18.22374,-35.18712 26.8056,-62.00542 0.59582,-6.36606 11.03392,-12.98901 20.94401,-16.24096 5.30668,-1.74136 3.01994,-7.57918 3.01994,-7.57918 0,0 -41.12823,-1.12328 -47.86308,-1.24743 -28.18208,-0.94961 -45.84992,0.564 -45.84992,0.564 0,0 -2.85357,0.77106 3.3491,6.73178 0,0 18.82226,7.43399 29.94855,17.97764 -6.71988,17.6571 1.70226,33.6451 -7.71552,41.83472 -12.27119,10.67091 -29.19767,17.8567 -59.875,5.5625 -30.140161,-12.07892 -30.858992,-60.52962 -30.572175,-81.36102 0.840347,-38.131602 2.665853,-75.100587 39.880775,-86.863584 0.0202,-0.0065 0.0404,-0.01297 0.0605,-0.01953 20.16652,-6.479126 37.40729,2.447769 51.63281,14.667969 14.22551,12.220201 22.96484,26.462891 22.96484,26.462891 24.57966,31.487824 22.13199,46.483964 24.54297,-6.855469 V 36.75782 23.529304 h -26.45898 c 0,0 10.49367,12.926232 8.69345,26.176712 -1.255,-1.16606 -11.16075,-9.897265 -12.50009,-11.047805 C 167.55397,27.143558 148.59995,16.102654 126.73161,15.552742 Z"
           id="path833" />
        <g
           aria-label="rẽnious"
           transform="matrix(2.0601037,0,0,3.0852013,-160.63054,-308.47344)"
           id="text868"
           style="font-size:50.8px;line-height:1.25;font-family:Georgia;-inkscape-font-specification:Georgia;white-space:pre;shape-inside:url(#rect870);display:inline">
          <path
             d="m 193.81914,170.23533 v -20.58789 q 0,-2.82773 -0.14883,-6.25078 h 4.2168 q 0.19844,4.56406 0.19844,5.48183 h 0.0992 q 1.0666,-3.44785 2.45566,-4.71289 1.38906,-1.26503 3.91914,-1.26503 0.89297,0 1.81074,0.24804 v 4.09278 q -0.89297,-0.24805 -2.38125,-0.24805 -2.77812,0 -4.2416,2.40605 -1.46348,2.38125 -1.46348,6.8461 v 13.98984 z"
             style="font-family:Arial;-inkscape-font-specification:Arial"
             id="path9627" />
          <path
             d="m 214.05976,157.75857 q 0,4.61367 1.90997,7.11895 1.90996,2.50527 5.58105,2.50527 2.90215,0 4.63848,-1.16582 1.76113,-1.16582 2.38125,-2.95176 l 3.91914,1.11621 q -2.40606,6.35 -10.93887,6.35 -5.95313,0 -9.07852,-3.54707 -3.10058,-3.54707 -3.10058,-10.54199 0,-6.64765 3.10058,-10.19472 3.12539,-3.54707 8.90489,-3.54707 11.83183,0 11.83183,14.26269 v 0.59531 z m 14.53555,-3.42304 q -0.37207,-4.24161 -2.15801,-6.17637 -1.78593,-1.95957 -5.13457,-1.95957 -3.24941,0 -5.15937,2.18281 -1.88516,2.15801 -2.03399,5.95313 z M 225.3707,140.4449 q -1.0418,0 -2.08359,-0.44648 -1.0418,-0.47129 -2.00918,-1.017 -0.96738,-0.5705 -1.86035,-1.01699 -0.86817,-0.47129 -1.63711,-0.47129 -1.36426,0 -2.03399,0.76895 -0.66972,0.76894 -0.89297,2.18281 h -2.25722 q 0.27285,-2.53008 0.86816,-3.81992 0.59531,-1.31465 1.5875,-2.05879 1.01699,-0.76894 2.57969,-0.76894 1.09141,0 2.1332,0.47128 1.0418,0.44649 2.00918,1.017 0.96738,0.5457 1.81074,1.01699 0.86817,0.44648 1.61231,0.44648 2.48047,0 2.90215,-2.95175 h 2.28203 q -0.42168,3.67109 -1.66192,5.15937 -1.24023,1.48828 -3.34863,1.48828 z"
             style="font-family:Arial;-inkscape-font-specification:Arial"
             id="path9629" />
          <path
             d="m 255.93008,170.23533 v -17.01601 q 0,-2.65411 -0.5209,-4.11758 -0.5209,-1.46348 -1.66192,-2.1084 -1.14101,-0.64492 -3.34863,-0.64492 -3.22461,0 -5.08496,2.20761 -1.86035,2.20762 -1.86035,6.12676 v 15.55254 h -4.46485 v -21.10879 q 0,-4.68808 -0.14882,-5.72988 h 4.21679 q 0.0248,0.12402 0.0496,0.66973 0.0248,0.5457 0.0496,1.26503 0.0496,0.69454 0.0992,2.65411 h 0.0744 q 1.53789,-2.77813 3.54707,-3.91914 2.03398,-1.16582 5.03535,-1.16582 4.41523,0 6.44922,2.20761 2.05878,2.18281 2.05878,7.24297 v 17.88418 z"
             style="font-family:Arial;-inkscape-font-specification:Arial"
             id="path9631" />
          <path
             d="m 267.11699,137.69158 v -4.26641 h 4.46485 v 4.26641 z m 0,32.54375 v -26.83867 h 4.46485 v 26.83867 z"
             style="font-family:Arial;-inkscape-font-specification:Arial"
             id="path9633" />
          <path
             d="m 301.12422,156.79119 q 0,7.04453 -3.10059,10.49238 -3.10058,3.44785 -9.0041,3.44785 -5.87871,0 -8.88008,-3.57187 -3.00136,-3.59668 -3.00136,-10.36836 0,-13.89062 12.03027,-13.89062 6.15156,0 9.05371,3.39824 2.90215,3.37343 2.90215,10.49238 z m -4.68809,0 q 0,-5.55625 -1.66191,-8.06152 -1.63711,-2.53008 -5.53145,-2.53008 -3.91914,0 -5.68027,2.57969 -1.73633,2.55488 -1.73633,8.01191 0,5.3082 1.71153,7.98711 1.73632,2.6541 5.43222,2.6541 4.01836,0 5.72988,-2.57969 1.73633,-2.57968 1.73633,-8.06152 z"
             style="font-family:Arial;-inkscape-font-specification:Arial"
             id="path9635" />
          <path
             d="m 311.04609,143.39666 v 17.01601 q 0,2.65411 0.5209,4.11758 0.52089,1.46348 1.66191,2.1084 1.14102,0.64492 3.34863,0.64492 3.22461,0 5.08496,-2.20761 1.86036,-2.20762 1.86036,-6.12676 v -15.55254 h 4.46484 v 21.10879 q 0,4.68808 0.14883,5.72988 h -4.2168 q -0.0248,-0.12402 -0.0496,-0.66973 -0.0248,-0.5457 -0.0744,-1.24023 -0.0248,-0.71934 -0.0744,-2.67891 h -0.0744 q -1.53789,2.77813 -3.57188,3.94395 -2.00918,1.14101 -5.01054,1.14101 -4.41524,0 -6.47403,-2.18281 -2.03398,-2.20762 -2.03398,-7.26777 v -17.88418 z"
             style="font-family:Arial;-inkscape-font-specification:Arial"
             id="path9637" />
          <path
             d="m 355.07442,162.81873 q 0,3.79512 -2.87735,5.85391 -2.85254,2.05878 -8.01191,2.05878 -5.01055,0 -7.73906,-1.63711 -2.70371,-1.66191 -3.52227,-5.15937 l 3.94395,-0.76895 q 0.5705,2.15801 2.35644,3.175 1.78594,0.99219 4.96094,0.99219 3.39824,0 4.96094,-1.04179 1.5875,-1.0418 1.5875,-3.1254 0,-1.5875 -1.09141,-2.57968 -1.09141,-0.99219 -3.52227,-1.63711 l -3.1998,-0.84336 q -3.84473,-0.99219 -5.48184,-1.93477 -1.6123,-0.96738 -2.53007,-2.33164 -0.91778,-1.36426 -0.91778,-3.34863 0,-3.67109 2.60449,-5.58106 2.6293,-1.93476 7.63985,-1.93476 4.44004,0 7.04453,1.56269 2.6293,1.5627 3.32383,5.01055 l -4.01836,0.4961 q -0.37207,-1.78594 -2.00918,-2.72852 -1.61231,-0.96738 -4.34082,-0.96738 -3.02617,0 -4.46485,0.91777 -1.43867,0.91777 -1.43867,2.77813 0,1.14101 0.59532,1.88515 0.59531,0.74414 1.76113,1.26504 1.16582,0.5209 4.91133,1.43867 3.54707,0.89297 5.10976,1.66192 1.5627,0.74414 2.45567,1.66191 0.91777,0.91777 1.41386,2.1332 0.4961,1.19063 0.4961,2.72852 z"
             style="font-family:Arial;-inkscape-font-specification:Arial"
             id="path9639" />
        </g>
      </g>
    </g>
  </g>
  <g
     aria-label="I get my lyrics from"
     transform="matrix(1.4856562,0,0,1.4856562,-12.938738,429.01401)"
     id="text318"
     style="font-size:40px;line-height:1.25;font-family:Poppins;-inkscape-font-specification:Poppins;white-space:pre;shape-inside:url(#rect320);fill:#000000">
    <path
       d="m 15.096953,-286.04602 v 27.88 h -3.64 v -27.88 z"
       id="path932"
       style="fill:#000000" />
    <path
       d="m 41.016973,-280.44602 q 2.84,0 4.96,1.24 2.16,1.24 3.2,3.12 v -4 h 3.68 v 22.4 q 0,3 -1.28,5.32 -1.28,2.36 -3.68,3.68 -2.36,1.32 -5.52,1.32 -4.32,0 -7.2,-2.04 -2.88,-2.04 -3.4,-5.56 h 3.6 q 0.6,2 2.48,3.2 1.88,1.24 4.52,1.24 3,0 4.88,-1.88 1.92,-1.88 1.92,-5.28 v -4.6 q -1.08,1.92 -3.2,3.2 -2.12,1.28 -4.96,1.28 -2.92,0 -5.32,-1.44 -2.36,-1.44 -3.72,-4.04 -1.36,-2.6 -1.36,-5.92 0,-3.36 1.36,-5.88 1.36,-2.56 3.72,-3.96 2.4,-1.4 5.32,-1.4 z m 8.16,11.28 q 0,-2.48 -1,-4.32 -1,-1.84 -2.72,-2.8 -1.68,-1 -3.72,-1 -2.04,0 -3.72,0.96 -1.68,0.96 -2.68,2.8 -1,1.84 -1,4.32 0,2.52 1,4.4 1,1.84 2.68,2.84 1.68,0.96 3.72,0.96 2.04,0 3.72,-0.96 1.72,-1 2.72,-2.84 1,-1.88 1,-4.36 z"
       id="path934"
       style="fill:#000000" />
    <path
       d="m 79.016996,-269.96602 q 0,1.04 -0.12,2.2 h -17.52 q 0.2,3.24 2.2,5.08 2.04,1.8 4.92,1.8 2.36,0 3.92,-1.08 1.6,-1.12 2.24,-2.96 h 3.92 q -0.88,3.16 -3.52,5.16 -2.64,1.96 -6.56,1.96 -3.12,0 -5.6,-1.4 -2.44,-1.4 -3.84,-3.96 -1.4,-2.6 -1.4,-6 0,-3.4 1.36,-5.96 1.36,-2.56 3.8,-3.92 2.48,-1.4 5.68,-1.4 3.12,0 5.52,1.36 2.4,1.36 3.68,3.76 1.32,2.36 1.32,5.36 z m -3.76,-0.76 q 0,-2.08 -0.92,-3.56 -0.92,-1.52 -2.52,-2.28 -1.56,-0.8 -3.48,-0.8 -2.76,0 -4.72,1.76 -1.92,1.76 -2.2,4.88 z"
       id="path936"
       style="fill:#000000" />
    <path
       d="m 88.25703,-277.08602 v 12.92 q 0,1.6 0.68,2.28 0.68,0.64 2.36,0.64 h 2.68 v 3.08 h -3.28 q -3.04,0 -4.56,-1.4 -1.52,-1.4 -1.52,-4.6 v -12.92 h -2.84 v -3 h 2.84 v -5.52 h 3.64 v 5.52 h 5.72 v 3 z"
       id="path938"
       style="fill:#000000" />
    <path
       d="m 135.41705,-280.48602 q 2.56,0 4.56,1.08 2,1.04 3.16,3.16 1.16,2.12 1.16,5.16 v 12.92 h -3.6 v -12.4 q 0,-3.28 -1.64,-5 -1.6,-1.76 -4.36,-1.76 -2.84,0 -4.52,1.84 -1.68,1.8 -1.68,5.24 v 12.08 h -3.6 v -12.4 q 0,-3.28 -1.64,-5 -1.6,-1.76 -4.36,-1.76 -2.84,0 -4.52,1.84 -1.68,1.8 -1.68,5.24 v 12.08 h -3.64 v -21.92 h 3.64 v 3.16 q 1.08,-1.72 2.88,-2.64 1.84,-0.92 4.04,-0.92 2.76,0 4.88,1.24 2.12,1.24 3.16,3.64 0.92,-2.32 3.04,-3.6 2.12,-1.28 4.72,-1.28 z"
       id="path940"
       style="fill:#000000" />
    <path
       d="m 169.13708,-280.08602 -13.2,32.24 h -3.76 l 4.32,-10.56 -8.84,-21.68 h 4.04 l 6.88,17.76 6.8,-17.76 z"
       id="path942"
       style="fill:#000000" />
    <path
       d="m 187.09708,-287.76602 v 29.6 h -3.64 v -29.6 z"
       id="path944"
       style="fill:#000000" />
    <path
       d="m 212.17709,-280.08602 -13.2,32.24 h -3.76 l 4.32,-10.56 -8.84,-21.68 h 4.04 l 6.88,17.76 6.8,-17.76 z"
       id="path946"
       style="fill:#000000" />
    <path
       d="m 219.45708,-276.52602 q 0.96,-1.88 2.72,-2.92 1.8,-1.04 4.36,-1.04 v 3.76 h -0.96 q -6.12,0 -6.12,6.64 v 11.92 h -3.64 v -21.92 h 3.64 z"
       id="path948"
       style="fill:#000000" />
    <path
       d="m 232.61704,-283.64602 q -1.04,0 -1.76,-0.72 -0.72,-0.72 -0.72,-1.76 0,-1.04 0.72,-1.76 0.72,-0.72 1.76,-0.72 1,0 1.68,0.72 0.72,0.72 0.72,1.76 0,1.04 -0.72,1.76 -0.68,0.72 -1.68,0.72 z m 1.76,3.56 v 21.92 h -3.64 v -21.92 z"
       id="path950"
       style="fill:#000000" />
    <path
       d="m 239.21706,-269.16602 q 0,-3.4 1.36,-5.92 1.36,-2.56 3.76,-3.96 2.44,-1.4 5.56,-1.4 4.04,0 6.64,1.96 2.64,1.96 3.48,5.44 h -3.92 q -0.56,-2 -2.2,-3.16 -1.6,-1.16 -4,-1.16 -3.12,0 -5.04,2.16 -1.92,2.12 -1.92,6.04 0,3.96 1.92,6.12 1.92,2.16 5.04,2.16 2.4,0 4,-1.12 1.6,-1.12 2.2,-3.2 h 3.92 q -0.88,3.36 -3.52,5.4 -2.64,2 -6.6,2 -3.12,0 -5.56,-1.4 -2.4,-1.4 -3.76,-3.96 -1.36,-2.56 -1.36,-6 z"
       id="path952"
       style="fill:#000000" />
    <path
       d="m 272.61707,-257.80602 q -2.52,0 -4.52,-0.84 -2,-0.88 -3.16,-2.4 -1.16,-1.56 -1.28,-3.56 h 3.76 q 0.16,1.64 1.52,2.68 1.4,1.04 3.64,1.04 2.08,0 3.28,-0.92 1.2,-0.92 1.2,-2.32 0,-1.44 -1.28,-2.12 -1.28,-0.72 -3.96,-1.4 -2.44,-0.64 -4,-1.28 -1.52,-0.68 -2.64,-1.96 -1.08,-1.32 -1.08,-3.44 0,-1.68 1,-3.08 1,-1.4 2.84,-2.2 1.84,-0.84 4.2,-0.84 3.64,0 5.88,1.84 2.24,1.84 2.4,5.04 h -3.64 q -0.12,-1.72 -1.4,-2.76 -1.24,-1.04 -3.36,-1.04 -1.96,0 -3.12,0.84 -1.16,0.84 -1.16,2.2 0,1.08 0.68,1.8 0.72,0.68 1.76,1.12 1.08,0.4 2.96,0.92 2.36,0.64 3.84,1.28 1.48,0.6 2.52,1.84 1.08,1.24 1.12,3.24 0,1.8 -1,3.24 -1,1.44 -2.84,2.28 -1.8,0.8 -4.16,0.8 z"
       id="path954"
       style="fill:#000000" />
    <path
       d="m 305.33704,-277.08602 h -4.6 v 18.92 h -3.64 v -18.92 h -2.84 v -3 h 2.84 v -1.56 q 0,-3.68 1.88,-5.36 1.92,-1.72 6.12,-1.72 v 3.04 q -2.4,0 -3.4,0.96 -0.96,0.92 -0.96,3.08 v 1.56 h 4.6 z"
       id="path956"
       style="fill:#000000" />
    <path
       d="m 313.21707,-276.52602 q 0.96,-1.88 2.72,-2.92 1.8,-1.04 4.36,-1.04 v 3.76 h -0.96 q -6.12,0 -6.12,6.64 v 11.92 h -3.64 v -21.92 h 3.64 z"
       id="path958"
       style="fill:#000000" />
    <path
       d="m 334.05705,-257.80602 q -3.08,0 -5.6,-1.4 -2.48,-1.4 -3.92,-3.96 -1.4,-2.6 -1.4,-6 0,-3.36 1.44,-5.92 1.48,-2.6 4,-3.96 2.52,-1.4 5.64,-1.4 3.12,0 5.64,1.4 2.52,1.36 3.96,3.92 1.48,2.56 1.48,5.96 0,3.4 -1.52,6 -1.48,2.56 -4.04,3.96 -2.56,1.4 -5.68,1.4 z m 0,-3.2 q 1.96,0 3.68,-0.92 1.72,-0.92 2.76,-2.76 1.08,-1.84 1.08,-4.48 0,-2.64 -1.04,-4.48 -1.04,-1.84 -2.72,-2.72 -1.68,-0.92 -3.64,-0.92 -2,0 -3.68,0.92 -1.64,0.88 -2.64,2.72 -1,1.84 -1,4.48 0,2.68 0.96,4.52 1,1.84 2.64,2.76 1.64,0.88 3.6,0.88 z"
       id="path960"
       style="fill:#000000" />
    <path
       d="m 376.45703,-280.48602 q 2.56,0 4.56,1.08 2,1.04 3.16,3.16 1.16,2.12 1.16,5.16 v 12.92 h -3.6 v -12.4 q 0,-3.28 -1.64,-5 -1.6,-1.76 -4.36,-1.76 -2.84,0 -4.52,1.84 -1.68,1.8 -1.68,5.24 v 12.08 h -3.6 v -12.4 q 0,-3.28 -1.64,-5 -1.6,-1.76 -4.36,-1.76 -2.84,0 -4.52,1.84 -1.68,1.8 -1.68,5.24 v 12.08 h -3.64 v -21.92 h 3.64 v 3.16 q 1.08,-1.72 2.88,-2.64 1.84,-0.92 4.04,-0.92 2.76,0 4.88,1.24 2.12,1.24 3.16,3.64 0.92,-2.32 3.04,-3.6 2.12,-1.28 4.72,-1.28 z"
       id="path962"
       style="fill:#000000" />
  </g>
  <g
     aria-label="pamtofficial.github.io/grenious"
     transform="matrix(0.91744591,0,0,0.91744591,-9.8971659,-843.06335)"
     id="text1121"
     style="font-size:40px;line-height:1.25;font-family:Poppins;-inkscape-font-specification:Poppins;white-space:pre;shape-inside:url(#rect1123);display:inline;fill:#000000">
    <path
       d="m 15.096953,1311.2352 q 1.08,-1.88 3.2,-3.12 2.16,-1.28 5,-1.28 2.92,0 5.28,1.4 2.4,1.4 3.76,3.96 1.36,2.52 1.36,5.88 0,3.32 -1.36,5.92 -1.36,2.6 -3.76,4.04 -2.36,1.44 -5.28,1.44 -2.8,0 -4.96,-1.24 -2.12,-1.28 -3.24,-3.16 v 14.44 h -3.64 v -32.32 h 3.64 z m 14.88,6.84 q 0,-2.48 -1,-4.32 -1,-1.84 -2.72,-2.8 -1.68,-0.96 -3.72,-0.96 -2,0 -3.72,1 -1.68,0.96 -2.72,2.84 -1,1.84 -1,4.28 0,2.48 1,4.36 1.04,1.84 2.72,2.84 1.72,0.96 3.72,0.96 2.04,0 3.72,-0.96 1.72,-1 2.72,-2.84 1,-1.88 1,-4.4 z"
       id="path1186"
       style="fill:#000000" />
    <path
       d="m 37.136977,1318.0752 q 0,-3.36 1.36,-5.88 1.36,-2.56 3.72,-3.96 2.4,-1.4 5.32,-1.4 2.88,0 5,1.24 2.12,1.24 3.16,3.12 v -4 h 3.68 v 21.92 h -3.68 v -4.08 q -1.08,1.92 -3.24,3.2 -2.12,1.24 -4.96,1.24 -2.92,0 -5.28,-1.44 -2.36,-1.44 -3.72,-4.04 -1.36,-2.6 -1.36,-5.92 z m 18.56,0.04 q 0,-2.48 -1,-4.32 -1,-1.84 -2.72,-2.8 -1.68,-1 -3.72,-1 -2.04,0 -3.72,0.96 -1.68,0.96 -2.68,2.8 -1,1.84 -1,4.32 0,2.52 1,4.4 1,1.84 2.68,2.84 1.68,0.96 3.72,0.96 2.04,0 3.72,-0.96 1.72,-1 2.72,-2.84 1,-1.88 1,-4.36 z"
       id="path1188"
       style="fill:#000000" />
    <path
       d="m 91.897001,1306.7952 q 2.56,0 4.56,1.08 2,1.04 3.16,3.16 1.159999,2.12 1.159999,5.16 v 12.92 h -3.599999 v -12.4 q 0,-3.28 -1.64,-5 -1.6,-1.76 -4.36,-1.76 -2.84,0 -4.52,1.84 -1.68,1.8 -1.68,5.24 v 12.08 h -3.6 v -12.4 q 0,-3.28 -1.64,-5 -1.6,-1.76 -4.36,-1.76 -2.84,0 -4.52,1.84 -1.68,1.8 -1.68,5.24 v 12.08 h -3.64 v -21.92 h 3.64 v 3.16 q 1.08,-1.72 2.88,-2.64 1.84,-0.92 4.04,-0.92 2.76,0 4.88,1.24 2.12,1.24 3.16,3.64 0.92,-2.32 3.04,-3.6 2.12,-1.28 4.72,-1.28 z"
       id="path1190"
       style="fill:#000000" />
    <path
       d="m 111.17703,1310.1952 v 12.92 q 0,1.6 0.68,2.28 0.68,0.64 2.36,0.64 h 2.68 v 3.08 h -3.28 q -3.04,0 -4.56,-1.4 -1.52,-1.4 -1.52,-4.6 v -12.92 h -2.84 v -3 h 2.84 v -5.52 h 3.64 v 5.52 h 5.72 v 3 z"
       id="path1192"
       style="fill:#000000" />
    <path
       d="m 130.85704,1329.4752 q -3.08,0 -5.6,-1.4 -2.48,-1.4 -3.92,-3.96 -1.4,-2.6 -1.4,-6 0,-3.36 1.44,-5.92 1.48,-2.6 4,-3.96 2.52,-1.4 5.64,-1.4 3.12,0 5.64,1.4 2.52,1.36 3.96,3.92 1.48,2.56 1.48,5.96 0,3.4 -1.52,6 -1.48,2.56 -4.04,3.96 -2.56,1.4 -5.68,1.4 z m 0,-3.2 q 1.96,0 3.68,-0.92 1.72,-0.92 2.76,-2.76 1.08,-1.84 1.08,-4.48 0,-2.64 -1.04,-4.48 -1.04,-1.84 -2.72,-2.72 -1.68,-0.92 -3.64,-0.92 -2,0 -3.68,0.92 -1.64,0.88 -2.64,2.72 -1,1.84 -1,4.48 0,2.68 0.96,4.52 1,1.84 2.64,2.76 1.64,0.88 3.6,0.88 z"
       id="path1194"
       style="fill:#000000" />
    <path
       d="m 155.81702,1310.1952 h -4.6 v 18.92 h -3.64 v -18.92 h -2.84 v -3 h 2.84 v -1.56 q 0,-3.68 1.88,-5.36 1.92,-1.72 6.12,-1.72 v 3.04 q -2.4,0 -3.4,0.96 -0.96,0.92 -0.96,3.08 v 1.56 h 4.6 z"
       id="path1196"
       style="fill:#000000" />
    <path
       d="m 168.97704,1310.1952 h -4.6 v 18.92 h -3.64 v -18.92 h -2.84 v -3 h 2.84 v -1.56 q 0,-3.68 1.88,-5.36 1.92,-1.72 6.12,-1.72 v 3.04 q -2.4,0 -3.4,0.96 -0.96,0.92 -0.96,3.08 v 1.56 h 4.6 z"
       id="path1198"
       style="fill:#000000" />
    <path
       d="m 175.09705,1303.6352 q -1.04,0 -1.76,-0.72 -0.72,-0.72 -0.72,-1.76 0,-1.04 0.72,-1.76 0.72,-0.72 1.76,-0.72 1,0 1.68,0.72 0.72,0.72 0.72,1.76 0,1.04 -0.72,1.76 -0.68,0.72 -1.68,0.72 z m 1.76,3.56 v 21.92 h -3.64 v -21.92 z"
       id="path1200"
       style="fill:#000000" />
    <path
       d="m 181.69707,1318.1152 q 0,-3.4 1.36,-5.92 1.36,-2.56 3.76,-3.96 2.44,-1.4 5.56,-1.4 4.04,0 6.64,1.96 2.64,1.96 3.48,5.44 h -3.92 q -0.56,-2 -2.2,-3.16 -1.6,-1.16 -4,-1.16 -3.12,0 -5.04,2.16 -1.92,2.12 -1.92,6.04 0,3.96 1.92,6.12 1.92,2.16 5.04,2.16 2.4,0 4,-1.12 1.6,-1.12 2.2,-3.2 h 3.92 q -0.88,3.36 -3.52,5.4 -2.64,2 -6.6,2 -3.12,0 -5.56,-1.4 -2.4,-1.4 -3.76,-3.96 -1.36,-2.56 -1.36,-6 z"
       id="path1202"
       style="fill:#000000" />
    <path
       d="m 209.21708,1303.6352 q -1.04,0 -1.76,-0.72 -0.72,-0.72 -0.72,-1.76 0,-1.04 0.72,-1.76 0.72,-0.72 1.76,-0.72 1,0 1.68,0.72 0.72,0.72 0.72,1.76 0,1.04 -0.72,1.76 -0.68,0.72 -1.68,0.72 z m 1.76,3.56 v 21.92 h -3.64 v -21.92 z"
       id="path1204"
       style="fill:#000000" />
    <path
       d="m 215.81709,1318.0752 q 0,-3.36 1.36,-5.88 1.36,-2.56 3.72,-3.96 2.4,-1.4 5.32,-1.4 2.88,0 5,1.24 2.12,1.24 3.16,3.12 v -4 h 3.68 v 21.92 h -3.68 v -4.08 q -1.08,1.92 -3.24,3.2 -2.12,1.24 -4.96,1.24 -2.92,0 -5.28,-1.44 -2.36,-1.44 -3.72,-4.04 -1.36,-2.6 -1.36,-5.92 z m 18.56,0.04 q 0,-2.48 -1,-4.32 -1,-1.84 -2.72,-2.8 -1.68,-1 -3.72,-1 -2.04,0 -3.72,0.96 -1.68,0.96 -2.68,2.8 -1,1.84 -1,4.32 0,2.52 1,4.4 1,1.84 2.68,2.84 1.68,0.96 3.72,0.96 2.04,0 3.72,-0.96 1.72,-1 2.72,-2.84 1,-1.88 1,-4.36 z"
       id="path1206"
       style="fill:#000000" />
    <path
       d="m 247.85712,1299.5152 v 29.6 h -3.64 v -29.6 z"
       id="path1208"
       style="fill:#000000" />
    <path
       d="m 255.21713,1329.3552 q -1.04,0 -1.76,-0.72 -0.72,-0.72 -0.72,-1.76 0,-1.04 0.72,-1.76 0.72,-0.72 1.76,-0.72 1,0 1.68,0.72 0.72,0.72 0.72,1.76 0,1.04 -0.72,1.76 -0.68,0.72 -1.68,0.72 z"
       id="path1210"
       style="fill:#000000" />
    <path
       d="m 271.49709,1306.8352 q 2.84,0 4.96,1.24 2.16,1.24 3.2,3.12 v -4 h 3.68 v 22.4 q 0,3 -1.28,5.32 -1.28,2.36 -3.68,3.68 -2.36,1.32 -5.52,1.32 -4.32,0 -7.2,-2.04 -2.88,-2.04 -3.4,-5.56 h 3.6 q 0.6,2 2.48,3.2 1.88,1.24 4.52,1.24 3,0 4.88,-1.88 1.92,-1.88 1.92,-5.28 v -4.6 q -1.08,1.92 -3.2,3.2 -2.12,1.28 -4.96,1.28 -2.92,0 -5.32,-1.44 -2.36,-1.44 -3.72,-4.04 -1.36,-2.6 -1.36,-5.92 0,-3.36 1.36,-5.88 1.36,-2.56 3.72,-3.96 2.4,-1.4 5.32,-1.4 z m 8.16,11.28 q 0,-2.48 -1,-4.32 -1,-1.84 -2.72,-2.8 -1.68,-1 -3.72,-1 -2.04,0 -3.72,0.96 -1.68,0.96 -2.68,2.8 -1,1.84 -1,4.32 0,2.52 1,4.4 1,1.84 2.68,2.84 1.68,0.96 3.72,0.96 2.04,0 3.72,-0.96 1.72,-1 2.72,-2.84 1,-1.88 1,-4.36 z"
       id="path1212"
       style="fill:#000000" />
    <path
       d="m 291.37711,1303.6352 q -1.04,0 -1.76,-0.72 -0.72,-0.72 -0.72,-1.76 0,-1.04 0.72,-1.76 0.72,-0.72 1.76,-0.72 1,0 1.68,0.72 0.72,0.72 0.72,1.76 0,1.04 -0.72,1.76 -0.68,0.72 -1.68,0.72 z m 1.76,3.56 v 21.92 h -3.64 v -21.92 z"
       id="path1214"
       style="fill:#000000" />
    <path
       d="m 303.77714,1310.1952 v 12.92 q 0,1.6 0.68,2.28 0.68,0.64 2.36,0.64 h 2.68 v 3.08 h -3.28 q -3.04,0 -4.56,-1.4 -1.52,-1.4 -1.52,-4.6 v -12.92 h -2.84 v -3 h 2.84 v -5.52 h 3.64 v 5.52 h 5.72 v 3 z"
       id="path1216"
       style="fill:#000000" />
    <path
       d="m 324.77714,1306.7952 q 2.48,0 4.48,1.08 2,1.04 3.12,3.16 1.16,2.12 1.16,5.16 v 12.92 h -3.6 v -12.4 q 0,-3.28 -1.64,-5 -1.64,-1.76 -4.48,-1.76 -2.88,0 -4.6,1.8 -1.68,1.8 -1.68,5.24 v 12.12 h -3.64 v -29.6 h 3.64 v 10.8 q 1.08,-1.68 2.96,-2.6 1.92,-0.92 4.28,-0.92 z"
       id="path1218"
       style="fill:#000000" />
    <path
       d="m 358.93711,1307.1952 v 21.92 h -3.64 v -3.24 q -1.04,1.68 -2.92,2.64 -1.84,0.92 -4.08,0.92 -2.56,0 -4.6,-1.04 -2.04,-1.08 -3.24,-3.2 -1.16,-2.12 -1.16,-5.16 v -12.84 h 3.6 v 12.36 q 0,3.24 1.64,5 1.64,1.72 4.48,1.72 2.92,0 4.6,-1.8 1.68,-1.8 1.68,-5.24 v -12.04 z"
       id="path1220"
       style="fill:#000000" />
    <path
       d="m 368.73709,1311.2752 q 1.12,-1.96 3.28,-3.2 2.16,-1.24 4.92,-1.24 2.96,0 5.32,1.4 2.36,1.4 3.72,3.96 1.36,2.52 1.36,5.88 0,3.32 -1.36,5.92 -1.36,2.6 -3.76,4.04 -2.36,1.44 -5.28,1.44 -2.84,0 -5,-1.24 -2.12,-1.24 -3.2,-3.16 v 4.04 h -3.64 v -29.6 h 3.64 z m 14.88,6.8 q 0,-2.48 -1,-4.32 -1,-1.84 -2.72,-2.8 -1.68,-0.96 -3.72,-0.96 -2,0 -3.72,1 -1.68,0.96 -2.72,2.84 -1,1.84 -1,4.28 0,2.48 1,4.36 1.04,1.84 2.72,2.84 1.72,0.96 3.72,0.96 2.04,0 3.72,-0.96 1.72,-1 2.72,-2.84 1,-1.88 1,-4.4 z"
       id="path1222"
       style="fill:#000000" />
    <path
       d="m 393.29713,1329.3552 q -1.04,0 -1.76,-0.72 -0.72,-0.72 -0.72,-1.76 0,-1.04 0.72,-1.76 0.72,-0.72 1.76,-0.72 1,0 1.68,0.72 0.72,0.72 0.72,1.76 0,1.04 -0.72,1.76 -0.68,0.72 -1.68,0.72 z"
       id="path1224"
       style="fill:#000000" />
    <path
       d="m 402.41709,1303.6352 q -1.04,0 -1.76,-0.72 -0.72,-0.72 -0.72,-1.76 0,-1.04 0.72,-1.76 0.72,-0.72 1.76,-0.72 1,0 1.68,0.72 0.72,0.72 0.72,1.76 0,1.04 -0.72,1.76 -0.68,0.72 -1.68,0.72 z m 1.76,3.56 v 21.92 h -3.64 v -21.92 z"
       id="path1226"
       style="fill:#000000" />
    <path
       d="m 419.93709,1329.4752 q -3.08,0 -5.6,-1.4 -2.48,-1.4 -3.92,-3.96 -1.4,-2.6 -1.4,-6 0,-3.36 1.44,-5.92 1.48,-2.6 4,-3.96 2.52,-1.4 5.64,-1.4 3.12,0 5.64,1.4 2.52,1.36 3.96,3.92 1.48,2.56 1.48,5.96 0,3.4 -1.52,6 -1.48,2.56 -4.04,3.96 -2.56,1.4 -5.68,1.4 z m 0,-3.2 q 1.96,0 3.68,-0.92 1.72,-0.92 2.76,-2.76 1.08,-1.84 1.08,-4.48 0,-2.64 -1.04,-4.48 -1.04,-1.84 -2.72,-2.72 -1.68,-0.92 -3.64,-0.92 -2,0 -3.68,0.92 -1.64,0.88 -2.64,2.72 -1,1.84 -1,4.48 0,2.68 0.96,4.52 1,1.84 2.64,2.76 1.64,0.88 3.6,0.88 z"
       id="path1228"
       style="fill:#000000" />
    <path
       d="m 449.57706,1291.4352 -10.96,44.48 h -3.6 l 10.92,-44.48 z"
       id="path1230"
       style="fill:#000000" />
    <path
       d="m 464.05707,1306.8352 q 2.84,0 4.96,1.24 2.16,1.24 3.2,3.12 v -4 h 3.68 v 22.4 q 0,3 -1.28,5.32 -1.28,2.36 -3.68,3.68 -2.36,1.32 -5.52,1.32 -4.32,0 -7.2,-2.04 -2.88,-2.04 -3.4,-5.56 h 3.6 q 0.6,2 2.48,3.2 1.88,1.24 4.52,1.24 3,0 4.88,-1.88 1.92,-1.88 1.92,-5.28 v -4.6 q -1.08,1.92 -3.2,3.2 -2.12,1.28 -4.96,1.28 -2.92,0 -5.32,-1.44 -2.36,-1.44 -3.72,-4.04 -1.36,-2.6 -1.36,-5.92 0,-3.36 1.36,-5.88 1.36,-2.56 3.72,-3.96 2.4,-1.4 5.32,-1.4 z m 8.16,11.28 q 0,-2.48 -1,-4.32 -1,-1.84 -2.72,-2.8 -1.68,-1 -3.72,-1 -2.04,0 -3.72,0.96 -1.68,0.96 -2.68,2.8 -1,1.84 -1,4.32 0,2.52 1,4.4 1,1.84 2.68,2.84 1.68,0.96 3.72,0.96 2.04,0 3.72,-0.96 1.72,-1 2.72,-2.84 1,-1.88 1,-4.36 z"
       id="path1232"
       style="fill:#000000" />
    <path
       d="m 485.69708,1310.7552 q 0.96,-1.88 2.72,-2.92 1.8,-1.04 4.36,-1.04 v 3.76 h -0.96 q -6.12,0 -6.12,6.64 v 11.92 h -3.64 v -21.92 h 3.64 z"
       id="path1234"
       style="fill:#000000" />
    <path
       d="m 516.97703,1317.3152 q 0,1.04 -0.12,2.2 h -17.52 q 0.2,3.24 2.2,5.08 2.04,1.8 4.92,1.8 2.36,0 3.92,-1.08 1.6,-1.12 2.24,-2.96 h 3.92 q -0.88,3.16 -3.52,5.16 -2.64,1.96 -6.56,1.96 -3.12,0 -5.6,-1.4 -2.44,-1.4 -3.84,-3.96 -1.4,-2.6 -1.4,-6 0,-3.4 1.36,-5.96 1.36,-2.56 3.8,-3.92 2.48,-1.4 5.68,-1.4 3.12,0 5.52,1.36 2.4,1.36 3.68,3.76 1.32,2.36 1.32,5.36 z m -3.76,-0.76 q 0,-2.08 -0.92,-3.56 -0.92,-1.52 -2.52,-2.28 -1.56,-0.8 -3.48,-0.8 -2.76,0 -4.72,1.76 -1.92,1.76 -2.2,4.88 z"
       id="path1236"
       style="fill:#000000" />
    <path
       d="m 532.45708,1306.7952 q 4,0 6.48,2.44 2.48,2.4 2.48,6.96 v 12.92 h -3.6 v -12.4 q 0,-3.28 -1.64,-5 -1.64,-1.76 -4.48,-1.76 -2.88,0 -4.6,1.8 -1.68,1.8 -1.68,5.24 v 12.12 h -3.64 v -21.92 h 3.64 v 3.12 q 1.08,-1.68 2.92,-2.6 1.88,-0.92 4.12,-0.92 z"
       id="path1238"
       style="fill:#000000" />
    <path
       d="m 549.25706,1303.6352 q -1.04,0 -1.76,-0.72 -0.72,-0.72 -0.72,-1.76 0,-1.04 0.72,-1.76 0.72,-0.72 1.76,-0.72 1,0 1.68,0.72 0.72,0.72 0.72,1.76 0,1.04 -0.72,1.76 -0.68,0.72 -1.68,0.72 z m 1.76,3.56 v 21.92 h -3.64 v -21.92 z"
       id="path1240"
       style="fill:#000000" />
    <path
       d="m 566.77708,1329.4752 q -3.08,0 -5.6,-1.4 -2.48,-1.4 -3.92,-3.96 -1.4,-2.6 -1.4,-6 0,-3.36 1.44,-5.92 1.48,-2.6 4,-3.96 2.52,-1.4 5.64,-1.4 3.12,0 5.64,1.4 2.52,1.36 3.96,3.92 1.48,2.56 1.48,5.96 0,3.4 -1.52,6 -1.48,2.56 -4.04,3.96 -2.56,1.4 -5.68,1.4 z m 0,-3.2 q 1.96,0 3.68,-0.92 1.72,-0.92 2.76,-2.76 1.08,-1.84 1.08,-4.48 0,-2.64 -1.04,-4.48 -1.04,-1.84 -2.72,-2.72 -1.68,-0.92 -3.64,-0.92 -2,0 -3.68,0.92 -1.64,0.88 -2.64,2.72 -1,1.84 -1,4.48 0,2.68 0.96,4.52 1,1.84 2.64,2.76 1.64,0.88 3.6,0.88 z"
       id="path1242"
       style="fill:#000000" />
    <path
       d="m 602.25706,1307.1952 v 21.92 h -3.64 v -3.24 q -1.04,1.68 -2.92,2.64 -1.84,0.92 -4.08,0.92 -2.56,0 -4.6,-1.04 -2.04,-1.08 -3.24,-3.2 -1.16,-2.12 -1.16,-5.16 v -12.84 h 3.6 v 12.36 q 0,3.24 1.64,5 1.64,1.72 4.48,1.72 2.92,0 4.6,-1.8 1.68,-1.8 1.68,-5.24 v -12.04 z"
       id="path1244"
       style="fill:#000000" />
    <path
       d="m 616.17704,1329.4752 q -2.52,0 -4.52,-0.84 -2,-0.88 -3.16,-2.4 -1.16,-1.56 -1.28,-3.56 h 3.76 q 0.16,1.64 1.52,2.68 1.4,1.04 3.64,1.04 2.08,0 3.28,-0.92 1.2,-0.92 1.2,-2.32 0,-1.44 -1.28,-2.12 -1.28,-0.72 -3.96,-1.4 -2.44,-0.64 -4,-1.28 -1.52,-0.68 -2.64,-1.96 -1.08,-1.32 -1.08,-3.44 0,-1.68 1,-3.08 1,-1.4 2.84,-2.2 1.84,-0.84 4.2,-0.84 3.64,0 5.88,1.84 2.24,1.84 2.4,5.04 h -3.64 q -0.12,-1.72 -1.4,-2.76 -1.24,-1.04 -3.36,-1.04 -1.96,0 -3.12,0.84 -1.16,0.84 -1.16,2.2 0,1.08 0.68,1.8 0.72,0.68 1.76,1.12 1.08,0.4 2.96,0.92 2.36,0.64 3.84,1.28 1.48,0.6 2.52,1.84 1.08,1.24 1.12,3.24 0,1.8 -1,3.24 -1,1.44 -2.84,2.28 -1.8,0.8 -4.16,0.8 z"
       id="path1246"
       style="fill:#000000" />
  </g>
</svg>
